<ttFont>
<head>
    <!-- Most of this table will be recalculated by the compiler -->
    <tableVersion value="1.0"/>
    <fontRevision value="5.0"/>
    <checkSumAdjustment value="0xd7e36f07"/>
    <magicNumber value="0x5f0f3cf5"/>
    <flags value="00000000 00011111"/>
    <unitsPerEm value="2048"/>
    <created value="Sun May 15 08:57:39 2005"/>
    <modified value="Wed Apr 13 17:29:40 2011"/>
    <xMin value="0"/>
    <yMin value="-1055"/>
    <xMax value="6211"/>
    <yMax value="1617"/>
    <macStyle value="00000000 00000000"/>
    <lowestRecPPEM value="8"/>
    <fontDirectionHint value="2"/>
    <indexToLocFormat value="0"/>
    <glyphDataFormat value="0"/>
  </head>
    <TTGlyph name=".notdef" xMin="142" yMin="226" xMax="842" yMax="1588">
      <contour>
        <pt x="142" y="226" on="1"/>
        <pt x="142" y="1588" on="1"/>
        <pt x="842" y="1588" on="1"/>
        <pt x="842" y="226" on="1"/>
      </contour>
      <contour>
        <pt x="284" y="368" on="1"/>
        <pt x="700" y="368" on="1"/>
        <pt x="700" y="1447" on="1"/>
        <pt x="284" y="1447" on="1"/>
      </contour>
    </TTGlyph>
    <TTGlyph name=".null" xMin="142" yMin="226" xMax="842" yMax="1588">
      <contour>
        <pt x="142" y="226" on="1"/>
        <pt x="142" y="1588" on="1"/>
        <pt x="842" y="1588" on="1"/>
        <pt x="842" y="226" on="1"/>
      </contour>
      <contour>
        <pt x="284" y="368" on="1"/>
        <pt x="700" y="368" on="1"/>
        <pt x="700" y="1447" on="1"/>
        <pt x="284" y="1447" on="1"/>
      </contour>
    </TTGlyph>
    <TTGlyph name="afii57440" xMin="142" yMin="226" xMax="842" yMax="1588">
      <contour>
        <pt x="142" y="226" on="1"/>
        <pt x="142" y="1588" on="1"/>
        <pt x="842" y="1588" on="1"/>
        <pt x="842" y="226" on="1"/>
      </contour>
      <contour>
        <pt x="284" y="368" on="1"/>
        <pt x="700" y="368" on="1"/>
        <pt x="700" y="1447" on="1"/>
        <pt x="284" y="1447" on="1"/>
      </contour>
    </TTGlyph>
    <TTGlyph name="afii57534" xMin="142" yMin="226" xMax="842" yMax="1588">
      <contour>
        <pt x="142" y="226" on="1"/>
        <pt x="142" y="1588" on="1"/>
        <pt x="842" y="1588" on="1"/>
        <pt x="842" y="226" on="1"/>
      </contour>
      <contour>
        <pt x="284" y="368" on="1"/>
        <pt x="700" y="368" on="1"/>
        <pt x="700" y="1447" on="1"/>
        <pt x="284" y="1447" on="1"/>
      </contour>
    </TTGlyph>
    <TTGlyph name="hyphen" xMin="9" yMin="-459" xMax="1916" yMax="1310">
      <contour>
        <pt x="1810" y="753" on="1"/>
        <pt x="1779" y="735" on="1"/>
        <pt x="1779" y="743" on="0"/>
        <pt x="1769" y="763" on="1"/>
        <pt x="1715" y="809" on="0"/>
        <pt x="1636" y="891" on="1"/>
        <pt x="1578" y="972" on="0"/>
        <pt x="1572" y="1058" on="1"/>
        <pt x="1509" y="1044" on="0"/>
        <pt x="1509" y="907" on="1"/>
        <pt x="1509" y="841" on="0"/>
        <pt x="1524" y="804" on="1"/>
        <pt x="1485" y="836" on="1"/>
        <pt x="1478" y="872" on="0"/>
        <pt x="1478" y="908" on="1"/>
        <pt x="1478" y="1079" on="0"/>
        <pt x="1596" y="1113" on="1"/>
        <pt x="1598" y="1000" on="0"/>
        <pt x="1664" y="912" on="1"/>
        <pt x="1725" y="861" on="0"/>
        <pt x="1805" y="768" on="1"/>
        <pt x="1810" y="745" on="0"/>
      </contour>
      <contour>
        <pt x="1642" y="403" on="1"/>
        <pt x="1642" y="122" on="0"/>
        <pt x="1244" y="-276" on="0"/>
        <pt x="963" y="-276" on="1"/>
        <pt x="682" y="-276" on="0"/>
        <pt x="283" y="122" on="0"/>
        <pt x="283" y="403" on="1"/>
        <pt x="283" y="676" on="0"/>
        <pt x="474" y="872" on="1"/>
        <pt x="635" y="1038" on="0"/>
        <pt x="822" y="1067" on="1"/>
        <pt x="861" y="1072" on="0"/>
        <pt x="893" y="1099" on="1"/>
        <pt x="931" y="1131" on="0"/>
        <pt x="931" y="1173" on="1"/>
        <pt x="931" y="1217" on="0"/>
        <pt x="866" y="1282" on="0"/>
        <pt x="822" y="1282" on="1"/>
        <pt x="777" y="1282" on="0"/>
        <pt x="711" y="1217" on="0"/>
        <pt x="711" y="1173" on="1"/>
        <pt x="711" y="1121" on="0"/>
        <pt x="752" y="1087" on="1"/>
        <pt x="668" y="1077" on="0"/>
        <pt x="566" y="1035" on="1"/>
        <pt x="496" y="1006" on="0"/>
        <pt x="446" y="958" on="1"/>
        <pt x="411" y="962" on="1"/>
        <pt x="459" y="1017" on="0"/>
        <pt x="562" y="1064" on="1"/>
        <pt x="611" y="1086" on="0"/>
        <pt x="705" y="1105" on="1"/>
        <pt x="683" y="1139" on="0"/>
        <pt x="683" y="1181" on="1"/>
        <pt x="683" y="1238" on="0"/>
        <pt x="727" y="1275" on="1"/>
        <pt x="768" y="1310" on="0"/>
        <pt x="822" y="1310" on="1"/>
        <pt x="877" y="1310" on="0"/>
        <pt x="919" y="1273" on="1"/>
        <pt x="963" y="1234" on="0"/>
        <pt x="963" y="1179" on="1"/>
        <pt x="963" y="1119" on="0"/>
        <pt x="917" y="1081" on="1"/>
        <pt x="934" y="1082" on="0"/>
        <pt x="963" y="1082" on="1"/>
        <pt x="993" y="1082" on="0"/>
        <pt x="1008" y="1081" on="1"/>
        <pt x="963" y="1119" on="0"/>
        <pt x="963" y="1179" on="1"/>
        <pt x="963" y="1235" on="0"/>
        <pt x="1006" y="1273" on="1"/>
        <pt x="1047" y="1310" on="0"/>
        <pt x="1103" y="1310" on="1"/>
        <pt x="1158" y="1310" on="0"/>
        <pt x="1198" y="1275" on="1"/>
        <pt x="1244" y="1238" on="0"/>
        <pt x="1244" y="1181" on="1"/>
        <pt x="1244" y="1139" on="0"/>
        <pt x="1221" y="1105" on="1"/>
        <pt x="1312" y="1087" on="0"/>
        <pt x="1363" y="1064" on="1"/>
        <pt x="1466" y="1018" on="0"/>
        <pt x="1514" y="962" on="1"/>
        <pt x="1481" y="958" on="1"/>
        <pt x="1426" y="1008" on="0"/>
        <pt x="1359" y="1035" on="1"/>
        <pt x="1254" y="1078" on="0"/>
        <pt x="1172" y="1087" on="1"/>
        <pt x="1212" y="1120" on="0"/>
        <pt x="1212" y="1173" on="1"/>
        <pt x="1212" y="1217" on="0"/>
        <pt x="1149" y="1282" on="0"/>
        <pt x="1103" y="1282" on="1"/>
        <pt x="1059" y="1282" on="0"/>
        <pt x="994" y="1217" on="0"/>
        <pt x="994" y="1173" on="1"/>
        <pt x="994" y="1131" on="0"/>
        <pt x="1032" y="1099" on="1"/>
        <pt x="1064" y="1072" on="0"/>
        <pt x="1103" y="1067" on="1"/>
        <pt x="1291" y="1038" on="0"/>
        <pt x="1452" y="872" on="1"/>
        <pt x="1642" y="676" on="0"/>
      </contour>
      <contour>
        <pt x="442" y="836" on="1"/>
        <pt x="400" y="800" on="0"/>
        <pt x="401" y="804" on="1"/>
        <pt x="416" y="841" on="0"/>
        <pt x="416" y="908" on="1"/>
        <pt x="416" y="1044" on="0"/>
        <pt x="354" y="1058" on="1"/>
        <pt x="349" y="971" on="0"/>
        <pt x="291" y="891" on="1"/>
        <pt x="237" y="845" on="0"/>
        <pt x="155" y="763" on="1"/>
        <pt x="146" y="743" on="0"/>
        <pt x="146" y="735" on="1"/>
        <pt x="116" y="753" on="1"/>
        <pt x="116" y="760" on="0"/>
        <pt x="122" y="768" on="1"/>
        <pt x="132" y="791" on="0"/>
        <pt x="187" y="840" on="1"/>
        <pt x="250" y="894" on="0"/>
        <pt x="263" y="912" on="1"/>
        <pt x="326" y="997" on="0"/>
        <pt x="331" y="1113" on="1"/>
        <pt x="449" y="1079" on="0"/>
        <pt x="449" y="907" on="1"/>
        <pt x="449" y="872" on="0"/>
      </contour>
      <contour>
        <pt x="1916" y="800" on="1"/>
        <pt x="1865" y="724" on="0"/>
        <pt x="1871" y="586" on="1"/>
        <pt x="1887" y="529" on="0"/>
        <pt x="1907" y="425" on="1"/>
        <pt x="1908" y="398" on="0"/>
        <pt x="1861" y="343" on="0"/>
        <pt x="1836" y="343" on="1"/>
        <pt x="1801" y="343" on="0"/>
        <pt x="1783" y="361" on="1"/>
        <pt x="1783" y="21" on="0"/>
        <pt x="1303" y="-459" on="0"/>
        <pt x="963" y="-459" on="1"/>
        <pt x="623" y="-459" on="0"/>
        <pt x="142" y="21" on="0"/>
        <pt x="142" y="361" on="1"/>
        <pt x="125" y="343" on="0"/>
        <pt x="90" y="343" on="1"/>
        <pt x="66" y="343" on="0"/>
        <pt x="17" y="398" on="0"/>
        <pt x="18" y="425" on="1"/>
        <pt x="35" y="480" on="0"/>
        <pt x="54" y="586" on="1"/>
        <pt x="60" y="724" on="0"/>
        <pt x="9" y="800" on="1"/>
        <pt x="158" y="790" on="0"/>
        <pt x="204" y="679" on="1"/>
        <pt x="201" y="588" on="1"/>
        <pt x="197" y="643" on="0"/>
        <pt x="164" y="692" on="1"/>
        <pt x="122" y="755" on="0"/>
        <pt x="57" y="759" on="1"/>
        <pt x="86" y="715" on="0"/>
        <pt x="86" y="586" on="1"/>
        <pt x="86" y="562" on="0"/>
        <pt x="54" y="455" on="0"/>
        <pt x="53" y="435" on="1"/>
        <pt x="50" y="378" on="0"/>
        <pt x="106" y="378" on="1"/>
        <pt x="134" y="378" on="0"/>
        <pt x="160" y="417" on="1"/>
        <pt x="176" y="439" on="1"/>
        <pt x="172" y="392" on="0"/>
        <pt x="172" y="361" on="1"/>
        <pt x="172" y="39" on="0"/>
        <pt x="639" y="-419" on="0"/>
        <pt x="963" y="-419" on="1"/>
        <pt x="1287" y="-419" on="0"/>
        <pt x="1755" y="39" on="0"/>
        <pt x="1755" y="361" on="1"/>
        <pt x="1755" y="392" on="0"/>
        <pt x="1751" y="439" on="1"/>
        <pt x="1767" y="417" on="1"/>
        <pt x="1792" y="378" on="0"/>
        <pt x="1819" y="378" on="1"/>
        <pt x="1877" y="378" on="0"/>
        <pt x="1873" y="435" on="1"/>
        <pt x="1873" y="455" on="0"/>
        <pt x="1839" y="562" on="0"/>
        <pt x="1839" y="586" on="1"/>
        <pt x="1839" y="714" on="0"/>
        <pt x="1869" y="759" on="1"/>
        <pt x="1805" y="755" on="0"/>
        <pt x="1762" y="692" on="1"/>
        <pt x="1729" y="642" on="0"/>
        <pt x="1724" y="588" on="1"/>
        <pt x="1723" y="679" on="1"/>
        <pt x="1768" y="790" on="0"/>
      </contour>
      <contour>
        <pt x="1608" y="403" on="1"/>
        <pt x="1608" y="668" on="0"/>
        <pt x="1429" y="851" on="1"/>
        <pt x="1288" y="993" on="0"/>
        <pt x="1106" y="1035" on="1"/>
        <pt x="1046" y="1049" on="0"/>
        <pt x="963" y="1049" on="1"/>
        <pt x="880" y="1049" on="0"/>
        <pt x="820" y="1035" on="1"/>
        <pt x="638" y="993" on="0"/>
        <pt x="498" y="850" on="1"/>
        <pt x="319" y="668" on="0"/>
        <pt x="319" y="403" on="1"/>
        <pt x="319" y="134" on="0"/>
        <pt x="694" y="-242" on="0"/>
        <pt x="963" y="-242" on="1"/>
        <pt x="1232" y="-242" on="0"/>
        <pt x="1608" y="134" on="0"/>
      </contour>
      <contour>
        <pt x="1099" y="471" on="1"/>
        <pt x="1099" y="446" on="0"/>
        <pt x="1079" y="408" on="1"/>
        <pt x="1057" y="366" on="0"/>
        <pt x="1033" y="360" on="1"/>
        <pt x="1004" y="356" on="0"/>
        <pt x="947" y="330" on="1"/>
        <pt x="963" y="177" on="0"/>
        <pt x="955" y="116" on="1"/>
        <pt x="942" y="102" on="0"/>
        <pt x="925" y="102" on="1"/>
        <pt x="899" y="102" on="0"/>
        <pt x="877" y="164" on="1"/>
        <pt x="859" y="229" on="1"/>
        <pt x="848" y="263" on="0"/>
        <pt x="800" y="354" on="1"/>
        <pt x="761" y="432" on="0"/>
        <pt x="761" y="445" on="1"/>
        <pt x="761" y="465" on="0"/>
        <pt x="773" y="489" on="1"/>
        <pt x="790" y="522" on="0"/>
        <pt x="818" y="522" on="1"/>
        <pt x="832" y="522" on="0"/>
        <pt x="855" y="501" on="1"/>
        <pt x="882" y="473" on="0"/>
        <pt x="889" y="471" on="1"/>
        <pt x="890" y="471" on="0"/>
        <pt x="924" y="501" on="1"/>
        <pt x="950" y="522" on="0"/>
        <pt x="966" y="522" on="1"/>
        <pt x="978" y="522" on="0"/>
        <pt x="999" y="501" on="0"/>
        <pt x="1012" y="501" on="1"/>
        <pt x="1025" y="501" on="0"/>
        <pt x="1031" y="522" on="0"/>
        <pt x="1044" y="521" on="1"/>
        <pt x="1087" y="521" on="1"/>
        <pt x="1087" y="518" on="0"/>
        <pt x="1099" y="484" on="0"/>
      </contour>
    </TTGlyph>
    <TTGlyph name="uni000D" xMin="142" yMin="226" xMax="842" yMax="1588">
      <contour>
        <pt x="142" y="226" on="1"/>
        <pt x="142" y="1588" on="1"/>
        <pt x="842" y="1588" on="1"/>
        <pt x="842" y="226" on="1"/>
      </contour>
      <contour>
        <pt x="284" y="368" on="1"/>
        <pt x="700" y="368" on="1"/>
        <pt x="700" y="1447" on="1"/>
        <pt x="284" y="1447" on="1"/>
      </contour>
    </TTGlyph>
    <TTGlyph name="uni00A0" xMin="142" yMin="226" xMax="842" yMax="1588">
      <contour>
        <pt x="142" y="226" on="1"/>
        <pt x="142" y="1588" on="1"/>
        <pt x="842" y="1588" on="1"/>
        <pt x="842" y="226" on="1"/>
      </contour>
      <contour>
        <pt x="284" y="368" on="1"/>
        <pt x="700" y="368" on="1"/>
        <pt x="700" y="1447" on="1"/>
        <pt x="284" y="1447" on="1"/>
      </contour>
    </TTGlyph>
    <TTGlyph name="uni00AD" xMin="142" yMin="226" xMax="842" yMax="1588">
      <contour>
        <pt x="142" y="226" on="1"/>
        <pt x="142" y="1588" on="1"/>
        <pt x="842" y="1588" on="1"/>
        <pt x="842" y="226" on="1"/>
      </contour>
      <contour>
        <pt x="284" y="368" on="1"/>
        <pt x="700" y="368" on="1"/>
        <pt x="700" y="1447" on="1"/>
        <pt x="284" y="1447" on="1"/>
      </contour>
    </TTGlyph>
    <TTGlyph name="uni06C2" xMin="142" yMin="226" xMax="842" yMax="1588">
      <contour>
        <pt x="142" y="226" on="1"/>
        <pt x="142" y="1588" on="1"/>
        <pt x="842" y="1588" on="1"/>
        <pt x="842" y="226" on="1"/>
      </contour>
      <contour>
        <pt x="284" y="368" on="1"/>
        <pt x="700" y="368" on="1"/>
        <pt x="700" y="1447" on="1"/>
        <pt x="284" y="1447" on="1"/>
      </contour>
    </TTGlyph>
    <TTGlyph name="uniFB51" xMin="4" yMin="-602" xMax="3095" yMax="780">
      <contour>
        <pt x="2429" y="689" on="1"/>
        <pt x="2403" y="668" on="0"/>
        <pt x="2272" y="596" on="1"/>
        <pt x="2216" y="608" on="1"/>
        <pt x="2216" y="632" on="0"/>
        <pt x="2276" y="673" on="1"/>
        <pt x="2261" y="698" on="0"/>
        <pt x="2230" y="698" on="1"/>
        <pt x="2205" y="698" on="0"/>
        <pt x="2145" y="689" on="1"/>
        <pt x="2167" y="780" on="0"/>
        <pt x="2266" y="780" on="1"/>
        <pt x="2338" y="780" on="0"/>
        <pt x="2429" y="727" on="1"/>
      </contour>
      <contour>
        <pt x="2839" y="-193" on="1"/>
        <pt x="2839" y="-264" on="0"/>
        <pt x="2778" y="-264" on="1"/>
        <pt x="2750" y="-264" on="0"/>
        <pt x="2707" y="-221" on="0"/>
        <pt x="2707" y="-193" on="1"/>
        <pt x="2707" y="-121" on="0"/>
        <pt x="2762" y="-121" on="1"/>
        <pt x="2793" y="-121" on="0"/>
        <pt x="2839" y="-164" on="0"/>
      </contour>
      <contour>
        <pt x="3095" y="-448" on="1"/>
        <pt x="2990" y="-492" on="0"/>
        <pt x="2827" y="-548" on="1"/>
        <pt x="2668" y="-602" on="0"/>
        <pt x="2648" y="-602" on="1"/>
        <pt x="2607" y="-602" on="1"/>
        <pt x="2594" y="-589" on="1"/>
        <pt x="2594" y="-552" on="1"/>
        <pt x="2670" y="-500" on="0"/>
        <pt x="3040" y="-389" on="1"/>
        <pt x="3082" y="-389" on="1"/>
        <pt x="3095" y="-400" on="1"/>
      </contour>
      <contour>
        <pt x="2860" y="221" on="1"/>
        <pt x="2860" y="32" on="0"/>
        <pt x="2727" y="32" on="1"/>
        <pt x="2715" y="32" on="0"/>
        <pt x="2604" y="73" on="0"/>
        <pt x="2593" y="73" on="1"/>
        <pt x="2580" y="73" on="0"/>
        <pt x="2443" y="22" on="0"/>
        <pt x="2430" y="22" on="1"/>
        <pt x="2261" y="22" on="1"/>
        <pt x="2246" y="22" on="0"/>
        <pt x="2108" y="52" on="0"/>
        <pt x="2097" y="52" on="1"/>
        <pt x="2086" y="52" on="0"/>
        <pt x="2032" y="36" on="1"/>
        <pt x="1971" y="18" on="0"/>
        <pt x="1944" y="14" on="1"/>
        <pt x="1588" y="-39" on="0"/>
        <pt x="1508" y="-39" on="1"/>
        <pt x="1496" y="-39" on="0"/>
        <pt x="1107" y="-49" on="0"/>
        <pt x="1094" y="-49" on="1"/>
        <pt x="1083" y="-49" on="0"/>
        <pt x="914" y="-39" on="0"/>
        <pt x="899" y="-39" on="1"/>
        <pt x="890" y="-39" on="0"/>
        <pt x="621" y="11" on="0"/>
        <pt x="607" y="11" on="1"/>
        <pt x="598" y="11" on="0"/>
        <pt x="467" y="-18" on="0"/>
        <pt x="454" y="-18" on="1"/>
        <pt x="443" y="-18" on="0"/>
        <pt x="375" y="-9" on="0"/>
        <pt x="361" y="-9" on="1"/>
        <pt x="328" y="-9" on="0"/>
        <pt x="192" y="-121" on="0"/>
        <pt x="101" y="-121" on="1"/>
        <pt x="89" y="-121" on="0"/>
        <pt x="33" y="-111" on="0"/>
        <pt x="16" y="-110" on="1"/>
        <pt x="4" y="-98" on="1"/>
        <pt x="4" y="-71" on="1"/>
        <pt x="81" y="-36" on="0"/>
        <pt x="225" y="40" on="1"/>
        <pt x="225" y="77" on="0"/>
        <pt x="231" y="151" on="1"/>
        <pt x="239" y="191" on="0"/>
        <pt x="357" y="288" on="0"/>
        <pt x="397" y="288" on="1"/>
        <pt x="437" y="288" on="0"/>
        <pt x="461" y="274" on="1"/>
        <pt x="491" y="242" on="0"/>
        <pt x="553" y="198" on="1"/>
        <pt x="594" y="179" on="0"/>
        <pt x="676" y="147" on="1"/>
        <pt x="745" y="124" on="0"/>
        <pt x="808" y="116" on="1"/>
        <pt x="1109" y="84" on="0"/>
        <pt x="1201" y="84" on="1"/>
        <pt x="1214" y="84" on="0"/>
        <pt x="1444" y="93" on="0"/>
        <pt x="1457" y="93" on="1"/>
        <pt x="1587" y="93" on="0"/>
        <pt x="1850" y="127" on="1"/>
        <pt x="1892" y="132" on="0"/>
        <pt x="2028" y="170" on="1"/>
        <pt x="2158" y="206" on="0"/>
        <pt x="2168" y="206" on="1"/>
        <pt x="2180" y="206" on="0"/>
        <pt x="2268" y="145" on="0"/>
        <pt x="2281" y="145" on="1"/>
        <pt x="2293" y="145" on="0"/>
        <pt x="2408" y="186" on="0"/>
        <pt x="2420" y="186" on="1"/>
        <pt x="2430" y="186" on="0"/>
        <pt x="2473" y="165" on="0"/>
        <pt x="2486" y="165" on="1"/>
        <pt x="2498" y="165" on="0"/>
        <pt x="2575" y="206" on="0"/>
        <pt x="2589" y="206" on="1"/>
        <pt x="2601" y="206" on="0"/>
        <pt x="2693" y="165" on="0"/>
        <pt x="2707" y="165" on="1"/>
        <pt x="2778" y="165" on="0"/>
        <pt x="2778" y="201" on="1"/>
        <pt x="2778" y="258" on="0"/>
        <pt x="2713" y="362" on="1"/>
        <pt x="2675" y="390" on="0"/>
        <pt x="2607" y="454" on="1"/>
        <pt x="2593" y="471" on="0"/>
        <pt x="2593" y="528" on="1"/>
        <pt x="2593" y="562" on="0"/>
        <pt x="2607" y="595" on="1"/>
        <pt x="2625" y="637" on="0"/>
        <pt x="2655" y="637" on="1"/>
        <pt x="2757" y="637" on="0"/>
      </contour>
      <contour>
        <pt x="616" y="-282" on="1"/>
        <pt x="358" y="-398" on="0"/>
        <pt x="324" y="-397" on="1"/>
        <pt x="240" y="-397" on="1"/>
        <pt x="240" y="-393" on="0"/>
        <pt x="228" y="-376" on="0"/>
        <pt x="228" y="-362" on="1"/>
        <pt x="228" y="-319" on="0"/>
        <pt x="386" y="-262" on="1"/>
        <pt x="525" y="-213" on="0"/>
        <pt x="572" y="-213" on="1"/>
        <pt x="586" y="-213" on="0"/>
        <pt x="613" y="-225" on="0"/>
        <pt x="616" y="-225" on="1"/>
      </contour>
      <contour>
        <pt x="441" y="124" on="1"/>
        <pt x="422" y="148" on="0"/>
        <pt x="406" y="166" on="1"/>
        <pt x="389" y="180" on="0"/>
        <pt x="363" y="156" on="1"/>
        <pt x="382" y="134" on="0"/>
      </contour>
    </TTGlyph>
    <TTGlyph name="uniFB52" xMin="65" yMin="-387" xMax="1314" yMax="1250">
      <contour>
        <pt x="884" y="1220" on="1"/>
        <pt x="884" y="1189" on="0"/>
        <pt x="861" y="1172" on="1"/>
        <pt x="755" y="1108" on="0"/>
        <pt x="407" y="923" on="1"/>
        <pt x="383" y="948" on="0"/>
        <pt x="383" y="958" on="1"/>
        <pt x="383" y="991" on="0"/>
        <pt x="593" y="1109" on="1"/>
        <pt x="778" y="1214" on="0"/>
        <pt x="870" y="1250" on="1"/>
        <pt x="884" y="1236" on="0"/>
      </contour>
      <contour>
        <pt x="1253" y="237" on="1"/>
        <pt x="1253" y="175" on="0"/>
        <pt x="1219" y="125" on="1"/>
        <pt x="1201" y="125" on="0"/>
        <pt x="1184" y="148" on="1"/>
        <pt x="1170" y="233" on="0"/>
        <pt x="1121" y="505" on="1"/>
        <pt x="1079" y="737" on="0"/>
        <pt x="1079" y="749" on="1"/>
        <pt x="1079" y="805" on="0"/>
        <pt x="1102" y="840" on="1"/>
        <pt x="1117" y="840" on="0"/>
        <pt x="1154" y="810" on="0"/>
        <pt x="1157" y="796" on="1"/>
        <pt x="1253" y="315" on="0"/>
      </contour>
      <contour>
        <pt x="813" y="754" on="1"/>
        <pt x="813" y="686" on="0"/>
        <pt x="738" y="641" on="1"/>
        <pt x="678" y="605" on="0"/>
        <pt x="618" y="605" on="1"/>
        <pt x="557" y="605" on="0"/>
        <pt x="557" y="677" on="1"/>
        <pt x="557" y="702" on="0"/>
        <pt x="579" y="748" on="1"/>
        <pt x="594" y="748" on="0"/>
        <pt x="625" y="718" on="1"/>
        <pt x="642" y="723" on="0"/>
        <pt x="666" y="750" on="1"/>
        <pt x="695" y="782" on="0"/>
        <pt x="707" y="789" on="1"/>
        <pt x="707" y="778" on="0"/>
        <pt x="728" y="738" on="1"/>
        <pt x="744" y="744" on="0"/>
        <pt x="764" y="770" on="1"/>
        <pt x="786" y="800" on="0"/>
        <pt x="800" y="809" on="1"/>
        <pt x="800" y="806" on="0"/>
        <pt x="813" y="768" on="0"/>
      </contour>
      <contour>
        <pt x="1038" y="155" on="1"/>
        <pt x="1038" y="-9" on="0"/>
        <pt x="920" y="-9" on="1"/>
        <pt x="833" y="-9" on="0"/>
        <pt x="765" y="63" on="1"/>
        <pt x="750" y="40" on="0"/>
        <pt x="708" y="-4" on="1"/>
        <pt x="661" y="-45" on="0"/>
        <pt x="642" y="-53" on="1"/>
        <pt x="626" y="-59" on="0"/>
        <pt x="582" y="-59" on="1"/>
        <pt x="534" y="-59" on="0"/>
        <pt x="511" y="-40" on="1"/>
        <pt x="490" y="-24" on="0"/>
        <pt x="427" y="63" on="1"/>
        <pt x="410" y="51" on="0"/>
        <pt x="329" y="2" on="0"/>
        <pt x="265" y="2" on="1"/>
        <pt x="147" y="2" on="0"/>
        <pt x="147" y="63" on="1"/>
        <pt x="147" y="125" on="0"/>
        <pt x="249" y="204" on="1"/>
        <pt x="334" y="270" on="0"/>
        <pt x="376" y="280" on="1"/>
        <pt x="412" y="289" on="0"/>
        <pt x="458" y="380" on="1"/>
        <pt x="484" y="364" on="0"/>
        <pt x="490" y="281" on="1"/>
        <pt x="498" y="171" on="0"/>
        <pt x="507" y="143" on="1"/>
        <pt x="529" y="73" on="0"/>
        <pt x="597" y="73" on="1"/>
        <pt x="648" y="73" on="0"/>
        <pt x="682" y="111" on="1"/>
        <pt x="711" y="144" on="0"/>
        <pt x="711" y="180" on="1"/>
        <pt x="711" y="193" on="0"/>
        <pt x="670" y="419" on="0"/>
        <pt x="670" y="432" on="1"/>
        <pt x="670" y="479" on="0"/>
        <pt x="711" y="514" on="1"/>
        <pt x="738" y="460" on="0"/>
        <pt x="774" y="282" on="1"/>
        <pt x="795" y="178" on="0"/>
        <pt x="901" y="124" on="1"/>
        <pt x="939" y="124" on="1"/>
        <pt x="946" y="131" on="0"/>
        <pt x="946" y="145" on="1"/>
        <pt x="946" y="157" on="0"/>
        <pt x="854" y="424" on="0"/>
        <pt x="854" y="437" on="1"/>
        <pt x="854" y="452" on="0"/>
        <pt x="876" y="523" on="1"/>
        <pt x="903" y="523" on="0"/>
        <pt x="910" y="510" on="1"/>
        <pt x="928" y="452" on="0"/>
        <pt x="969" y="347" on="1"/>
        <pt x="1038" y="197" on="0"/>
      </contour>
      <contour>
        <pt x="454" y="-229" on="1"/>
        <pt x="444" y="-249" on="0"/>
        <pt x="411" y="-281" on="1"/>
        <pt x="350" y="-314" on="0"/>
        <pt x="238" y="-353" on="1"/>
        <pt x="134" y="-387" on="0"/>
        <pt x="111" y="-387" on="1"/>
        <pt x="65" y="-387" on="0"/>
        <pt x="65" y="-346" on="1"/>
        <pt x="65" y="-300" on="0"/>
        <pt x="223" y="-242" on="1"/>
        <pt x="358" y="-193" on="0"/>
        <pt x="393" y="-193" on="1"/>
        <pt x="418" y="-193" on="0"/>
      </contour>
      <contour>
        <pt x="423" y="184" on="1"/>
        <pt x="368" y="184" on="1"/>
        <pt x="347" y="186" on="0"/>
        <pt x="301" y="136" on="1"/>
        <pt x="366" y="136" on="1"/>
        <pt x="399" y="134" on="0"/>
      </contour>
      <contour>
        <pt x="1314" y="1075" on="1"/>
        <pt x="1314" y="1005" on="0"/>
        <pt x="1241" y="956" on="1"/>
        <pt x="1179" y="916" on="0"/>
        <pt x="1125" y="916" on="1"/>
        <pt x="1114" y="916" on="0"/>
        <pt x="1013" y="947" on="0"/>
        <pt x="1002" y="947" on="1"/>
        <pt x="991" y="947" on="0"/>
        <pt x="937" y="928" on="0"/>
        <pt x="927" y="928" on="1"/>
        <pt x="933" y="953" on="0"/>
        <pt x="991" y="1019" on="0"/>
        <pt x="1014" y="1026" on="1"/>
        <pt x="1040" y="1023" on="0"/>
        <pt x="1092" y="1031" on="1"/>
        <pt x="1163" y="1095" on="1"/>
        <pt x="1220" y="1141" on="0"/>
        <pt x="1253" y="1141" on="1"/>
        <pt x="1314" y="1141" on="0"/>
      </contour>
      <contour>
        <pt x="1168" y="1029" on="1"/>
        <pt x="1212" y="1010" on="0"/>
        <pt x="1248" y="1031" on="1"/>
        <pt x="1228" y="1082" on="0"/>
      </contour>
    </TTGlyph>
    <TTGlyph name="uniFB53" xMin="176" yMin="-473" xMax="2396" yMax="1348">
      <contour>
        <pt x="1823" y="1337" on="1"/>
        <pt x="1823" y="1326" on="0"/>
        <pt x="1809" y="1289" on="1"/>
        <pt x="1724" y="1244" on="0"/>
        <pt x="1583" y="1180" on="1"/>
        <pt x="1435" y="1113" on="0"/>
        <pt x="1419" y="1114" on="1"/>
        <pt x="1374" y="1114" on="1"/>
        <pt x="1374" y="1162" on="1"/>
        <pt x="1412" y="1197" on="0"/>
        <pt x="1547" y="1254" on="1"/>
        <pt x="1767" y="1348" on="1"/>
        <pt x="1791" y="1348" on="0"/>
        <pt x="1822" y="1337" on="0"/>
      </contour>
      <contour>
        <pt x="2346" y="228" on="1"/>
        <pt x="2336" y="188" on="0"/>
        <pt x="2299" y="130" on="1"/>
        <pt x="2263" y="187" on="0"/>
        <pt x="2249" y="285" on="1"/>
        <pt x="2240" y="364" on="0"/>
        <pt x="2230" y="442" on="1"/>
        <pt x="2222" y="488" on="0"/>
        <pt x="2196" y="610" on="1"/>
        <pt x="2172" y="717" on="0"/>
        <pt x="2172" y="729" on="1"/>
        <pt x="2172" y="781" on="0"/>
        <pt x="2195" y="816" on="1"/>
        <pt x="2236" y="816" on="0"/>
        <pt x="2240" y="782" on="1"/>
        <pt x="2254" y="739" on="0"/>
        <pt x="2281" y="638" on="1"/>
        <pt x="2346" y="338" on="0"/>
      </contour>
      <contour>
        <pt x="1712" y="949" on="1"/>
        <pt x="1712" y="897" on="0"/>
        <pt x="1655" y="867" on="1"/>
        <pt x="1576" y="834" on="1"/>
        <pt x="1526" y="806" on="0"/>
        <pt x="1517" y="806" on="1"/>
        <pt x="1456" y="806" on="0"/>
        <pt x="1456" y="883" on="1"/>
        <pt x="1456" y="918" on="0"/>
        <pt x="1491" y="970" on="1"/>
        <pt x="1494" y="967" on="0"/>
        <pt x="1520" y="931" on="0"/>
        <pt x="1532" y="919" on="1"/>
        <pt x="1542" y="934" on="0"/>
        <pt x="1572" y="1006" on="0"/>
        <pt x="1583" y="1021" on="1"/>
        <pt x="1610" y="1008" on="0"/>
        <pt x="1626" y="970" on="1"/>
        <pt x="1628" y="972" on="0"/>
        <pt x="1663" y="1041" on="1"/>
        <pt x="1683" y="1041" on="0"/>
        <pt x="1697" y="1018" on="1"/>
        <pt x="1712" y="941" on="0"/>
      </contour>
      <contour>
        <pt x="1282" y="949" on="1"/>
        <pt x="1282" y="906" on="0"/>
        <pt x="1166" y="852" on="1"/>
        <pt x="1070" y="806" on="0"/>
        <pt x="1046" y="806" on="1"/>
        <pt x="1031" y="806" on="0"/>
        <pt x="999" y="818" on="0"/>
        <pt x="996" y="818" on="1"/>
        <pt x="996" y="855" on="1"/>
        <pt x="999" y="857" on="0"/>
        <pt x="1056" y="878" on="1"/>
        <pt x="1089" y="890" on="0"/>
        <pt x="1098" y="922" on="1"/>
        <pt x="1080" y="944" on="0"/>
        <pt x="1061" y="944" on="1"/>
        <pt x="1048" y="944" on="0"/>
        <pt x="1006" y="919" on="0"/>
        <pt x="998" y="919" on="1"/>
        <pt x="985" y="931" on="1"/>
        <pt x="985" y="979" on="1"/>
        <pt x="1054" y="1042" on="0"/>
        <pt x="1092" y="1042" on="1"/>
        <pt x="1104" y="1042" on="0"/>
        <pt x="1164" y="1019" on="1"/>
        <pt x="1236" y="992" on="0"/>
        <pt x="1258" y="986" on="1"/>
        <pt x="1282" y="972" on="0"/>
      </contour>
      <contour>
        <pt x="2081" y="238" on="1"/>
        <pt x="2081" y="99" on="0"/>
        <pt x="2016" y="62" on="1"/>
        <pt x="2008" y="57" on="0"/>
        <pt x="1947" y="39" on="1"/>
        <pt x="1899" y="24" on="0"/>
        <pt x="1877" y="0" on="1"/>
        <pt x="1852" y="-64" on="0"/>
        <pt x="1778" y="-185" on="1"/>
        <pt x="1747" y="-221" on="0"/>
        <pt x="1667" y="-245" on="1"/>
        <pt x="1658" y="-248" on="0"/>
        <pt x="1583" y="-248" on="1"/>
        <pt x="1420" y="-248" on="0"/>
        <pt x="1384" y="-170" on="1"/>
        <pt x="1409" y="-145" on="0"/>
        <pt x="1425" y="-145" on="1"/>
        <pt x="1435" y="-145" on="0"/>
        <pt x="1512" y="-166" on="0"/>
        <pt x="1528" y="-166" on="1"/>
        <pt x="1602" y="-166" on="0"/>
        <pt x="1698" y="-104" on="1"/>
        <pt x="1797" y="-40" on="0"/>
        <pt x="1810" y="24" on="1"/>
        <pt x="1813" y="35" on="0"/>
        <pt x="1805" y="61" on="1"/>
        <pt x="1796" y="89" on="0"/>
        <pt x="1796" y="105" on="1"/>
        <pt x="1796" y="138" on="0"/>
        <pt x="1827" y="167" on="1"/>
        <pt x="1843" y="172" on="0"/>
        <pt x="1866" y="172" on="1"/>
        <pt x="1877" y="172" on="0"/>
        <pt x="1923" y="169" on="0"/>
        <pt x="1934" y="169" on="1"/>
        <pt x="2000" y="169" on="0"/>
        <pt x="2009" y="233" on="1"/>
        <pt x="1886" y="800" on="1"/>
        <pt x="1886" y="846" on="0"/>
        <pt x="1920" y="898" on="1"/>
        <pt x="1943" y="885" on="0"/>
        <pt x="1980" y="824" on="1"/>
        <pt x="1984" y="818" on="0"/>
        <pt x="2018" y="787" on="1"/>
        <pt x="2046" y="762" on="0"/>
        <pt x="2046" y="746" on="1"/>
        <pt x="2046" y="739" on="0"/>
        <pt x="2022" y="685" on="0"/>
        <pt x="2022" y="668" on="1"/>
        <pt x="2017" y="581" on="0"/>
        <pt x="2048" y="409" on="1"/>
        <pt x="2081" y="231" on="0"/>
      </contour>
      <contour>
        <pt x="975" y="1181" on="1"/>
        <pt x="967" y="1130" on="0"/>
        <pt x="839" y="1073" on="1"/>
        <pt x="629" y="991" on="1"/>
        <pt x="629" y="995" on="0"/>
        <pt x="616" y="1012" on="0"/>
        <pt x="616" y="1026" on="1"/>
        <pt x="616" y="1031" on="0"/>
        <pt x="630" y="1067" on="1"/>
        <pt x="690" y="1103" on="0"/>
        <pt x="791" y="1153" on="1"/>
        <pt x="899" y="1205" on="0"/>
        <pt x="920" y="1205" on="1"/>
        <pt x="951" y="1205" on="1"/>
      </contour>
      <contour>
        <pt x="821" y="612" on="1"/>
        <pt x="821" y="587" on="0"/>
        <pt x="798" y="541" on="1"/>
        <pt x="762" y="541" on="1"/>
        <pt x="751" y="571" on="0"/>
        <pt x="707" y="656" on="1"/>
        <pt x="668" y="732" on="0"/>
        <pt x="668" y="745" on="1"/>
        <pt x="668" y="772" on="0"/>
        <pt x="691" y="795" on="1"/>
        <pt x="698" y="795" on="0"/>
        <pt x="736" y="781" on="1"/>
        <pt x="763" y="755" on="0"/>
        <pt x="790" y="703" on="1"/>
        <pt x="821" y="646" on="0"/>
      </contour>
      <contour>
        <pt x="1783" y="530" on="1"/>
        <pt x="1783" y="457" on="0"/>
        <pt x="1675" y="424" on="0"/>
        <pt x="1570" y="419" on="1"/>
        <pt x="1455" y="413" on="0"/>
        <pt x="1411" y="403" on="1"/>
        <pt x="1333" y="387" on="0"/>
        <pt x="1305" y="377" on="1"/>
        <pt x="1247" y="357" on="0"/>
        <pt x="1200" y="319" on="1"/>
        <pt x="1233" y="270" on="0"/>
        <pt x="1239" y="251" on="1"/>
        <pt x="1241" y="242" on="0"/>
        <pt x="1241" y="197" on="1"/>
        <pt x="1241" y="59" on="0"/>
        <pt x="1128" y="59" on="1"/>
        <pt x="1116" y="59" on="0"/>
        <pt x="993" y="100" on="0"/>
        <pt x="980" y="100" on="1"/>
        <pt x="973" y="100" on="0"/>
        <pt x="923" y="84" on="1"/>
        <pt x="871" y="68" on="0"/>
        <pt x="828" y="66" on="1"/>
        <pt x="804" y="-1" on="0"/>
        <pt x="734" y="-123" on="1"/>
        <pt x="708" y="-157" on="0"/>
        <pt x="561" y="-229" on="0"/>
        <pt x="509" y="-235" on="1"/>
        <pt x="487" y="-238" on="0"/>
        <pt x="437" y="-238" on="1"/>
        <pt x="176" y="-238" on="0"/>
        <pt x="176" y="2" on="1"/>
        <pt x="176" y="64" on="0"/>
        <pt x="210" y="133" on="1"/>
        <pt x="251" y="215" on="0"/>
        <pt x="308" y="221" on="1"/>
        <pt x="308" y="175" on="1"/>
        <pt x="309" y="162" on="0"/>
        <pt x="258" y="61" on="0"/>
        <pt x="258" y="48" on="1"/>
        <pt x="258" y="-32" on="0"/>
        <pt x="358" y="-75" on="1"/>
        <pt x="427" y="-104" on="0"/>
        <pt x="493" y="-104" on="1"/>
        <pt x="554" y="-104" on="0"/>
        <pt x="627" y="-74" on="1"/>
        <pt x="718" y="-35" on="0"/>
        <pt x="718" y="23" on="1"/>
        <pt x="718" y="63" on="0"/>
        <pt x="704" y="114" on="1"/>
        <pt x="699" y="132" on="0"/>
        <pt x="672" y="192" on="1"/>
        <pt x="647" y="245" on="0"/>
        <pt x="647" y="258" on="1"/>
        <pt x="647" y="301" on="0"/>
        <pt x="681" y="335" on="1"/>
        <pt x="699" y="335" on="0"/>
        <pt x="723" y="319" on="1"/>
        <pt x="785" y="237" on="1"/>
        <pt x="813" y="212" on="0"/>
        <pt x="877" y="212" on="1"/>
        <pt x="934" y="212" on="0"/>
        <pt x="945" y="224" on="1"/>
        <pt x="980" y="270" on="0"/>
        <pt x="1058" y="351" on="1"/>
        <pt x="1092" y="377" on="0"/>
        <pt x="1220" y="454" on="1"/>
        <pt x="1207" y="469" on="0"/>
        <pt x="1159" y="469" on="1"/>
        <pt x="1133" y="469" on="0"/>
        <pt x="1017" y="449" on="1"/>
        <pt x="1017" y="452" on="0"/>
        <pt x="1005" y="469" on="0"/>
        <pt x="1005" y="483" on="1"/>
        <pt x="1005" y="509" on="0"/>
        <pt x="1135" y="653" on="0"/>
        <pt x="1164" y="653" on="1"/>
        <pt x="1177" y="653" on="0"/>
        <pt x="1480" y="560" on="0"/>
        <pt x="1492" y="560" on="1"/>
        <pt x="1770" y="560" on="1"/>
        <pt x="1783" y="548" on="0"/>
      </contour>
      <contour>
        <pt x="493" y="541" on="1"/>
        <pt x="468" y="519" on="0"/>
        <pt x="437" y="519" on="1"/>
        <pt x="412" y="519" on="0"/>
        <pt x="383" y="539" on="1"/>
        <pt x="350" y="560" on="0"/>
        <pt x="350" y="586" on="1"/>
        <pt x="350" y="609" on="0"/>
        <pt x="390" y="653" on="0"/>
        <pt x="417" y="653" on="1"/>
        <pt x="447" y="653" on="0"/>
        <pt x="493" y="609" on="1"/>
      </contour>
      <contour>
        <pt x="862" y="-327" on="1"/>
        <pt x="817" y="-358" on="0"/>
        <pt x="681" y="-416" on="1"/>
        <pt x="549" y="-473" on="0"/>
        <pt x="528" y="-473" on="1"/>
        <pt x="486" y="-473" on="1"/>
        <pt x="473" y="-459" on="0"/>
        <pt x="473" y="-443" on="1"/>
        <pt x="473" y="-399" on="0"/>
        <pt x="507" y="-385" on="1"/>
        <pt x="791" y="-268" on="0"/>
        <pt x="811" y="-268" on="1"/>
        <pt x="838" y="-268" on="0"/>
        <pt x="862" y="-292" on="1"/>
      </contour>
      <contour>
        <pt x="1147" y="178" on="1"/>
        <pt x="1144" y="206" on="0"/>
        <pt x="1118" y="253" on="0"/>
        <pt x="1080" y="216" on="1"/>
        <pt x="1110" y="192" on="0"/>
      </contour>
      <contour>
        <pt x="2396" y="1067" on="1"/>
        <pt x="2396" y="997" on="0"/>
        <pt x="2322" y="948" on="1"/>
        <pt x="2261" y="908" on="0"/>
        <pt x="2207" y="908" on="1"/>
        <pt x="2195" y="908" on="0"/>
        <pt x="2095" y="939" on="0"/>
        <pt x="2084" y="939" on="1"/>
        <pt x="2072" y="939" on="0"/>
        <pt x="2018" y="920" on="0"/>
        <pt x="2009" y="920" on="1"/>
        <pt x="2014" y="945" on="0"/>
        <pt x="2072" y="1011" on="0"/>
        <pt x="2095" y="1017" on="1"/>
        <pt x="2122" y="1015" on="0"/>
        <pt x="2174" y="1022" on="1"/>
        <pt x="2244" y="1087" on="1"/>
        <pt x="2302" y="1133" on="0"/>
        <pt x="2335" y="1133" on="1"/>
        <pt x="2396" y="1133" on="0"/>
      </contour>
      <contour>
        <pt x="2250" y="1021" on="1"/>
        <pt x="2294" y="1002" on="0"/>
        <pt x="2330" y="1023" on="1"/>
        <pt x="2310" y="1074" on="0"/>
      </contour>
    </TTGlyph>
    <TTGlyph name="uniFB54" xMin="408" yMin="-555" xMax="2988" yMax="1158">
      <contour>
        <pt x="2887" y="361" on="1"/>
        <pt x="2887" y="170" on="0"/>
        <pt x="2849" y="152" on="1"/>
        <pt x="2724" y="723" on="1"/>
        <pt x="2721" y="748" on="0"/>
        <pt x="2759" y="786" on="1"/>
        <pt x="2797" y="757" on="0"/>
        <pt x="2834" y="605" on="1"/>
      </contour>
      <contour>
        <pt x="2251" y="1075" on="1"/>
        <pt x="2030" y="948" on="0"/>
        <pt x="1819" y="858" on="1"/>
        <pt x="1783" y="858" on="1"/>
        <pt x="1771" y="859" on="0"/>
        <pt x="1771" y="883" on="1"/>
        <pt x="1771" y="922" on="0"/>
        <pt x="1969" y="1019" on="1"/>
        <pt x="2107" y="1087" on="0"/>
        <pt x="2227" y="1134" on="1"/>
        <pt x="2241" y="1122" on="0"/>
        <pt x="2251" y="1122" on="1"/>
      </contour>
      <contour>
        <pt x="2140" y="704" on="1"/>
        <pt x="2140" y="681" on="0"/>
        <pt x="2126" y="636" on="1"/>
        <pt x="2123" y="627" on="0"/>
        <pt x="2041" y="579" on="1"/>
        <pt x="1955" y="530" on="0"/>
        <pt x="1930" y="530" on="1"/>
        <pt x="1874" y="530" on="0"/>
        <pt x="1874" y="612" on="1"/>
        <pt x="1874" y="647" on="0"/>
        <pt x="1896" y="693" on="1"/>
        <pt x="1910" y="693" on="0"/>
        <pt x="1951" y="653" on="1"/>
        <pt x="1971" y="673" on="0"/>
        <pt x="1997" y="750" on="0"/>
        <pt x="2011" y="765" on="1"/>
        <pt x="2022" y="757" on="0"/>
        <pt x="2053" y="694" on="1"/>
        <pt x="2064" y="724" on="0"/>
        <pt x="2104" y="786" on="1"/>
        <pt x="2140" y="750" on="0"/>
      </contour>
      <contour>
        <pt x="2621" y="223" on="1"/>
        <pt x="2621" y="161" on="0"/>
        <pt x="2596" y="72" on="1"/>
        <pt x="2583" y="51" on="0"/>
        <pt x="2557" y="31" on="1"/>
        <pt x="2518" y="25" on="0"/>
        <pt x="2445" y="-5" on="1"/>
        <pt x="2427" y="-17" on="0"/>
        <pt x="2408" y="-64" on="1"/>
        <pt x="2395" y="-99" on="0"/>
        <pt x="2381" y="-132" on="1"/>
        <pt x="2329" y="-240" on="0"/>
        <pt x="2218" y="-276" on="1"/>
        <pt x="2209" y="-279" on="0"/>
        <pt x="2150" y="-279" on="1"/>
        <pt x="2091" y="-279" on="0"/>
        <pt x="2000" y="-257" on="1"/>
        <pt x="1913" y="-236" on="0"/>
        <pt x="1875" y="-216" on="1"/>
        <pt x="1874" y="-208" on="0"/>
        <pt x="1864" y="-191" on="1"/>
        <pt x="1889" y="-166" on="0"/>
        <pt x="1905" y="-166" on="1"/>
        <pt x="1915" y="-166" on="0"/>
        <pt x="2029" y="-186" on="0"/>
        <pt x="2042" y="-186" on="1"/>
        <pt x="2118" y="-186" on="0"/>
        <pt x="2235" y="-132" on="1"/>
        <pt x="2365" y="-72" on="0"/>
        <pt x="2365" y="-13" on="1"/>
        <pt x="2365" y="-3" on="0"/>
        <pt x="2324" y="61" on="0"/>
        <pt x="2324" y="75" on="1"/>
        <pt x="2324" y="137" on="0"/>
        <pt x="2405" y="137" on="1"/>
        <pt x="2417" y="137" on="0"/>
        <pt x="2463" y="134" on="0"/>
        <pt x="2475" y="134" on="1"/>
        <pt x="2556" y="134" on="0"/>
        <pt x="2549" y="202" on="1"/>
        <pt x="2417" y="745" on="1"/>
        <pt x="2434" y="816" on="0"/>
        <pt x="2463" y="858" on="1"/>
        <pt x="2481" y="830" on="0"/>
        <pt x="2547" y="759" on="1"/>
        <pt x="2600" y="702" on="0"/>
        <pt x="2600" y="688" on="1"/>
        <pt x="2600" y="678" on="0"/>
        <pt x="2549" y="589" on="0"/>
        <pt x="2549" y="576" on="1"/>
        <pt x="2549" y="587" on="0"/>
        <pt x="2603" y="342" on="1"/>
        <pt x="2621" y="259" on="0"/>
      </contour>
      <contour>
        <pt x="2282" y="195" on="1"/>
        <pt x="2238" y="155" on="0"/>
        <pt x="2217" y="147" on="1"/>
        <pt x="2201" y="141" on="0"/>
        <pt x="2155" y="141" on="1"/>
        <pt x="2142" y="141" on="0"/>
        <pt x="2035" y="151" on="0"/>
        <pt x="2022" y="151" on="1"/>
        <pt x="1964" y="151" on="0"/>
        <pt x="1519" y="18" on="0"/>
        <pt x="1510" y="18" on="1"/>
        <pt x="1498" y="18" on="0"/>
        <pt x="1420" y="59" on="0"/>
        <pt x="1407" y="59" on="1"/>
        <pt x="1395" y="59" on="0"/>
        <pt x="1345" y="42" on="1"/>
        <pt x="1289" y="23" on="0"/>
        <pt x="1276" y="20" on="1"/>
        <pt x="1210" y="7" on="0"/>
        <pt x="1122" y="7" on="1"/>
        <pt x="1108" y="7" on="0"/>
        <pt x="960" y="39" on="0"/>
        <pt x="947" y="39" on="1"/>
        <pt x="936" y="39" on="0"/>
        <pt x="889" y="7" on="0"/>
        <pt x="876" y="7" on="1"/>
        <pt x="863" y="7" on="0"/>
        <pt x="765" y="39" on="0"/>
        <pt x="753" y="39" on="1"/>
        <pt x="741" y="39" on="0"/>
        <pt x="710" y="15" on="1"/>
        <pt x="673" y="-14" on="0"/>
        <pt x="663" y="-19" on="1"/>
        <pt x="592" y="-54" on="0"/>
        <pt x="497" y="-74" on="1"/>
        <pt x="454" y="-74" on="0"/>
        <pt x="408" y="-61" on="0"/>
        <pt x="410" y="-61" on="1"/>
        <pt x="426" y="-29" on="0"/>
        <pt x="528" y="10" on="1"/>
        <pt x="638" y="52" on="0"/>
        <pt x="673" y="97" on="1"/>
        <pt x="677" y="119" on="0"/>
        <pt x="689" y="158" on="1"/>
        <pt x="722" y="224" on="0"/>
        <pt x="791" y="270" on="1"/>
        <pt x="803" y="274" on="0"/>
        <pt x="819" y="274" on="1"/>
        <pt x="831" y="274" on="0"/>
        <pt x="881" y="232" on="1"/>
        <pt x="938" y="184" on="0"/>
        <pt x="959" y="174" on="1"/>
        <pt x="1067" y="120" on="0"/>
        <pt x="1152" y="120" on="1"/>
        <pt x="1230" y="120" on="0"/>
        <pt x="1335" y="153" on="1"/>
        <pt x="1347" y="157" on="0"/>
        <pt x="1381" y="186" on="1"/>
        <pt x="1412" y="212" on="0"/>
        <pt x="1428" y="212" on="1"/>
        <pt x="1438" y="212" on="0"/>
        <pt x="1485" y="151" on="0"/>
        <pt x="1541" y="151" on="1"/>
        <pt x="1597" y="151" on="0"/>
        <pt x="1783" y="220" on="1"/>
        <pt x="1779" y="256" on="0"/>
        <pt x="1714" y="282" on="1"/>
        <pt x="1657" y="305" on="0"/>
        <pt x="1602" y="305" on="1"/>
        <pt x="1559" y="305" on="0"/>
        <pt x="1509" y="294" on="1"/>
        <pt x="1484" y="319" on="0"/>
        <pt x="1484" y="330" on="1"/>
        <pt x="1484" y="374" on="0"/>
        <pt x="1570" y="429" on="1"/>
        <pt x="1648" y="478" on="0"/>
        <pt x="1684" y="478" on="1"/>
        <pt x="1697" y="478" on="0"/>
        <pt x="1775" y="428" on="1"/>
        <pt x="1873" y="367" on="0"/>
        <pt x="1912" y="347" on="1"/>
        <pt x="1983" y="313" on="0"/>
        <pt x="2095" y="289" on="1"/>
        <pt x="2282" y="251" on="1"/>
      </contour>
      <contour>
        <pt x="1915" y="-396" on="1"/>
        <pt x="1903" y="-414" on="0"/>
        <pt x="1881" y="-439" on="1"/>
        <pt x="1845" y="-450" on="0"/>
        <pt x="1698" y="-507" on="1"/>
        <pt x="1573" y="-555" on="0"/>
        <pt x="1560" y="-554" on="1"/>
        <pt x="1507" y="-554" on="1"/>
        <pt x="1507" y="-548" on="0"/>
        <pt x="1495" y="-512" on="0"/>
        <pt x="1495" y="-506" on="1"/>
        <pt x="1526" y="-480" on="0"/>
        <pt x="1683" y="-417" on="1"/>
        <pt x="1828" y="-360" on="0"/>
        <pt x="1839" y="-361" on="1"/>
        <pt x="1892" y="-361" on="1"/>
        <pt x="1898" y="-373" on="0"/>
      </contour>
      <contour>
        <pt x="1505" y="-120" on="1"/>
        <pt x="1505" y="-145" on="0"/>
        <pt x="1470" y="-186" on="0"/>
        <pt x="1448" y="-186" on="1"/>
        <pt x="1436" y="-186" on="0"/>
        <pt x="1400" y="-166" on="0"/>
        <pt x="1387" y="-166" on="1"/>
        <pt x="1376" y="-166" on="0"/>
        <pt x="1318" y="-207" on="0"/>
        <pt x="1305" y="-207" on="1"/>
        <pt x="1288" y="-207" on="0"/>
        <pt x="1239" y="-159" on="0"/>
        <pt x="1239" y="-140" on="1"/>
        <pt x="1239" y="-122" on="0"/>
        <pt x="1285" y="-74" on="0"/>
        <pt x="1305" y="-74" on="1"/>
        <pt x="1316" y="-74" on="0"/>
        <pt x="1344" y="-84" on="0"/>
        <pt x="1357" y="-84" on="1"/>
        <pt x="1370" y="-84" on="0"/>
        <pt x="1421" y="-54" on="0"/>
        <pt x="1434" y="-54" on="1"/>
        <pt x="1459" y="-54" on="0"/>
        <pt x="1505" y="-97" on="0"/>
      </contour>
      <contour>
        <pt x="901" y="-314" on="1"/>
        <pt x="901" y="-344" on="0"/>
        <pt x="746" y="-411" on="1"/>
        <pt x="600" y="-473" on="0"/>
        <pt x="578" y="-472" on="1"/>
        <pt x="513" y="-472" on="1"/>
        <pt x="513" y="-424" on="1"/>
        <pt x="804" y="-278" on="0"/>
        <pt x="846" y="-280" on="1"/>
        <pt x="890" y="-280" on="1"/>
        <pt x="890" y="-283" on="0"/>
        <pt x="901" y="-300" on="0"/>
      </contour>
      <contour>
        <pt x="858" y="122" on="1"/>
        <pt x="836" y="161" on="1"/>
        <pt x="826" y="179" on="0"/>
        <pt x="802" y="151" on="1"/>
        <pt x="818" y="130" on="0"/>
      </contour>
      <contour>
        <pt x="2988" y="1091" on="1"/>
        <pt x="2988" y="1022" on="0"/>
        <pt x="2914" y="972" on="1"/>
        <pt x="2852" y="932" on="0"/>
        <pt x="2798" y="932" on="1"/>
        <pt x="2787" y="932" on="0"/>
        <pt x="2686" y="963" on="0"/>
        <pt x="2676" y="963" on="1"/>
        <pt x="2664" y="963" on="0"/>
        <pt x="2610" y="945" on="0"/>
        <pt x="2600" y="945" on="1"/>
        <pt x="2606" y="969" on="0"/>
        <pt x="2664" y="1035" on="0"/>
        <pt x="2687" y="1042" on="1"/>
        <pt x="2713" y="1040" on="0"/>
        <pt x="2766" y="1047" on="1"/>
        <pt x="2790" y="1071" on="0"/>
        <pt x="2836" y="1112" on="1"/>
        <pt x="2893" y="1158" on="0"/>
        <pt x="2926" y="1158" on="1"/>
        <pt x="2988" y="1158" on="0"/>
      </contour>
      <contour>
        <pt x="2842" y="1045" on="1"/>
        <pt x="2885" y="1026" on="0"/>
        <pt x="2921" y="1048" on="1"/>
        <pt x="2902" y="1099" on="0"/>
      </contour>
    </TTGlyph>
    <TTGlyph name="uniFB55" xMin="9" yMin="-459" xMax="1916" yMax="1310">
      <contour>
        <pt x="1810" y="753" on="1"/>
        <pt x="1779" y="735" on="1"/>
        <pt x="1779" y="743" on="0"/>
        <pt x="1769" y="763" on="1"/>
        <pt x="1715" y="809" on="0"/>
        <pt x="1636" y="891" on="1"/>
        <pt x="1578" y="972" on="0"/>
        <pt x="1572" y="1058" on="1"/>
        <pt x="1509" y="1044" on="0"/>
        <pt x="1509" y="907" on="1"/>
        <pt x="1509" y="841" on="0"/>
        <pt x="1524" y="804" on="1"/>
        <pt x="1485" y="836" on="1"/>
        <pt x="1478" y="872" on="0"/>
        <pt x="1478" y="908" on="1"/>
        <pt x="1478" y="1079" on="0"/>
        <pt x="1596" y="1113" on="1"/>
        <pt x="1598" y="1000" on="0"/>
        <pt x="1664" y="912" on="1"/>
        <pt x="1725" y="861" on="0"/>
        <pt x="1805" y="768" on="1"/>
        <pt x="1810" y="745" on="0"/>
      </contour>
      <contour>
        <pt x="1642" y="403" on="1"/>
        <pt x="1642" y="122" on="0"/>
        <pt x="1244" y="-276" on="0"/>
        <pt x="963" y="-276" on="1"/>
        <pt x="682" y="-276" on="0"/>
        <pt x="283" y="122" on="0"/>
        <pt x="283" y="403" on="1"/>
        <pt x="283" y="676" on="0"/>
        <pt x="474" y="872" on="1"/>
        <pt x="635" y="1038" on="0"/>
        <pt x="822" y="1067" on="1"/>
        <pt x="861" y="1072" on="0"/>
        <pt x="893" y="1099" on="1"/>
        <pt x="931" y="1131" on="0"/>
        <pt x="931" y="1173" on="1"/>
        <pt x="931" y="1217" on="0"/>
        <pt x="866" y="1282" on="0"/>
        <pt x="822" y="1282" on="1"/>
        <pt x="777" y="1282" on="0"/>
        <pt x="711" y="1217" on="0"/>
        <pt x="711" y="1173" on="1"/>
        <pt x="711" y="1121" on="0"/>
        <pt x="752" y="1087" on="1"/>
        <pt x="668" y="1077" on="0"/>
        <pt x="566" y="1035" on="1"/>
        <pt x="496" y="1006" on="0"/>
        <pt x="446" y="958" on="1"/>
        <pt x="411" y="962" on="1"/>
        <pt x="459" y="1017" on="0"/>
        <pt x="562" y="1064" on="1"/>
        <pt x="611" y="1086" on="0"/>
        <pt x="705" y="1105" on="1"/>
        <pt x="683" y="1139" on="0"/>
        <pt x="683" y="1181" on="1"/>
        <pt x="683" y="1238" on="0"/>
        <pt x="727" y="1275" on="1"/>
        <pt x="768" y="1310" on="0"/>
        <pt x="822" y="1310" on="1"/>
        <pt x="877" y="1310" on="0"/>
        <pt x="919" y="1273" on="1"/>
        <pt x="963" y="1234" on="0"/>
        <pt x="963" y="1179" on="1"/>
        <pt x="963" y="1119" on="0"/>
        <pt x="917" y="1081" on="1"/>
        <pt x="934" y="1082" on="0"/>
        <pt x="963" y="1082" on="1"/>
        <pt x="993" y="1082" on="0"/>
        <pt x="1008" y="1081" on="1"/>
        <pt x="963" y="1119" on="0"/>
        <pt x="963" y="1179" on="1"/>
        <pt x="963" y="1235" on="0"/>
        <pt x="1006" y="1273" on="1"/>
        <pt x="1047" y="1310" on="0"/>
        <pt x="1103" y="1310" on="1"/>
        <pt x="1158" y="1310" on="0"/>
        <pt x="1198" y="1275" on="1"/>
        <pt x="1244" y="1238" on="0"/>
        <pt x="1244" y="1181" on="1"/>
        <pt x="1244" y="1139" on="0"/>
        <pt x="1221" y="1105" on="1"/>
        <pt x="1312" y="1087" on="0"/>
        <pt x="1363" y="1064" on="1"/>
        <pt x="1466" y="1018" on="0"/>
        <pt x="1514" y="962" on="1"/>
        <pt x="1481" y="958" on="1"/>
        <pt x="1426" y="1008" on="0"/>
        <pt x="1359" y="1035" on="1"/>
        <pt x="1254" y="1078" on="0"/>
        <pt x="1172" y="1087" on="1"/>
        <pt x="1212" y="1120" on="0"/>
        <pt x="1212" y="1173" on="1"/>
        <pt x="1212" y="1217" on="0"/>
        <pt x="1149" y="1282" on="0"/>
        <pt x="1103" y="1282" on="1"/>
        <pt x="1059" y="1282" on="0"/>
        <pt x="994" y="1217" on="0"/>
        <pt x="994" y="1173" on="1"/>
        <pt x="994" y="1131" on="0"/>
        <pt x="1032" y="1099" on="1"/>
        <pt x="1064" y="1072" on="0"/>
        <pt x="1103" y="1067" on="1"/>
        <pt x="1291" y="1038" on="0"/>
        <pt x="1452" y="872" on="1"/>
        <pt x="1642" y="676" on="0"/>
      </contour>
      <contour>
        <pt x="442" y="836" on="1"/>
        <pt x="400" y="800" on="0"/>
        <pt x="401" y="804" on="1"/>
        <pt x="416" y="841" on="0"/>
        <pt x="416" y="908" on="1"/>
        <pt x="416" y="1044" on="0"/>
        <pt x="354" y="1058" on="1"/>
        <pt x="349" y="971" on="0"/>
        <pt x="291" y="891" on="1"/>
        <pt x="237" y="845" on="0"/>
        <pt x="155" y="763" on="1"/>
        <pt x="146" y="743" on="0"/>
        <pt x="146" y="735" on="1"/>
        <pt x="116" y="753" on="1"/>
        <pt x="116" y="760" on="0"/>
        <pt x="122" y="768" on="1"/>
        <pt x="132" y="791" on="0"/>
        <pt x="187" y="840" on="1"/>
        <pt x="250" y="894" on="0"/>
        <pt x="263" y="912" on="1"/>
        <pt x="326" y="997" on="0"/>
        <pt x="331" y="1113" on="1"/>
        <pt x="449" y="1079" on="0"/>
        <pt x="449" y="907" on="1"/>
        <pt x="449" y="872" on="0"/>
      </contour>
      <contour>
        <pt x="1916" y="800" on="1"/>
        <pt x="1865" y="724" on="0"/>
        <pt x="1871" y="586" on="1"/>
        <pt x="1887" y="529" on="0"/>
        <pt x="1907" y="425" on="1"/>
        <pt x="1908" y="398" on="0"/>
        <pt x="1861" y="343" on="0"/>
        <pt x="1836" y="343" on="1"/>
        <pt x="1801" y="343" on="0"/>
        <pt x="1783" y="361" on="1"/>
        <pt x="1783" y="21" on="0"/>
        <pt x="1303" y="-459" on="0"/>
        <pt x="963" y="-459" on="1"/>
        <pt x="623" y="-459" on="0"/>
        <pt x="142" y="21" on="0"/>
        <pt x="142" y="361" on="1"/>
        <pt x="125" y="343" on="0"/>
        <pt x="90" y="343" on="1"/>
        <pt x="66" y="343" on="0"/>
        <pt x="17" y="398" on="0"/>
        <pt x="18" y="425" on="1"/>
        <pt x="35" y="480" on="0"/>
        <pt x="54" y="586" on="1"/>
        <pt x="60" y="724" on="0"/>
        <pt x="9" y="800" on="1"/>
        <pt x="158" y="790" on="0"/>
        <pt x="204" y="679" on="1"/>
        <pt x="201" y="588" on="1"/>
        <pt x="197" y="643" on="0"/>
        <pt x="164" y="692" on="1"/>
        <pt x="122" y="755" on="0"/>
        <pt x="57" y="759" on="1"/>
        <pt x="86" y="715" on="0"/>
        <pt x="86" y="586" on="1"/>
        <pt x="86" y="562" on="0"/>
        <pt x="54" y="455" on="0"/>
        <pt x="53" y="435" on="1"/>
        <pt x="50" y="378" on="0"/>
        <pt x="106" y="378" on="1"/>
        <pt x="134" y="378" on="0"/>
        <pt x="160" y="417" on="1"/>
        <pt x="176" y="439" on="1"/>
        <pt x="172" y="392" on="0"/>
        <pt x="172" y="361" on="1"/>
        <pt x="172" y="39" on="0"/>
        <pt x="639" y="-419" on="0"/>
        <pt x="963" y="-419" on="1"/>
        <pt x="1287" y="-419" on="0"/>
        <pt x="1755" y="39" on="0"/>
        <pt x="1755" y="361" on="1"/>
        <pt x="1755" y="392" on="0"/>
        <pt x="1751" y="439" on="1"/>
        <pt x="1767" y="417" on="1"/>
        <pt x="1792" y="378" on="0"/>
        <pt x="1819" y="378" on="1"/>
        <pt x="1877" y="378" on="0"/>
        <pt x="1873" y="435" on="1"/>
        <pt x="1873" y="455" on="0"/>
        <pt x="1839" y="562" on="0"/>
        <pt x="1839" y="586" on="1"/>
        <pt x="1839" y="714" on="0"/>
        <pt x="1869" y="759" on="1"/>
        <pt x="1805" y="755" on="0"/>
        <pt x="1762" y="692" on="1"/>
        <pt x="1729" y="642" on="0"/>
        <pt x="1724" y="588" on="1"/>
        <pt x="1723" y="679" on="1"/>
        <pt x="1768" y="790" on="0"/>
      </contour>
      <contour>
        <pt x="1608" y="403" on="1"/>
        <pt x="1608" y="668" on="0"/>
        <pt x="1429" y="851" on="1"/>
        <pt x="1288" y="993" on="0"/>
        <pt x="1106" y="1035" on="1"/>
        <pt x="1046" y="1049" on="0"/>
        <pt x="963" y="1049" on="1"/>
        <pt x="880" y="1049" on="0"/>
        <pt x="820" y="1035" on="1"/>
        <pt x="638" y="993" on="0"/>
        <pt x="498" y="850" on="1"/>
        <pt x="319" y="668" on="0"/>
        <pt x="319" y="403" on="1"/>
        <pt x="319" y="134" on="0"/>
        <pt x="694" y="-242" on="0"/>
        <pt x="963" y="-242" on="1"/>
        <pt x="1232" y="-242" on="0"/>
        <pt x="1608" y="134" on="0"/>
      </contour>
      <contour>
        <pt x="1052" y="225" on="1"/>
        <pt x="1052" y="185" on="0"/>
        <pt x="1029" y="144" on="1"/>
        <pt x="1000" y="144" on="0"/>
        <pt x="983" y="166" on="1"/>
        <pt x="972" y="203" on="0"/>
        <pt x="916" y="348" on="1"/>
        <pt x="868" y="472" on="0"/>
        <pt x="868" y="486" on="1"/>
        <pt x="868" y="503" on="0"/>
        <pt x="881" y="529" on="1"/>
        <pt x="897" y="563" on="0"/>
        <pt x="918" y="563" on="1"/>
        <pt x="943" y="563" on="0"/>
        <pt x="985" y="487" on="1"/>
        <pt x="1015" y="431" on="0"/>
        <pt x="1027" y="396" on="1"/>
        <pt x="1052" y="322" on="0"/>
      </contour>
    </TTGlyph>
    <TTGlyph name="uniFB56" xMin="292" yMin="-67" xMax="3887" yMax="1263">
      <contour>
        <pt x="3507" y="1145" on="1"/>
        <pt x="3507" y="1094" on="0"/>
        <pt x="3402" y="1051" on="1"/>
        <pt x="3317" y="1017" on="0"/>
        <pt x="3276" y="1017" on="1"/>
        <pt x="3247" y="1017" on="0"/>
        <pt x="3200" y="1040" on="1"/>
        <pt x="3204" y="1077" on="0"/>
        <pt x="3253" y="1092" on="1"/>
        <pt x="3311" y="1109" on="0"/>
        <pt x="3323" y="1126" on="1"/>
        <pt x="3312" y="1151" on="0"/>
        <pt x="3281" y="1151" on="1"/>
        <pt x="3278" y="1151" on="0"/>
        <pt x="3180" y="1131" on="1"/>
        <pt x="3180" y="1179" on="1"/>
        <pt x="3239" y="1234" on="1"/>
        <pt x="3275" y="1263" on="0"/>
        <pt x="3307" y="1263" on="1"/>
        <pt x="3322" y="1263" on="0"/>
        <pt x="3484" y="1198" on="1"/>
        <pt x="3507" y="1188" on="0"/>
      </contour>
      <contour>
        <pt x="3783" y="198" on="1"/>
        <pt x="3783" y="124" on="0"/>
        <pt x="3751" y="47" on="1"/>
        <pt x="3743" y="46" on="0"/>
        <pt x="3725" y="35" on="1"/>
        <pt x="3620" y="710" on="1"/>
        <pt x="3620" y="756" on="0"/>
        <pt x="3664" y="822" on="1"/>
        <pt x="3700" y="816" on="0"/>
        <pt x="3711" y="747" on="1"/>
        <pt x="3718" y="691" on="0"/>
        <pt x="3724" y="634" on="1"/>
        <pt x="3783" y="288" on="0"/>
      </contour>
      <contour>
        <pt x="2739" y="1022" on="1"/>
        <pt x="2739" y="1006" on="0"/>
        <pt x="2703" y="957" on="0"/>
        <pt x="2685" y="949" on="1"/>
        <pt x="1731" y="548" on="1"/>
        <pt x="1685" y="548" on="1"/>
        <pt x="1705" y="629" on="0"/>
        <pt x="1739" y="645" on="1"/>
        <pt x="2374" y="931" on="1"/>
        <pt x="2645" y="1049" on="0"/>
        <pt x="2673" y="1048" on="1"/>
        <pt x="2727" y="1048" on="1"/>
        <pt x="2739" y="1046" on="0"/>
      </contour>
      <contour>
        <pt x="3486" y="198" on="1"/>
        <pt x="3486" y="52" on="0"/>
        <pt x="3379" y="-5" on="1"/>
        <pt x="3301" y="-47" on="0"/>
        <pt x="3144" y="-47" on="1"/>
        <pt x="3034" y="-47" on="0"/>
        <pt x="3008" y="-4" on="1"/>
        <pt x="2993" y="22" on="0"/>
        <pt x="2993" y="47" on="1"/>
        <pt x="2993" y="58" on="0"/>
        <pt x="3003" y="97" on="0"/>
        <pt x="3003" y="105" on="1"/>
        <pt x="3003" y="126" on="0"/>
        <pt x="2978" y="147" on="1"/>
        <pt x="2820" y="93" on="0"/>
        <pt x="2519" y="16" on="1"/>
        <pt x="2184" y="-36" on="0"/>
        <pt x="1981" y="-36" on="1"/>
        <pt x="1658" y="-36" on="1"/>
        <pt x="1639" y="-36" on="0"/>
        <pt x="1502" y="-6" on="0"/>
        <pt x="1490" y="-6" on="1"/>
        <pt x="1477" y="-6" on="0"/>
        <pt x="1452" y="-23" on="1"/>
        <pt x="1424" y="-42" on="0"/>
        <pt x="1414" y="-44" on="1"/>
        <pt x="1400" y="-47" on="0"/>
        <pt x="1352" y="-47" on="1"/>
        <pt x="1287" y="-47" on="0"/>
        <pt x="1142" y="14" on="0"/>
        <pt x="1137" y="14" on="1"/>
        <pt x="1124" y="14" on="0"/>
        <pt x="965" y="-67" on="0"/>
        <pt x="952" y="-67" on="1"/>
        <pt x="827" y="-67" on="0"/>
        <pt x="736" y="127" on="1"/>
        <pt x="702" y="94" on="0"/>
        <pt x="627" y="38" on="1"/>
        <pt x="529" y="-16" on="0"/>
        <pt x="415" y="-16" on="1"/>
        <pt x="292" y="-16" on="0"/>
        <pt x="292" y="66" on="1"/>
        <pt x="292" y="90" on="0"/>
        <pt x="315" y="137" on="1"/>
        <pt x="383" y="127" on="0"/>
        <pt x="446" y="127" on="1"/>
        <pt x="538" y="127" on="0"/>
        <pt x="607" y="153" on="1"/>
        <pt x="702" y="190" on="0"/>
        <pt x="702" y="265" on="1"/>
        <pt x="702" y="278" on="0"/>
        <pt x="661" y="473" on="0"/>
        <pt x="661" y="485" on="1"/>
        <pt x="661" y="559" on="0"/>
        <pt x="697" y="587" on="1"/>
        <pt x="714" y="574" on="1"/>
        <pt x="736" y="504" on="0"/>
        <pt x="770" y="368" on="1"/>
        <pt x="815" y="75" on="0"/>
        <pt x="968" y="75" on="1"/>
        <pt x="1036" y="75" on="0"/>
        <pt x="1237" y="280" on="0"/>
        <pt x="1270" y="280" on="1"/>
        <pt x="1280" y="280" on="0"/>
        <pt x="1378" y="218" on="1"/>
        <pt x="1487" y="148" on="0"/>
        <pt x="1538" y="129" on="1"/>
        <pt x="1623" y="96" on="0"/>
        <pt x="1884" y="96" on="1"/>
        <pt x="1897" y="96" on="0"/>
        <pt x="2301" y="116" on="0"/>
        <pt x="2314" y="116" on="1"/>
        <pt x="2433" y="116" on="0"/>
        <pt x="2730" y="217" on="1"/>
        <pt x="2732" y="248" on="0"/>
        <pt x="2692" y="256" on="1"/>
        <pt x="2619" y="259" on="0"/>
        <pt x="2474" y="272" on="1"/>
        <pt x="2474" y="275" on="0"/>
        <pt x="2463" y="286" on="0"/>
        <pt x="2463" y="301" on="1"/>
        <pt x="2463" y="345" on="0"/>
        <pt x="2547" y="398" on="1"/>
        <pt x="2619" y="444" on="0"/>
        <pt x="2641" y="444" on="1"/>
        <pt x="2642" y="444" on="0"/>
        <pt x="2978" y="301" on="0"/>
        <pt x="3149" y="301" on="1"/>
        <pt x="3258" y="301" on="0"/>
        <pt x="3281" y="268" on="1"/>
        <pt x="3279" y="190" on="0"/>
        <pt x="3203" y="170" on="1"/>
        <pt x="3087" y="140" on="1"/>
        <pt x="3097" y="96" on="0"/>
        <pt x="3194" y="96" on="1"/>
        <pt x="3403" y="96" on="0"/>
        <pt x="3404" y="178" on="1"/>
        <pt x="3281" y="802" on="1"/>
        <pt x="3281" y="897" on="0"/>
        <pt x="3336" y="945" on="1"/>
        <pt x="3344" y="945" on="0"/>
        <pt x="3368" y="931" on="1"/>
        <pt x="3392" y="868" on="1"/>
        <pt x="3413" y="817" on="0"/>
        <pt x="3450" y="812" on="1"/>
        <pt x="3466" y="769" on="0"/>
        <pt x="3466" y="772" on="1"/>
        <pt x="3466" y="761" on="0"/>
        <pt x="3415" y="648" on="0"/>
        <pt x="3415" y="633" on="1"/>
        <pt x="3415" y="621" on="0"/>
        <pt x="3486" y="211" on="0"/>
      </contour>
      <contour>
        <pt x="1377" y="948" on="1"/>
        <pt x="1339" y="911" on="0"/>
        <pt x="1262" y="881" on="1"/>
        <pt x="1148" y="844" on="1"/>
        <pt x="1098" y="844" on="0"/>
        <pt x="1047" y="855" on="0"/>
        <pt x="1051" y="855" on="1"/>
        <pt x="1056" y="881" on="0"/>
        <pt x="1103" y="907" on="1"/>
        <pt x="1167" y="942" on="0"/>
        <pt x="1182" y="956" on="1"/>
        <pt x="1172" y="969" on="0"/>
        <pt x="1154" y="969" on="1"/>
        <pt x="1140" y="969" on="0"/>
        <pt x="1078" y="947" on="0"/>
        <pt x="1063" y="946" on="1"/>
        <pt x="1040" y="971" on="1"/>
        <pt x="1051" y="1016" on="0"/>
        <pt x="1104" y="1049" on="1"/>
        <pt x="1151" y="1079" on="0"/>
        <pt x="1193" y="1079" on="1"/>
        <pt x="1264" y="1079" on="0"/>
        <pt x="1377" y="1006" on="1"/>
      </contour>
      <contour>
        <pt x="1332" y="102" on="1"/>
        <pt x="1298" y="138" on="0"/>
        <pt x="1286" y="163" on="1"/>
        <pt x="1260" y="171" on="0"/>
        <pt x="1237" y="145" on="1"/>
        <pt x="1261" y="122" on="0"/>
      </contour>
      <contour>
        <pt x="833" y="893" on="1"/>
        <pt x="833" y="841" on="0"/>
        <pt x="798" y="841" on="1"/>
        <pt x="788" y="841" on="0"/>
        <pt x="734" y="882" on="0"/>
        <pt x="721" y="882" on="1"/>
        <pt x="720" y="882" on="0"/>
        <pt x="479" y="739" on="0"/>
        <pt x="394" y="739" on="1"/>
        <pt x="367" y="739" on="0"/>
        <pt x="353" y="752" on="1"/>
        <pt x="353" y="782" on="0"/>
        <pt x="376" y="796" on="1"/>
        <pt x="649" y="887" on="0"/>
        <pt x="649" y="949" on="1"/>
        <pt x="649" y="958" on="0"/>
        <pt x="598" y="1033" on="0"/>
        <pt x="598" y="1051" on="1"/>
        <pt x="598" y="1098" on="0"/>
        <pt x="706" y="1189" on="0"/>
        <pt x="757" y="1189" on="1"/>
        <pt x="809" y="1189" on="0"/>
        <pt x="809" y="1121" on="1"/>
        <pt x="809" y="1087" on="0"/>
        <pt x="783" y="983" on="0"/>
        <pt x="783" y="985" on="1"/>
        <pt x="783" y="976" on="0"/>
        <pt x="833" y="911" on="0"/>
      </contour>
      <contour>
        <pt x="726" y="1036" on="1"/>
        <pt x="734" y="1044" on="0"/>
        <pt x="734" y="1062" on="1"/>
        <pt x="734" y="1080" on="0"/>
        <pt x="726" y="1087" on="1"/>
        <pt x="716" y="1077" on="0"/>
        <pt x="702" y="1074" on="1"/>
        <pt x="702" y="1061" on="0"/>
      </contour>
      <contour>
        <pt x="3887" y="1149" on="1"/>
        <pt x="3887" y="1079" on="0"/>
        <pt x="3813" y="1030" on="1"/>
        <pt x="3751" y="990" on="0"/>
        <pt x="3697" y="990" on="1"/>
        <pt x="3686" y="990" on="0"/>
        <pt x="3585" y="1021" on="0"/>
        <pt x="3575" y="1021" on="1"/>
        <pt x="3563" y="1021" on="0"/>
        <pt x="3509" y="1002" on="0"/>
        <pt x="3499" y="1002" on="1"/>
        <pt x="3505" y="1026" on="0"/>
        <pt x="3563" y="1093" on="0"/>
        <pt x="3586" y="1099" on="1"/>
        <pt x="3612" y="1097" on="0"/>
        <pt x="3665" y="1104" on="1"/>
        <pt x="3689" y="1128" on="0"/>
        <pt x="3735" y="1169" on="1"/>
        <pt x="3792" y="1215" on="0"/>
        <pt x="3825" y="1215" on="1"/>
        <pt x="3887" y="1215" on="0"/>
      </contour>
      <contour>
        <pt x="3741" y="1103" on="1"/>
        <pt x="3784" y="1084" on="0"/>
        <pt x="3820" y="1105" on="1"/>
        <pt x="3801" y="1156" on="0"/>
      </contour>
    </TTGlyph>
    <TTGlyph name="uniFB57" xMin="235" yMin="-364" xMax="1484" yMax="1274">
      <contour>
        <pt x="993" y="1234" on="1"/>
        <pt x="935" y="1185" on="0"/>
        <pt x="831" y="1144" on="1"/>
        <pt x="659" y="1079" on="1"/>
        <pt x="657" y="1081" on="0"/>
        <pt x="639" y="1094" on="1"/>
        <pt x="624" y="1105" on="0"/>
        <pt x="624" y="1120" on="1"/>
        <pt x="624" y="1147" on="0"/>
        <pt x="770" y="1212" on="1"/>
        <pt x="907" y="1274" on="0"/>
        <pt x="927" y="1273" on="1"/>
        <pt x="980" y="1273" on="1"/>
        <pt x="993" y="1261" on="1"/>
      </contour>
      <contour>
        <pt x="1013" y="931" on="1"/>
        <pt x="1013" y="801" on="0"/>
        <pt x="846" y="758" on="1"/>
        <pt x="838" y="756" on="0"/>
        <pt x="810" y="742" on="1"/>
        <pt x="787" y="731" on="0"/>
        <pt x="772" y="731" on="1"/>
        <pt x="717" y="731" on="0"/>
        <pt x="717" y="808" on="1"/>
        <pt x="717" y="868" on="0"/>
        <pt x="763" y="905" on="1"/>
        <pt x="774" y="894" on="0"/>
        <pt x="795" y="843" on="0"/>
        <pt x="805" y="833" on="1"/>
        <pt x="835" y="835" on="0"/>
        <pt x="846" y="882" on="1"/>
        <pt x="854" y="919" on="0"/>
        <pt x="863" y="955" on="1"/>
        <pt x="871" y="955" on="0"/>
        <pt x="889" y="951" on="1"/>
        <pt x="896" y="939" on="0"/>
        <pt x="919" y="884" on="1"/>
        <pt x="949" y="885" on="0"/>
        <pt x="953" y="915" on="1"/>
        <pt x="958" y="964" on="0"/>
        <pt x="965" y="976" on="1"/>
        <pt x="1002" y="976" on="1"/>
        <pt x="1002" y="972" on="0"/>
        <pt x="1013" y="945" on="0"/>
      </contour>
      <contour>
        <pt x="1484" y="-143" on="1"/>
        <pt x="1463" y="-191" on="0"/>
        <pt x="1430" y="-208" on="1"/>
        <pt x="1257" y="-293" on="0"/>
        <pt x="1222" y="-292" on="1"/>
        <pt x="1160" y="-292" on="1"/>
        <pt x="1147" y="-280" on="1"/>
        <pt x="1147" y="-243" on="1"/>
        <pt x="1178" y="-220" on="0"/>
        <pt x="1271" y="-175" on="1"/>
        <pt x="1389" y="-118" on="0"/>
        <pt x="1438" y="-118" on="1"/>
        <pt x="1460" y="-118" on="0"/>
      </contour>
      <contour>
        <pt x="1249" y="193" on="1"/>
        <pt x="1249" y="156" on="0"/>
        <pt x="1203" y="27" on="1"/>
        <pt x="1178" y="-6" on="0"/>
        <pt x="1126" y="-6" on="1"/>
        <pt x="1093" y="-6" on="0"/>
        <pt x="1032" y="19" on="1"/>
        <pt x="958" y="49" on="0"/>
        <pt x="944" y="87" on="1"/>
        <pt x="939" y="87" on="0"/>
        <pt x="930" y="83" on="1"/>
        <pt x="848" y="-47" on="0"/>
        <pt x="737" y="-47" on="1"/>
        <pt x="672" y="-48" on="0"/>
        <pt x="625" y="24" on="1"/>
        <pt x="578" y="96" on="1"/>
        <pt x="567" y="96" on="0"/>
        <pt x="532" y="71" on="1"/>
        <pt x="492" y="43" on="0"/>
        <pt x="477" y="38" on="1"/>
        <pt x="442" y="25" on="0"/>
        <pt x="394" y="25" on="1"/>
        <pt x="366" y="25" on="0"/>
        <pt x="321" y="39" on="1"/>
        <pt x="266" y="58" on="0"/>
        <pt x="266" y="81" on="1"/>
        <pt x="266" y="174" on="0"/>
        <pt x="393" y="263" on="1"/>
        <pt x="555" y="354" on="1"/>
        <pt x="557" y="355" on="0"/>
        <pt x="626" y="434" on="1"/>
        <pt x="634" y="403" on="0"/>
        <pt x="645" y="293" on="1"/>
        <pt x="654" y="195" on="0"/>
        <pt x="677" y="134" on="1"/>
        <pt x="696" y="86" on="0"/>
        <pt x="763" y="86" on="1"/>
        <pt x="817" y="86" on="0"/>
        <pt x="855" y="124" on="1"/>
        <pt x="890" y="160" on="0"/>
        <pt x="890" y="203" on="1"/>
        <pt x="890" y="216" on="0"/>
        <pt x="849" y="462" on="0"/>
        <pt x="849" y="475" on="1"/>
        <pt x="849" y="496" on="0"/>
        <pt x="872" y="566" on="1"/>
        <pt x="909" y="566" on="1"/>
        <pt x="928" y="455" on="0"/>
        <pt x="975" y="267" on="1"/>
        <pt x="987" y="230" on="0"/>
        <pt x="1030" y="185" on="1"/>
        <pt x="1078" y="137" on="0"/>
        <pt x="1112" y="137" on="1"/>
        <pt x="1139" y="137" on="1"/>
        <pt x="1157" y="154" on="1"/>
        <pt x="1122" y="230" on="0"/>
        <pt x="1081" y="365" on="1"/>
        <pt x="1044" y="487" on="0"/>
        <pt x="1044" y="510" on="1"/>
        <pt x="1044" y="546" on="0"/>
        <pt x="1089" y="587" on="1"/>
        <pt x="1101" y="587" on="0"/>
        <pt x="1121" y="554" on="1"/>
        <pt x="1137" y="504" on="0"/>
        <pt x="1197" y="343" on="1"/>
        <pt x="1249" y="203" on="0"/>
      </contour>
      <contour>
        <pt x="613" y="-220" on="1"/>
        <pt x="593" y="-237" on="0"/>
        <pt x="455" y="-299" on="1"/>
        <pt x="314" y="-364" on="0"/>
        <pt x="290" y="-364" on="1"/>
        <pt x="259" y="-364" on="1"/>
        <pt x="235" y="-339" on="1"/>
        <pt x="255" y="-291" on="0"/>
        <pt x="397" y="-231" on="1"/>
        <pt x="519" y="-179" on="0"/>
        <pt x="539" y="-180" on="1"/>
        <pt x="600" y="-180" on="1"/>
        <pt x="613" y="-193" on="1"/>
      </contour>
      <contour>
        <pt x="573" y="226" on="1"/>
        <pt x="564" y="229" on="0"/>
        <pt x="554" y="229" on="1"/>
        <pt x="528" y="229" on="0"/>
        <pt x="490" y="209" on="1"/>
        <pt x="441" y="184" on="0"/>
        <pt x="440" y="183" on="1"/>
        <pt x="518" y="168" on="1"/>
        <pt x="552" y="185" on="0"/>
      </contour>
    </TTGlyph>
    <TTGlyph name="uniFB58" xMin="161" yMin="-605" xMax="2720" yMax="1194">
      <contour>
        <pt x="2699" y="1137" on="1"/>
        <pt x="2551" y="1034" on="0"/>
        <pt x="2297" y="879" on="1"/>
        <pt x="2261" y="879" on="1"/>
        <pt x="2261" y="927" on="1"/>
        <pt x="2348" y="1006" on="0"/>
        <pt x="2663" y="1194" on="1"/>
        <pt x="2699" y="1194" on="1"/>
      </contour>
      <contour>
        <pt x="2720" y="223" on="1"/>
        <pt x="2720" y="93" on="0"/>
        <pt x="2626" y="-13" on="1"/>
        <pt x="2526" y="-125" on="0"/>
        <pt x="2388" y="-125" on="1"/>
        <pt x="2322" y="-125" on="0"/>
        <pt x="2224" y="-101" on="1"/>
        <pt x="2110" y="-74" on="0"/>
        <pt x="2076" y="-40" on="1"/>
        <pt x="2076" y="7" on="1"/>
        <pt x="2130" y="2" on="0"/>
        <pt x="2204" y="-11" on="1"/>
        <pt x="2265" y="-22" on="0"/>
        <pt x="2285" y="-22" on="1"/>
        <pt x="2374" y="-22" on="0"/>
        <pt x="2468" y="16" on="1"/>
        <pt x="2597" y="70" on="0"/>
        <pt x="2597" y="166" on="1"/>
        <pt x="2597" y="179" on="0"/>
        <pt x="2537" y="324" on="0"/>
        <pt x="2537" y="336" on="1"/>
        <pt x="2537" y="362" on="0"/>
        <pt x="2568" y="407" on="0"/>
        <pt x="2587" y="407" on="1"/>
        <pt x="2637" y="407" on="0"/>
        <pt x="2682" y="335" on="1"/>
        <pt x="2720" y="270" on="0"/>
      </contour>
      <contour>
        <pt x="1379" y="919" on="1"/>
        <pt x="1379" y="875" on="0"/>
        <pt x="1355" y="832" on="1"/>
        <pt x="1346" y="818" on="0"/>
        <pt x="1199" y="755" on="0"/>
        <pt x="1174" y="755" on="1"/>
        <pt x="1103" y="755" on="0"/>
        <pt x="1103" y="827" on="1"/>
        <pt x="1103" y="868" on="0"/>
        <pt x="1137" y="918" on="1"/>
        <pt x="1149" y="918" on="0"/>
        <pt x="1163" y="902" on="1"/>
        <pt x="1191" y="868" on="1"/>
        <pt x="1199" y="873" on="0"/>
        <pt x="1260" y="960" on="1"/>
        <pt x="1267" y="957" on="0"/>
        <pt x="1303" y="899" on="1"/>
        <pt x="1353" y="981" on="1"/>
        <pt x="1379" y="954" on="0"/>
      </contour>
      <contour>
        <pt x="2260" y="269" on="1"/>
        <pt x="2260" y="234" on="0"/>
        <pt x="2241" y="182" on="1"/>
        <pt x="2220" y="122" on="0"/>
        <pt x="2195" y="113" on="1"/>
        <pt x="2149" y="88" on="0"/>
        <pt x="2051" y="52" on="1"/>
        <pt x="1606" y="-43" on="0"/>
        <pt x="1502" y="-43" on="1"/>
        <pt x="760" y="-53" on="1"/>
        <pt x="747" y="-53" on="0"/>
        <pt x="722" y="-45" on="1"/>
        <pt x="694" y="-37" on="0"/>
        <pt x="688" y="-36" on="1"/>
        <pt x="284" y="9" on="0"/>
        <pt x="161" y="197" on="1"/>
        <pt x="192" y="233" on="0"/>
        <pt x="207" y="233" on="1"/>
        <pt x="217" y="233" on="0"/>
        <pt x="310" y="193" on="1"/>
        <pt x="416" y="147" on="0"/>
        <pt x="515" y="120" on="0"/>
        <pt x="648" y="106" on="1"/>
        <pt x="927" y="79" on="0"/>
        <pt x="1078" y="79" on="1"/>
        <pt x="1314" y="79" on="0"/>
        <pt x="1615" y="116" on="1"/>
        <pt x="1922" y="152" on="0"/>
        <pt x="2109" y="205" on="1"/>
        <pt x="2148" y="239" on="1"/>
        <pt x="2148" y="269" on="1"/>
        <pt x="2075" y="331" on="0"/>
        <pt x="2075" y="371" on="1"/>
        <pt x="2075" y="448" on="0"/>
        <pt x="2142" y="448" on="1"/>
        <pt x="2198" y="448" on="0"/>
        <pt x="2233" y="373" on="1"/>
        <pt x="2260" y="315" on="0"/>
      </contour>
      <contour>
        <pt x="1482" y="-273" on="1"/>
        <pt x="1482" y="-297" on="0"/>
        <pt x="1432" y="-350" on="0"/>
        <pt x="1415" y="-350" on="1"/>
        <pt x="1397" y="-350" on="0"/>
        <pt x="1338" y="-297" on="0"/>
        <pt x="1338" y="-278" on="1"/>
        <pt x="1338" y="-253" on="0"/>
        <pt x="1381" y="-207" on="0"/>
        <pt x="1405" y="-207" on="1"/>
        <pt x="1434" y="-207" on="0"/>
        <pt x="1482" y="-252" on="0"/>
      </contour>
      <contour>
        <pt x="1624" y="-400" on="1"/>
        <pt x="1612" y="-407" on="0"/>
        <pt x="1211" y="-605" on="1"/>
        <pt x="1165" y="-605" on="1"/>
        <pt x="1165" y="-601" on="0"/>
        <pt x="1154" y="-589" on="0"/>
        <pt x="1154" y="-575" on="1"/>
        <pt x="1154" y="-542" on="0"/>
        <pt x="1336" y="-456" on="1"/>
        <pt x="1568" y="-351" on="1"/>
        <pt x="1613" y="-351" on="1"/>
        <pt x="1613" y="-356" on="0"/>
        <pt x="1624" y="-394" on="0"/>
      </contour>
    </TTGlyph>
    <TTGlyph name="uniFB59" xMin="409" yMin="-413" xMax="6211" yMax="1275">
      <contour>
        <pt x="5784" y="1187" on="1"/>
        <pt x="5784" y="1161" on="0"/>
        <pt x="5689" y="1105" on="1"/>
        <pt x="5586" y="1050" on="1"/>
        <pt x="5540" y="1062" on="1"/>
        <pt x="5540" y="1111" on="1"/>
        <pt x="5584" y="1130" on="0"/>
        <pt x="5610" y="1162" on="1"/>
        <pt x="5592" y="1171" on="0"/>
        <pt x="5578" y="1171" on="1"/>
        <pt x="5567" y="1171" on="0"/>
        <pt x="5540" y="1153" on="0"/>
        <pt x="5532" y="1153" on="1"/>
        <pt x="5490" y="1153" on="1"/>
        <pt x="5486" y="1162" on="0"/>
        <pt x="5477" y="1178" on="1"/>
        <pt x="5490" y="1192" on="0"/>
        <pt x="5501" y="1219" on="1"/>
        <pt x="5591" y="1275" on="0"/>
        <pt x="5620" y="1275" on="1"/>
        <pt x="5649" y="1275" on="0"/>
        <pt x="5784" y="1222" on="1"/>
      </contour>
      <contour>
        <pt x="6163" y="155" on="1"/>
        <pt x="6163" y="124" on="0"/>
        <pt x="6141" y="59" on="1"/>
        <pt x="6134" y="58" on="0"/>
        <pt x="6116" y="47" on="1"/>
        <pt x="6087" y="111" on="0"/>
        <pt x="6068" y="225" on="1"/>
        <pt x="6045" y="369" on="0"/>
        <pt x="6036" y="399" on="1"/>
        <pt x="5948" y="720" on="0"/>
        <pt x="5948" y="723" on="1"/>
        <pt x="5948" y="770" on="0"/>
        <pt x="5982" y="804" on="1"/>
        <pt x="6012" y="804" on="0"/>
        <pt x="6025" y="781" on="1"/>
        <pt x="6057" y="689" on="0"/>
        <pt x="6108" y="514" on="1"/>
        <pt x="6163" y="288" on="0"/>
      </contour>
      <contour>
        <pt x="5364" y="973" on="1"/>
        <pt x="5364" y="926" on="0"/>
        <pt x="5331" y="910" on="1"/>
        <pt x="5189" y="843" on="0"/>
        <pt x="4951" y="750" on="1"/>
        <pt x="4724" y="661" on="0"/>
        <pt x="4702" y="662" on="1"/>
        <pt x="4618" y="662" on="1"/>
        <pt x="4618" y="666" on="0"/>
        <pt x="4607" y="682" on="0"/>
        <pt x="4607" y="697" on="1"/>
        <pt x="4607" y="729" on="0"/>
        <pt x="4651" y="749" on="1"/>
        <pt x="4795" y="815" on="0"/>
        <pt x="5036" y="908" on="1"/>
        <pt x="5268" y="999" on="0"/>
        <pt x="5289" y="999" on="1"/>
        <pt x="5352" y="999" on="1"/>
        <pt x="5364" y="997" on="0"/>
      </contour>
      <contour>
        <pt x="4525" y="395" on="1"/>
        <pt x="4525" y="309" on="0"/>
        <pt x="4483" y="272" on="1"/>
        <pt x="4462" y="338" on="0"/>
        <pt x="4443" y="404" on="1"/>
        <pt x="4417" y="489" on="0"/>
        <pt x="4371" y="532" on="1"/>
        <pt x="4383" y="599" on="1"/>
        <pt x="4430" y="599" on="1"/>
        <pt x="4525" y="475" on="0"/>
      </contour>
      <contour>
        <pt x="3879" y="1194" on="1"/>
        <pt x="3759" y="1127" on="0"/>
        <pt x="3525" y="1009" on="1"/>
        <pt x="3520" y="1014" on="0"/>
        <pt x="3496" y="1029" on="0"/>
        <pt x="3491" y="1034" on="1"/>
        <pt x="3518" y="1091" on="0"/>
        <pt x="3624" y="1141" on="1"/>
        <pt x="3802" y="1226" on="0"/>
        <pt x="3832" y="1244" on="1"/>
        <pt x="3879" y="1234" on="1"/>
      </contour>
      <contour>
        <pt x="5845" y="206" on="1"/>
        <pt x="5845" y="120" on="0"/>
        <pt x="5790" y="54" on="1"/>
        <pt x="5732" y="-14" on="0"/>
        <pt x="5651" y="-14" on="1"/>
        <pt x="5577" y="-14" on="0"/>
        <pt x="5522" y="-1" on="1"/>
        <pt x="5502" y="3" on="0"/>
        <pt x="5452" y="26" on="1"/>
        <pt x="5409" y="47" on="0"/>
        <pt x="5395" y="47" on="1"/>
        <pt x="5384" y="47" on="0"/>
        <pt x="5316" y="27" on="1"/>
        <pt x="5239" y="4" on="0"/>
        <pt x="5206" y="-1" on="1"/>
        <pt x="4892" y="-55" on="0"/>
        <pt x="4755" y="-55" on="1"/>
        <pt x="4744" y="-55" on="0"/>
        <pt x="4430" y="-76" on="0"/>
        <pt x="4417" y="-76" on="1"/>
        <pt x="4359" y="-76" on="0"/>
        <pt x="4155" y="-41" on="1"/>
        <pt x="3963" y="-9" on="0"/>
        <pt x="3945" y="-1" on="1"/>
        <pt x="3920" y="9" on="0"/>
        <pt x="3859" y="61" on="1"/>
        <pt x="3803" y="108" on="0"/>
        <pt x="3793" y="108" on="1"/>
        <pt x="3782" y="108" on="0"/>
        <pt x="3752" y="82" on="1"/>
        <pt x="3721" y="53" on="0"/>
        <pt x="3701" y="50" on="1"/>
        <pt x="3492" y="6" on="0"/>
        <pt x="3357" y="6" on="1"/>
        <pt x="3261" y="6" on="0"/>
        <pt x="3207" y="29" on="1"/>
        <pt x="3201" y="32" on="0"/>
        <pt x="3176" y="52" on="1"/>
        <pt x="3157" y="67" on="0"/>
        <pt x="3143" y="67" on="1"/>
        <pt x="3130" y="67" on="0"/>
        <pt x="3092" y="37" on="1"/>
        <pt x="3050" y="3" on="0"/>
        <pt x="3037" y="-1" on="1"/>
        <pt x="3003" y="-14" on="0"/>
        <pt x="2953" y="-14" on="1"/>
        <pt x="2832" y="-14" on="0"/>
        <pt x="2758" y="113" on="1"/>
        <pt x="2722" y="175" on="0"/>
        <pt x="2664" y="365" on="1"/>
        <pt x="2634" y="357" on="0"/>
        <pt x="2578" y="301" on="1"/>
        <pt x="2556" y="279" on="0"/>
        <pt x="2536" y="232" on="1"/>
        <pt x="2504" y="152" on="1"/>
        <pt x="2454" y="49" on="0"/>
        <pt x="2372" y="9" on="1"/>
        <pt x="2249" y="-50" on="0"/>
        <pt x="2014" y="-107" on="1"/>
        <pt x="1757" y="-167" on="0"/>
        <pt x="1580" y="-167" on="1"/>
        <pt x="1424" y="-167" on="1"/>
        <pt x="1171" y="-167" on="0"/>
        <pt x="912" y="-83" on="1"/>
        <pt x="605" y="18" on="0"/>
        <pt x="434" y="202" on="1"/>
        <pt x="409" y="228" on="0"/>
        <pt x="409" y="269" on="1"/>
        <pt x="411" y="270" on="0"/>
        <pt x="411" y="272" on="1"/>
        <pt x="421" y="283" on="0"/>
        <pt x="439" y="283" on="1"/>
        <pt x="447" y="283" on="0"/>
        <pt x="611" y="198" on="1"/>
        <pt x="801" y="101" on="0"/>
        <pt x="907" y="59" on="1"/>
        <pt x="919" y="55" on="0"/>
        <pt x="1111" y="12" on="1"/>
        <pt x="1172" y="-3" on="0"/>
        <pt x="1295" y="-22" on="1"/>
        <pt x="1485" y="-35" on="0"/>
        <pt x="1530" y="-35" on="1"/>
        <pt x="1793" y="-35" on="0"/>
        <pt x="2051" y="30" on="1"/>
        <pt x="2319" y="98" on="0"/>
        <pt x="2457" y="206" on="1"/>
        <pt x="2458" y="242" on="0"/>
        <pt x="2405" y="344" on="0"/>
        <pt x="2405" y="369" on="1"/>
        <pt x="2405" y="400" on="0"/>
        <pt x="2438" y="446" on="0"/>
        <pt x="2457" y="446" on="1"/>
        <pt x="2469" y="446" on="0"/>
        <pt x="2505" y="426" on="0"/>
        <pt x="2518" y="426" on="1"/>
        <pt x="2531" y="426" on="0"/>
        <pt x="2664" y="528" on="0"/>
        <pt x="2677" y="528" on="1"/>
        <pt x="2719" y="528" on="0"/>
        <pt x="2753" y="424" on="1"/>
        <pt x="2804" y="266" on="0"/>
        <pt x="2822" y="233" on="1"/>
        <pt x="2879" y="129" on="0"/>
        <pt x="2979" y="129" on="1"/>
        <pt x="3044" y="129" on="0"/>
        <pt x="3228" y="324" on="0"/>
        <pt x="3281" y="324" on="1"/>
        <pt x="3322" y="324" on="0"/>
        <pt x="3475" y="180" on="0"/>
        <pt x="3603" y="180" on="1"/>
        <pt x="3757" y="180" on="0"/>
        <pt x="3757" y="283" on="1"/>
        <pt x="3757" y="295" on="0"/>
        <pt x="3665" y="686" on="0"/>
        <pt x="3665" y="698" on="1"/>
        <pt x="3665" y="801" on="1"/>
        <pt x="3689" y="825" on="0"/>
        <pt x="3712" y="825" on="1"/>
        <pt x="3742" y="809" on="0"/>
        <pt x="3755" y="762" on="1"/>
        <pt x="3773" y="678" on="1"/>
        <pt x="3819" y="397" on="1"/>
        <pt x="3849" y="220" on="0"/>
        <pt x="3928" y="171" on="1"/>
        <pt x="3986" y="137" on="0"/>
        <pt x="4119" y="107" on="1"/>
        <pt x="4250" y="78" on="0"/>
        <pt x="4345" y="78" on="1"/>
        <pt x="4356" y="78" on="0"/>
        <pt x="4568" y="66" on="0"/>
        <pt x="4581" y="67" on="1"/>
        <pt x="4754" y="67" on="0"/>
        <pt x="4959" y="93" on="1"/>
        <pt x="5205" y="125" on="0"/>
        <pt x="5303" y="176" on="1"/>
        <pt x="5299" y="184" on="0"/>
        <pt x="5272" y="215" on="1"/>
        <pt x="5252" y="237" on="0"/>
        <pt x="5252" y="251" on="1"/>
        <pt x="5252" y="374" on="0"/>
        <pt x="5410" y="374" on="1"/>
        <pt x="5473" y="374" on="0"/>
        <pt x="5527" y="351" on="1"/>
        <pt x="5599" y="320" on="0"/>
        <pt x="5599" y="261" on="1"/>
        <pt x="5599" y="222" on="0"/>
        <pt x="5569" y="174" on="1"/>
        <pt x="5569" y="146" on="1"/>
        <pt x="5587" y="129" on="0"/>
        <pt x="5635" y="129" on="1"/>
        <pt x="5708" y="129" on="0"/>
        <pt x="5744" y="165" on="1"/>
        <pt x="5748" y="229" on="0"/>
        <pt x="5708" y="388" on="1"/>
        <pt x="5694" y="451" on="0"/>
        <pt x="5642" y="629" on="1"/>
        <pt x="5599" y="776" on="0"/>
        <pt x="5599" y="789" on="1"/>
        <pt x="5599" y="803" on="0"/>
        <pt x="5621" y="854" on="1"/>
        <pt x="5643" y="908" on="0"/>
        <pt x="5655" y="917" on="1"/>
        <pt x="5677" y="912" on="0"/>
        <pt x="5689" y="873" on="1"/>
        <pt x="5703" y="822" on="1"/>
        <pt x="5735" y="799" on="0"/>
        <pt x="5790" y="751" on="1"/>
        <pt x="5792" y="747" on="0"/>
        <pt x="5792" y="740" on="1"/>
        <pt x="5792" y="726" on="0"/>
        <pt x="5767" y="655" on="0"/>
        <pt x="5767" y="646" on="1"/>
        <pt x="5765" y="633" on="0"/>
        <pt x="5765" y="618" on="1"/>
        <pt x="5765" y="534" on="0"/>
        <pt x="5845" y="211" on="0"/>
      </contour>
      <contour>
        <pt x="3531" y="-187" on="1"/>
        <pt x="3481" y="-213" on="0"/>
        <pt x="3288" y="-326" on="1"/>
        <pt x="3140" y="-413" on="0"/>
        <pt x="3126" y="-413" on="1"/>
        <pt x="3073" y="-413" on="1"/>
        <pt x="3061" y="-412" on="0"/>
        <pt x="3061" y="-388" on="1"/>
        <pt x="3061" y="-347" on="0"/>
        <pt x="3223" y="-264" on="1"/>
        <pt x="3474" y="-137" on="1"/>
        <pt x="3519" y="-137" on="1"/>
        <pt x="3531" y="-149" on="1"/>
      </contour>
      <contour>
        <pt x="2876" y="-178" on="1"/>
        <pt x="2876" y="-210" on="0"/>
        <pt x="2843" y="-232" on="1"/>
        <pt x="2817" y="-249" on="0"/>
        <pt x="2795" y="-249" on="1"/>
        <pt x="2754" y="-249" on="0"/>
        <pt x="2708" y="-219" on="1"/>
        <pt x="2652" y="-280" on="0"/>
        <pt x="2621" y="-280" on="1"/>
        <pt x="2588" y="-280" on="0"/>
        <pt x="2539" y="-231" on="0"/>
        <pt x="2539" y="-199" on="1"/>
        <pt x="2539" y="-170" on="0"/>
        <pt x="2562" y="-142" on="1"/>
        <pt x="2583" y="-117" on="0"/>
        <pt x="2600" y="-117" on="1"/>
        <pt x="2613" y="-117" on="0"/>
        <pt x="2674" y="-147" on="0"/>
        <pt x="2687" y="-147" on="1"/>
        <pt x="2699" y="-147" on="0"/>
        <pt x="2761" y="-96" on="0"/>
        <pt x="2774" y="-96" on="1"/>
        <pt x="2808" y="-96" on="0"/>
        <pt x="2844" y="-129" on="1"/>
        <pt x="2876" y="-159" on="0"/>
      </contour>
      <contour>
        <pt x="2016" y="1040" on="1"/>
        <pt x="2016" y="1000" on="0"/>
        <pt x="1930" y="964" on="0"/>
        <pt x="1489" y="802" on="1"/>
        <pt x="1114" y="664" on="0"/>
        <pt x="917" y="570" on="1"/>
        <pt x="882" y="570" on="1"/>
        <pt x="880" y="576" on="0"/>
        <pt x="880" y="582" on="1"/>
        <pt x="880" y="659" on="0"/>
        <pt x="1098" y="749" on="1"/>
        <pt x="1304" y="834" on="0"/>
        <pt x="1932" y="1071" on="0"/>
        <pt x="1951" y="1071" on="1"/>
        <pt x="2003" y="1071" on="1"/>
        <pt x="2016" y="1057" on="0"/>
      </contour>
      <contour>
        <pt x="3345" y="148" on="1"/>
        <pt x="3314" y="205" on="0"/>
        <pt x="3283" y="213" on="1"/>
        <pt x="3252" y="215" on="0"/>
        <pt x="3225" y="184" on="1"/>
        <pt x="3269" y="152" on="0"/>
      </contour>
      <contour>
        <pt x="6211" y="1149" on="1"/>
        <pt x="6211" y="1079" on="0"/>
        <pt x="6137" y="1030" on="1"/>
        <pt x="6075" y="990" on="0"/>
        <pt x="6021" y="990" on="1"/>
        <pt x="6010" y="990" on="0"/>
        <pt x="5909" y="1021" on="0"/>
        <pt x="5898" y="1021" on="1"/>
        <pt x="5887" y="1021" on="0"/>
        <pt x="5833" y="1002" on="0"/>
        <pt x="5823" y="1002" on="1"/>
        <pt x="5829" y="1026" on="0"/>
        <pt x="5887" y="1093" on="0"/>
        <pt x="5910" y="1099" on="1"/>
        <pt x="5936" y="1097" on="0"/>
        <pt x="5989" y="1104" on="1"/>
        <pt x="6013" y="1128" on="0"/>
        <pt x="6059" y="1169" on="1"/>
        <pt x="6116" y="1215" on="0"/>
        <pt x="6149" y="1215" on="1"/>
        <pt x="6211" y="1215" on="0"/>
      </contour>
      <contour>
        <pt x="6065" y="1103" on="1"/>
        <pt x="6108" y="1084" on="0"/>
        <pt x="6144" y="1105" on="1"/>
        <pt x="6125" y="1156" on="0"/>
      </contour>
      <contour>
        <pt x="1668" y="354" on="1"/>
        <pt x="1668" y="330" on="0"/>
        <pt x="1621" y="283" on="0"/>
        <pt x="1602" y="283" on="1"/>
        <pt x="1579" y="283" on="0"/>
        <pt x="1525" y="335" on="0"/>
        <pt x="1525" y="359" on="1"/>
        <pt x="1525" y="377" on="0"/>
        <pt x="1542" y="403" on="1"/>
        <pt x="1563" y="436" on="0"/>
        <pt x="1591" y="436" on="1"/>
        <pt x="1617" y="436" on="0"/>
        <pt x="1644" y="401" on="1"/>
        <pt x="1668" y="371" on="0"/>
      </contour>
    </TTGlyph>
    <TTGlyph name="uniFB5A" xMin="9" yMin="-459" xMax="1916" yMax="1310">
      <contour>
        <pt x="1810" y="753" on="1"/>
        <pt x="1779" y="735" on="1"/>
        <pt x="1779" y="743" on="0"/>
        <pt x="1769" y="763" on="1"/>
        <pt x="1715" y="809" on="0"/>
        <pt x="1636" y="891" on="1"/>
        <pt x="1578" y="972" on="0"/>
        <pt x="1572" y="1058" on="1"/>
        <pt x="1509" y="1044" on="0"/>
        <pt x="1509" y="907" on="1"/>
        <pt x="1509" y="841" on="0"/>
        <pt x="1524" y="804" on="1"/>
        <pt x="1485" y="836" on="1"/>
        <pt x="1478" y="872" on="0"/>
        <pt x="1478" y="908" on="1"/>
        <pt x="1478" y="1079" on="0"/>
        <pt x="1596" y="1113" on="1"/>
        <pt x="1598" y="1000" on="0"/>
        <pt x="1664" y="912" on="1"/>
        <pt x="1725" y="861" on="0"/>
        <pt x="1805" y="768" on="1"/>
        <pt x="1810" y="745" on="0"/>
      </contour>
      <contour>
        <pt x="1642" y="403" on="1"/>
        <pt x="1642" y="122" on="0"/>
        <pt x="1244" y="-276" on="0"/>
        <pt x="963" y="-276" on="1"/>
        <pt x="682" y="-276" on="0"/>
        <pt x="283" y="122" on="0"/>
        <pt x="283" y="403" on="1"/>
        <pt x="283" y="676" on="0"/>
        <pt x="474" y="872" on="1"/>
        <pt x="635" y="1038" on="0"/>
        <pt x="822" y="1067" on="1"/>
        <pt x="861" y="1072" on="0"/>
        <pt x="893" y="1099" on="1"/>
        <pt x="931" y="1131" on="0"/>
        <pt x="931" y="1173" on="1"/>
        <pt x="931" y="1217" on="0"/>
        <pt x="866" y="1282" on="0"/>
        <pt x="822" y="1282" on="1"/>
        <pt x="777" y="1282" on="0"/>
        <pt x="711" y="1217" on="0"/>
        <pt x="711" y="1173" on="1"/>
        <pt x="711" y="1121" on="0"/>
        <pt x="752" y="1087" on="1"/>
        <pt x="668" y="1077" on="0"/>
        <pt x="566" y="1035" on="1"/>
        <pt x="496" y="1006" on="0"/>
        <pt x="446" y="958" on="1"/>
        <pt x="411" y="962" on="1"/>
        <pt x="459" y="1017" on="0"/>
        <pt x="562" y="1064" on="1"/>
        <pt x="611" y="1086" on="0"/>
        <pt x="705" y="1105" on="1"/>
        <pt x="683" y="1139" on="0"/>
        <pt x="683" y="1181" on="1"/>
        <pt x="683" y="1238" on="0"/>
        <pt x="727" y="1275" on="1"/>
        <pt x="768" y="1310" on="0"/>
        <pt x="822" y="1310" on="1"/>
        <pt x="877" y="1310" on="0"/>
        <pt x="919" y="1273" on="1"/>
        <pt x="963" y="1234" on="0"/>
        <pt x="963" y="1179" on="1"/>
        <pt x="963" y="1119" on="0"/>
        <pt x="917" y="1081" on="1"/>
        <pt x="934" y="1082" on="0"/>
        <pt x="963" y="1082" on="1"/>
        <pt x="993" y="1082" on="0"/>
        <pt x="1008" y="1081" on="1"/>
        <pt x="963" y="1119" on="0"/>
        <pt x="963" y="1179" on="1"/>
        <pt x="963" y="1235" on="0"/>
        <pt x="1006" y="1273" on="1"/>
        <pt x="1047" y="1310" on="0"/>
        <pt x="1103" y="1310" on="1"/>
        <pt x="1158" y="1310" on="0"/>
        <pt x="1198" y="1275" on="1"/>
        <pt x="1244" y="1238" on="0"/>
        <pt x="1244" y="1181" on="1"/>
        <pt x="1244" y="1139" on="0"/>
        <pt x="1221" y="1105" on="1"/>
        <pt x="1312" y="1087" on="0"/>
        <pt x="1363" y="1064" on="1"/>
        <pt x="1466" y="1018" on="0"/>
        <pt x="1514" y="962" on="1"/>
        <pt x="1481" y="958" on="1"/>
        <pt x="1426" y="1008" on="0"/>
        <pt x="1359" y="1035" on="1"/>
        <pt x="1254" y="1078" on="0"/>
        <pt x="1172" y="1087" on="1"/>
        <pt x="1212" y="1120" on="0"/>
        <pt x="1212" y="1173" on="1"/>
        <pt x="1212" y="1217" on="0"/>
        <pt x="1149" y="1282" on="0"/>
        <pt x="1103" y="1282" on="1"/>
        <pt x="1059" y="1282" on="0"/>
        <pt x="994" y="1217" on="0"/>
        <pt x="994" y="1173" on="1"/>
        <pt x="994" y="1131" on="0"/>
        <pt x="1032" y="1099" on="1"/>
        <pt x="1064" y="1072" on="0"/>
        <pt x="1103" y="1067" on="1"/>
        <pt x="1291" y="1038" on="0"/>
        <pt x="1452" y="872" on="1"/>
        <pt x="1642" y="676" on="0"/>
      </contour>
      <contour>
        <pt x="442" y="836" on="1"/>
        <pt x="400" y="800" on="0"/>
        <pt x="401" y="804" on="1"/>
        <pt x="416" y="841" on="0"/>
        <pt x="416" y="908" on="1"/>
        <pt x="416" y="1044" on="0"/>
        <pt x="354" y="1058" on="1"/>
        <pt x="349" y="971" on="0"/>
        <pt x="291" y="891" on="1"/>
        <pt x="237" y="845" on="0"/>
        <pt x="155" y="763" on="1"/>
        <pt x="146" y="743" on="0"/>
        <pt x="146" y="735" on="1"/>
        <pt x="116" y="753" on="1"/>
        <pt x="116" y="760" on="0"/>
        <pt x="122" y="768" on="1"/>
        <pt x="132" y="791" on="0"/>
        <pt x="187" y="840" on="1"/>
        <pt x="250" y="894" on="0"/>
        <pt x="263" y="912" on="1"/>
        <pt x="326" y="997" on="0"/>
        <pt x="331" y="1113" on="1"/>
        <pt x="449" y="1079" on="0"/>
        <pt x="449" y="907" on="1"/>
        <pt x="449" y="872" on="0"/>
      </contour>
      <contour>
        <pt x="1916" y="800" on="1"/>
        <pt x="1865" y="724" on="0"/>
        <pt x="1871" y="586" on="1"/>
        <pt x="1887" y="529" on="0"/>
        <pt x="1907" y="425" on="1"/>
        <pt x="1908" y="398" on="0"/>
        <pt x="1861" y="343" on="0"/>
        <pt x="1836" y="343" on="1"/>
        <pt x="1801" y="343" on="0"/>
        <pt x="1783" y="361" on="1"/>
        <pt x="1783" y="21" on="0"/>
        <pt x="1303" y="-459" on="0"/>
        <pt x="963" y="-459" on="1"/>
        <pt x="623" y="-459" on="0"/>
        <pt x="142" y="21" on="0"/>
        <pt x="142" y="361" on="1"/>
        <pt x="125" y="343" on="0"/>
        <pt x="90" y="343" on="1"/>
        <pt x="66" y="343" on="0"/>
        <pt x="17" y="398" on="0"/>
        <pt x="18" y="425" on="1"/>
        <pt x="35" y="480" on="0"/>
        <pt x="54" y="586" on="1"/>
        <pt x="60" y="724" on="0"/>
        <pt x="9" y="800" on="1"/>
        <pt x="158" y="790" on="0"/>
        <pt x="204" y="679" on="1"/>
        <pt x="201" y="588" on="1"/>
        <pt x="197" y="643" on="0"/>
        <pt x="164" y="692" on="1"/>
        <pt x="122" y="755" on="0"/>
        <pt x="57" y="759" on="1"/>
        <pt x="86" y="715" on="0"/>
        <pt x="86" y="586" on="1"/>
        <pt x="86" y="562" on="0"/>
        <pt x="54" y="455" on="0"/>
        <pt x="53" y="435" on="1"/>
        <pt x="50" y="378" on="0"/>
        <pt x="106" y="378" on="1"/>
        <pt x="134" y="378" on="0"/>
        <pt x="160" y="417" on="1"/>
        <pt x="176" y="439" on="1"/>
        <pt x="172" y="392" on="0"/>
        <pt x="172" y="361" on="1"/>
        <pt x="172" y="39" on="0"/>
        <pt x="639" y="-419" on="0"/>
        <pt x="963" y="-419" on="1"/>
        <pt x="1287" y="-419" on="0"/>
        <pt x="1755" y="39" on="0"/>
        <pt x="1755" y="361" on="1"/>
        <pt x="1755" y="392" on="0"/>
        <pt x="1751" y="439" on="1"/>
        <pt x="1767" y="417" on="1"/>
        <pt x="1792" y="378" on="0"/>
        <pt x="1819" y="378" on="1"/>
        <pt x="1877" y="378" on="0"/>
        <pt x="1873" y="435" on="1"/>
        <pt x="1873" y="455" on="0"/>
        <pt x="1839" y="562" on="0"/>
        <pt x="1839" y="586" on="1"/>
        <pt x="1839" y="714" on="0"/>
        <pt x="1869" y="759" on="1"/>
        <pt x="1805" y="755" on="0"/>
        <pt x="1762" y="692" on="1"/>
        <pt x="1729" y="642" on="0"/>
        <pt x="1724" y="588" on="1"/>
        <pt x="1723" y="679" on="1"/>
        <pt x="1768" y="790" on="0"/>
      </contour>
      <contour>
        <pt x="1608" y="403" on="1"/>
        <pt x="1608" y="668" on="0"/>
        <pt x="1429" y="851" on="1"/>
        <pt x="1288" y="993" on="0"/>
        <pt x="1106" y="1035" on="1"/>
        <pt x="1046" y="1049" on="0"/>
        <pt x="963" y="1049" on="1"/>
        <pt x="880" y="1049" on="0"/>
        <pt x="820" y="1035" on="1"/>
        <pt x="638" y="993" on="0"/>
        <pt x="498" y="850" on="1"/>
        <pt x="319" y="668" on="0"/>
        <pt x="319" y="403" on="1"/>
        <pt x="319" y="134" on="0"/>
        <pt x="694" y="-242" on="0"/>
        <pt x="963" y="-242" on="1"/>
        <pt x="1232" y="-242" on="0"/>
        <pt x="1608" y="134" on="0"/>
      </contour>
      <contour>
        <pt x="1066" y="482" on="1"/>
        <pt x="1066" y="438" on="0"/>
        <pt x="1013" y="431" on="1"/>
        <pt x="937" y="421" on="0"/>
        <pt x="922" y="410" on="1"/>
        <pt x="974" y="227" on="0"/>
        <pt x="974" y="201" on="1"/>
        <pt x="974" y="138" on="0"/>
        <pt x="962" y="120" on="1"/>
        <pt x="955" y="120" on="0"/>
        <pt x="939" y="108" on="1"/>
        <pt x="922" y="119" on="0"/>
        <pt x="820" y="365" on="0"/>
        <pt x="820" y="395" on="1"/>
        <pt x="820" y="460" on="0"/>
        <pt x="867" y="505" on="1"/>
        <pt x="910" y="549" on="0"/>
        <pt x="963" y="549" on="1"/>
        <pt x="986" y="549" on="0"/>
        <pt x="1022" y="532" on="1"/>
        <pt x="1066" y="511" on="0"/>
      </contour>
    </TTGlyph>
    <TTGlyph name="uniFB5B" xMin="124" yMin="-634" xMax="3492" yMax="1248">
      <contour>
        <pt x="3370" y="225" on="1"/>
        <pt x="3370" y="63" on="0"/>
        <pt x="3311" y="52" on="1"/>
        <pt x="3216" y="568" on="1"/>
        <pt x="3216" y="726" on="1"/>
        <pt x="3265" y="726" on="1"/>
        <pt x="3328" y="591" on="0"/>
        <pt x="3361" y="333" on="1"/>
        <pt x="3370" y="274" on="0"/>
      </contour>
      <contour>
        <pt x="2663" y="1225" on="1"/>
        <pt x="2654" y="1180" on="0"/>
        <pt x="2573" y="1142" on="1"/>
        <pt x="2455" y="1092" on="1"/>
        <pt x="2206" y="972" on="1"/>
        <pt x="2201" y="977" on="0"/>
        <pt x="2177" y="990" on="0"/>
        <pt x="2172" y="996" on="1"/>
        <pt x="2167" y="1038" on="0"/>
        <pt x="2195" y="1053" on="1"/>
        <pt x="2288" y="1108" on="0"/>
        <pt x="2589" y="1248" on="0"/>
        <pt x="2608" y="1248" on="1"/>
        <pt x="2640" y="1248" on="1"/>
      </contour>
      <contour>
        <pt x="2541" y="834" on="1"/>
        <pt x="2541" y="752" on="0"/>
        <pt x="2483" y="710" on="1"/>
        <pt x="2396" y="645" on="0"/>
        <pt x="2336" y="645" on="1"/>
        <pt x="2274" y="645" on="0"/>
        <pt x="2274" y="727" on="1"/>
        <pt x="2274" y="750" on="0"/>
        <pt x="2297" y="818" on="1"/>
        <pt x="2323" y="818" on="0"/>
        <pt x="2343" y="777" on="1"/>
        <pt x="2372" y="773" on="0"/>
        <pt x="2381" y="808" on="1"/>
        <pt x="2399" y="879" on="1"/>
        <pt x="2419" y="879" on="0"/>
        <pt x="2463" y="819" on="1"/>
        <pt x="2478" y="864" on="1"/>
        <pt x="2492" y="911" on="1"/>
        <pt x="2541" y="877" on="0"/>
      </contour>
      <contour>
        <pt x="3083" y="174" on="1"/>
        <pt x="3083" y="163" on="0"/>
        <pt x="3079" y="128" on="0"/>
        <pt x="3079" y="117" on="1"/>
        <pt x="3079" y="100" on="0"/>
        <pt x="3048" y="34" on="1"/>
        <pt x="3034" y="3" on="0"/>
        <pt x="2971" y="-18" on="1"/>
        <pt x="2898" y="-43" on="0"/>
        <pt x="2886" y="-54" on="1"/>
        <pt x="2866" y="-72" on="0"/>
        <pt x="2830" y="-138" on="1"/>
        <pt x="2774" y="-238" on="0"/>
        <pt x="2771" y="-243" on="1"/>
        <pt x="2745" y="-285" on="0"/>
        <pt x="2657" y="-319" on="1"/>
        <pt x="2581" y="-348" on="0"/>
        <pt x="2530" y="-348" on="1"/>
        <pt x="2372" y="-348" on="0"/>
        <pt x="2234" y="-264" on="1"/>
        <pt x="2232" y="-254" on="0"/>
        <pt x="2248" y="-225" on="0"/>
        <pt x="2264" y="-225" on="1"/>
        <pt x="2277" y="-225" on="0"/>
        <pt x="2384" y="-235" on="0"/>
        <pt x="2397" y="-235" on="1"/>
        <pt x="2517" y="-235" on="0"/>
        <pt x="2534" y="-231" on="1"/>
        <pt x="2598" y="-216" on="0"/>
        <pt x="2717" y="-131" on="1"/>
        <pt x="2765" y="-96" on="0"/>
        <pt x="2765" y="-56" on="1"/>
        <pt x="2765" y="-43" on="0"/>
        <pt x="2724" y="43" on="0"/>
        <pt x="2724" y="57" on="1"/>
        <pt x="2724" y="75" on="0"/>
        <pt x="2771" y="123" on="0"/>
        <pt x="2791" y="123" on="1"/>
        <pt x="2804" y="123" on="0"/>
        <pt x="2871" y="112" on="0"/>
        <pt x="2883" y="112" on="1"/>
        <pt x="2939" y="112" on="0"/>
        <pt x="2945" y="115" on="1"/>
        <pt x="2976" y="125" on="0"/>
        <pt x="2990" y="174" on="1"/>
        <pt x="2858" y="757" on="1"/>
        <pt x="2858" y="791" on="0"/>
        <pt x="2874" y="831" on="1"/>
        <pt x="2892" y="881" on="0"/>
        <pt x="2915" y="890" on="1"/>
        <pt x="2927" y="883" on="0"/>
        <pt x="2946" y="866" on="1"/>
        <pt x="2945" y="860" on="0"/>
        <pt x="2945" y="853" on="1"/>
        <pt x="2945" y="813" on="0"/>
        <pt x="2968" y="772" on="1"/>
        <pt x="2995" y="723" on="0"/>
        <pt x="3035" y="723" on="1"/>
        <pt x="3052" y="695" on="0"/>
        <pt x="3052" y="681" on="1"/>
        <pt x="3052" y="669" on="0"/>
        <pt x="3011" y="571" on="0"/>
        <pt x="3011" y="558" on="1"/>
        <pt x="3011" y="545" on="0"/>
        <pt x="3083" y="187" on="0"/>
      </contour>
      <contour>
        <pt x="2029" y="1070" on="1"/>
        <pt x="2029" y="1035" on="0"/>
        <pt x="1914" y="972" on="1"/>
        <pt x="1807" y="911" on="0"/>
        <pt x="1772" y="911" on="1"/>
        <pt x="1757" y="911" on="0"/>
        <pt x="1726" y="922" on="0"/>
        <pt x="1722" y="922" on="1"/>
        <pt x="1722" y="959" on="1"/>
        <pt x="1737" y="975" on="0"/>
        <pt x="1794" y="999" on="1"/>
        <pt x="1835" y="1018" on="0"/>
        <pt x="1845" y="1057" on="1"/>
        <pt x="1844" y="1057" on="0"/>
        <pt x="1813" y="1065" on="0"/>
        <pt x="1798" y="1065" on="1"/>
        <pt x="1783" y="1065" on="0"/>
        <pt x="1758" y="1053" on="1"/>
        <pt x="1723" y="1036" on="0"/>
        <pt x="1715" y="1034" on="1"/>
        <pt x="1701" y="1049" on="0"/>
        <pt x="1701" y="1065" on="1"/>
        <pt x="1701" y="1100" on="0"/>
        <pt x="1754" y="1140" on="1"/>
        <pt x="1803" y="1177" on="0"/>
        <pt x="1829" y="1177" on="1"/>
        <pt x="1859" y="1177" on="0"/>
        <pt x="2029" y="1084" on="0"/>
      </contour>
      <contour>
        <pt x="1464" y="1158" on="1"/>
        <pt x="1118" y="972" on="0"/>
        <pt x="1100" y="973" on="1"/>
        <pt x="1058" y="973" on="1"/>
        <pt x="1046" y="974" on="0"/>
        <pt x="1046" y="998" on="1"/>
        <pt x="1046" y="1040" on="0"/>
        <pt x="1234" y="1128" on="1"/>
        <pt x="1390" y="1202" on="0"/>
        <pt x="1453" y="1217" on="1"/>
        <pt x="1453" y="1213" on="0"/>
        <pt x="1464" y="1171" on="0"/>
      </contour>
      <contour>
        <pt x="1035" y="455" on="1"/>
        <pt x="1035" y="443" on="0"/>
        <pt x="1024" y="378" on="0"/>
        <pt x="1024" y="361" on="1"/>
        <pt x="1002" y="339" on="0"/>
        <pt x="986" y="339" on="1"/>
        <pt x="976" y="389" on="0"/>
        <pt x="950" y="473" on="1"/>
        <pt x="924" y="528" on="0"/>
        <pt x="872" y="597" on="1"/>
        <pt x="883" y="664" on="1"/>
        <pt x="931" y="664" on="1"/>
        <pt x="954" y="638" on="0"/>
        <pt x="990" y="580" on="1"/>
        <pt x="1035" y="472" on="0"/>
      </contour>
      <contour>
        <pt x="2570" y="135" on="1"/>
        <pt x="2540" y="82" on="0"/>
        <pt x="2428" y="82" on="1"/>
        <pt x="2417" y="82" on="0"/>
        <pt x="2349" y="92" on="0"/>
        <pt x="2336" y="92" on="1"/>
        <pt x="2307" y="92" on="0"/>
        <pt x="1797" y="-20" on="0"/>
        <pt x="1716" y="-20" on="1"/>
        <pt x="1704" y="-20" on="0"/>
        <pt x="1660" y="-10" on="0"/>
        <pt x="1649" y="-10" on="1"/>
        <pt x="1637" y="-10" on="0"/>
        <pt x="1458" y="-51" on="0"/>
        <pt x="1445" y="-51" on="1"/>
        <pt x="1376" y="-51" on="0"/>
        <pt x="1274" y="-7" on="1"/>
        <pt x="1264" y="-3" on="0"/>
        <pt x="1212" y="38" on="1"/>
        <pt x="1204" y="41" on="0"/>
        <pt x="1189" y="41" on="1"/>
        <pt x="1177" y="41" on="0"/>
        <pt x="1132" y="25" on="1"/>
        <pt x="1082" y="7" on="0"/>
        <pt x="1062" y="2" on="1"/>
        <pt x="1046" y="0" on="0"/>
        <pt x="984" y="2" on="1"/>
        <pt x="935" y="2" on="0"/>
        <pt x="910" y="-13" on="1"/>
        <pt x="878" y="-33" on="0"/>
        <pt x="856" y="-110" on="1"/>
        <pt x="833" y="-194" on="0"/>
        <pt x="815" y="-213" on="1"/>
        <pt x="763" y="-269" on="0"/>
        <pt x="635" y="-316" on="1"/>
        <pt x="520" y="-358" on="0"/>
        <pt x="452" y="-358" on="1"/>
        <pt x="335" y="-358" on="0"/>
        <pt x="240" y="-302" on="1"/>
        <pt x="124" y="-233" on="0"/>
        <pt x="124" y="-117" on="1"/>
        <pt x="124" y="23" on="0"/>
        <pt x="221" y="92" on="1"/>
        <pt x="235" y="83" on="0"/>
        <pt x="235" y="54" on="1"/>
        <pt x="235" y="39" on="0"/>
        <pt x="225" y="-34" on="0"/>
        <pt x="225" y="-53" on="1"/>
        <pt x="225" y="-155" on="0"/>
        <pt x="376" y="-191" on="1"/>
        <pt x="433" y="-204" on="0"/>
        <pt x="488" y="-204" on="1"/>
        <pt x="590" y="-204" on="0"/>
        <pt x="675" y="-174" on="1"/>
        <pt x="789" y="-132" on="0"/>
        <pt x="789" y="-51" on="1"/>
        <pt x="789" y="-40" on="0"/>
        <pt x="707" y="152" on="0"/>
        <pt x="707" y="164" on="1"/>
        <pt x="707" y="200" on="0"/>
        <pt x="753" y="246" on="1"/>
        <pt x="786" y="215" on="0"/>
        <pt x="859" y="155" on="1"/>
        <pt x="905" y="123" on="0"/>
        <pt x="984" y="123" on="1"/>
        <pt x="1080" y="123" on="0"/>
        <pt x="1161" y="156" on="1"/>
        <pt x="1192" y="168" on="0"/>
        <pt x="1280" y="220" on="1"/>
        <pt x="1354" y="266" on="0"/>
        <pt x="1368" y="266" on="1"/>
        <pt x="1377" y="266" on="0"/>
        <pt x="1439" y="220" on="1"/>
        <pt x="1508" y="170" on="0"/>
        <pt x="1544" y="156" on="1"/>
        <pt x="1599" y="133" on="0"/>
        <pt x="1731" y="133" on="1"/>
        <pt x="1839" y="133" on="1"/>
        <pt x="1904" y="133" on="0"/>
        <pt x="1998" y="170" on="1"/>
        <pt x="1966" y="231" on="0"/>
        <pt x="1861" y="243" on="1"/>
        <pt x="1718" y="261" on="0"/>
        <pt x="1701" y="269" on="1"/>
        <pt x="1701" y="301" on="1"/>
        <pt x="1701" y="336" on="0"/>
        <pt x="1776" y="381" on="1"/>
        <pt x="1840" y="419" on="0"/>
        <pt x="1859" y="419" on="1"/>
        <pt x="1903" y="419" on="0"/>
        <pt x="2038" y="348" on="1"/>
        <pt x="2196" y="265" on="0"/>
        <pt x="2250" y="248" on="1"/>
        <pt x="2278" y="239" on="0"/>
        <pt x="2405" y="225" on="1"/>
        <pt x="2512" y="214" on="0"/>
        <pt x="2570" y="183" on="1"/>
      </contour>
      <contour>
        <pt x="1369" y="165" on="1"/>
        <pt x="1332" y="161" on="0"/>
        <pt x="1318" y="130" on="1"/>
        <pt x="1350" y="102" on="0"/>
        <pt x="1432" y="88" on="1"/>
        <pt x="1397" y="129" on="0"/>
      </contour>
      <contour>
        <pt x="881" y="-489" on="1"/>
        <pt x="869" y="-509" on="0"/>
        <pt x="545" y="-634" on="0"/>
        <pt x="498" y="-634" on="1"/>
        <pt x="483" y="-634" on="0"/>
        <pt x="456" y="-623" on="0"/>
        <pt x="452" y="-623" on="1"/>
        <pt x="452" y="-586" on="1"/>
        <pt x="493" y="-540" on="0"/>
        <pt x="618" y="-505" on="1"/>
        <pt x="809" y="-450" on="0"/>
        <pt x="835" y="-440" on="1"/>
        <pt x="881" y="-451" on="1"/>
      </contour>
      <contour>
        <pt x="3492" y="1008" on="1"/>
        <pt x="3492" y="939" on="0"/>
        <pt x="3418" y="890" on="1"/>
        <pt x="3357" y="850" on="0"/>
        <pt x="3302" y="850" on="1"/>
        <pt x="3291" y="850" on="0"/>
        <pt x="3190" y="881" on="0"/>
        <pt x="3180" y="881" on="1"/>
        <pt x="3168" y="881" on="0"/>
        <pt x="3114" y="862" on="0"/>
        <pt x="3104" y="862" on="1"/>
        <pt x="3110" y="886" on="0"/>
        <pt x="3168" y="953" on="0"/>
        <pt x="3191" y="959" on="1"/>
        <pt x="3217" y="957" on="0"/>
        <pt x="3270" y="964" on="1"/>
        <pt x="3294" y="988" on="0"/>
        <pt x="3340" y="1029" on="1"/>
        <pt x="3398" y="1075" on="0"/>
        <pt x="3430" y="1075" on="1"/>
        <pt x="3492" y="1075" on="0"/>
      </contour>
      <contour>
        <pt x="3346" y="963" on="1"/>
        <pt x="3389" y="944" on="0"/>
        <pt x="3425" y="965" on="1"/>
        <pt x="3406" y="1016" on="0"/>
      </contour>
      <contour>
        <pt x="493" y="440" on="1"/>
        <pt x="493" y="420" on="0"/>
        <pt x="444" y="358" on="0"/>
        <pt x="426" y="358" on="1"/>
        <pt x="396" y="358" on="0"/>
        <pt x="366" y="394" on="1"/>
        <pt x="339" y="426" on="0"/>
        <pt x="339" y="445" on="1"/>
        <pt x="339" y="473" on="0"/>
        <pt x="379" y="522" on="0"/>
        <pt x="406" y="522" on="1"/>
        <pt x="434" y="522" on="0"/>
        <pt x="465" y="489" on="1"/>
        <pt x="493" y="459" on="0"/>
      </contour>
    </TTGlyph>
    <TTGlyph name="uniFB5C" xMin="331" yMin="-532" xMax="3754" yMax="1289">
      <contour>
        <pt x="3719" y="353" on="1"/>
        <pt x="3719" y="287" on="0"/>
        <pt x="3687" y="206" on="1"/>
        <pt x="3680" y="206" on="0"/>
        <pt x="3662" y="194" on="1"/>
        <pt x="3525" y="854" on="1"/>
        <pt x="3525" y="930" on="0"/>
        <pt x="3559" y="952" on="1"/>
        <pt x="3566" y="952" on="0"/>
        <pt x="3591" y="936" on="1"/>
        <pt x="3620" y="880" on="0"/>
        <pt x="3641" y="771" on="1"/>
        <pt x="3655" y="686" on="0"/>
        <pt x="3671" y="600" on="1"/>
        <pt x="3719" y="386" on="0"/>
      </contour>
      <contour>
        <pt x="2951" y="1241" on="1"/>
        <pt x="2908" y="1210" on="0"/>
        <pt x="2748" y="1138" on="1"/>
        <pt x="2586" y="1065" on="0"/>
        <pt x="2556" y="1065" on="1"/>
        <pt x="2504" y="1065" on="1"/>
        <pt x="2500" y="1074" on="0"/>
        <pt x="2491" y="1090" on="1"/>
        <pt x="2508" y="1131" on="0"/>
        <pt x="2590" y="1167" on="1"/>
        <pt x="2709" y="1210" on="1"/>
        <pt x="2820" y="1257" on="1"/>
        <pt x="2893" y="1289" on="0"/>
        <pt x="2907" y="1289" on="1"/>
        <pt x="2951" y="1289" on="1"/>
      </contour>
      <contour>
        <pt x="2984" y="922" on="1"/>
        <pt x="2984" y="920" on="0"/>
        <pt x="2968" y="843" on="1"/>
        <pt x="2955" y="821" on="0"/>
        <pt x="2929" y="801" on="1"/>
        <pt x="2910" y="796" on="0"/>
        <pt x="2829" y="764" on="1"/>
        <pt x="2758" y="737" on="0"/>
        <pt x="2747" y="737" on="1"/>
        <pt x="2696" y="737" on="0"/>
        <pt x="2696" y="813" on="1"/>
        <pt x="2696" y="849" on="0"/>
        <pt x="2730" y="900" on="1"/>
        <pt x="2756" y="888" on="0"/>
        <pt x="2756" y="848" on="1"/>
        <pt x="2759" y="848" on="0"/>
        <pt x="2768" y="840" on="0"/>
        <pt x="2783" y="840" on="1"/>
        <pt x="2798" y="840" on="0"/>
        <pt x="2816" y="881" on="1"/>
        <pt x="2843" y="938" on="0"/>
        <pt x="2854" y="952" on="1"/>
        <pt x="2866" y="924" on="0"/>
        <pt x="2897" y="880" on="1"/>
        <pt x="2931" y="890" on="0"/>
        <pt x="2948" y="972" on="0"/>
        <pt x="2969" y="982" on="1"/>
        <pt x="2984" y="955" on="0"/>
      </contour>
      <contour>
        <pt x="3423" y="348" on="1"/>
        <pt x="3423" y="196" on="0"/>
        <pt x="3377" y="125" on="1"/>
        <pt x="3367" y="110" on="0"/>
        <pt x="3318" y="92" on="1"/>
        <pt x="3256" y="70" on="0"/>
        <pt x="3217" y="47" on="0"/>
        <pt x="3183" y="-37" on="1"/>
        <pt x="3142" y="-140" on="0"/>
        <pt x="3041" y="-197" on="1"/>
        <pt x="2956" y="-245" on="0"/>
        <pt x="2865" y="-245" on="1"/>
        <pt x="2774" y="-245" on="0"/>
        <pt x="2649" y="-222" on="1"/>
        <pt x="2634" y="-220" on="0"/>
        <pt x="2608" y="-199" on="1"/>
        <pt x="2574" y="-176" on="0"/>
        <pt x="2574" y="-155" on="1"/>
        <pt x="2577" y="-155" on="0"/>
        <pt x="2594" y="-143" on="0"/>
        <pt x="2608" y="-143" on="1"/>
        <pt x="2621" y="-143" on="0"/>
        <pt x="2744" y="-154" on="0"/>
        <pt x="2757" y="-154" on="1"/>
        <pt x="2792" y="-154" on="0"/>
        <pt x="2935" y="-120" on="1"/>
        <pt x="2973" y="-112" on="0"/>
        <pt x="3045" y="-49" on="1"/>
        <pt x="3126" y="18" on="0"/>
        <pt x="3126" y="61" on="1"/>
        <pt x="3126" y="73" on="0"/>
        <pt x="3085" y="152" on="0"/>
        <pt x="3085" y="164" on="1"/>
        <pt x="3085" y="225" on="0"/>
        <pt x="3136" y="225" on="1"/>
        <pt x="3149" y="225" on="0"/>
        <pt x="3215" y="215" on="0"/>
        <pt x="3228" y="215" on="1"/>
        <pt x="3290" y="215" on="0"/>
        <pt x="3309" y="224" on="1"/>
        <pt x="3339" y="239" on="0"/>
        <pt x="3341" y="291" on="1"/>
        <pt x="3177" y="947" on="1"/>
        <pt x="3193" y="1012" on="0"/>
        <pt x="3220" y="1053" on="1"/>
        <pt x="3257" y="1053" on="1"/>
        <pt x="3266" y="1013" on="0"/>
        <pt x="3292" y="949" on="1"/>
        <pt x="3298" y="939" on="0"/>
        <pt x="3369" y="907" on="1"/>
        <pt x="3392" y="892" on="0"/>
        <pt x="3392" y="870" on="1"/>
        <pt x="3392" y="856" on="0"/>
        <pt x="3373" y="823" on="1"/>
        <pt x="3345" y="775" on="0"/>
        <pt x="3341" y="766" on="0"/>
        <pt x="3341" y="727" on="1"/>
        <pt x="3341" y="714" on="0"/>
        <pt x="3423" y="360" on="0"/>
      </contour>
      <contour>
        <pt x="2572" y="-398" on="1"/>
        <pt x="2539" y="-421" on="0"/>
        <pt x="2264" y="-532" on="0"/>
        <pt x="2239" y="-532" on="1"/>
        <pt x="2176" y="-532" on="1"/>
        <pt x="2173" y="-522" on="0"/>
        <pt x="2164" y="-507" on="1"/>
        <pt x="2190" y="-472" on="0"/>
        <pt x="2331" y="-408" on="1"/>
        <pt x="2463" y="-348" on="0"/>
        <pt x="2487" y="-348" on="1"/>
        <pt x="2559" y="-348" on="1"/>
        <pt x="2572" y="-361" on="1"/>
      </contour>
      <contour>
        <pt x="2890" y="256" on="1"/>
        <pt x="2890" y="169" on="0"/>
        <pt x="2725" y="169" on="1"/>
        <pt x="2699" y="169" on="0"/>
        <pt x="2612" y="173" on="0"/>
        <pt x="2599" y="173" on="1"/>
        <pt x="2578" y="173" on="0"/>
        <pt x="2569" y="170" on="1"/>
        <pt x="2201" y="61" on="0"/>
        <pt x="2071" y="61" on="1"/>
        <pt x="2060" y="61" on="0"/>
        <pt x="1934" y="102" on="0"/>
        <pt x="1923" y="102" on="1"/>
        <pt x="1912" y="102" on="0"/>
        <pt x="1873" y="75" on="1"/>
        <pt x="1831" y="48" on="0"/>
        <pt x="1811" y="43" on="1"/>
        <pt x="1707" y="24" on="0"/>
        <pt x="1516" y="5" on="1"/>
        <pt x="1359" y="-10" on="0"/>
        <pt x="1324" y="-10" on="1"/>
        <pt x="1312" y="-10" on="0"/>
        <pt x="1148" y="0" on="0"/>
        <pt x="1122" y="0" on="0"/>
        <pt x="1024" y="20" on="0"/>
        <pt x="1012" y="20" on="1"/>
        <pt x="1000" y="20" on="0"/>
        <pt x="891" y="-10" on="0"/>
        <pt x="878" y="-10" on="1"/>
        <pt x="868" y="-10" on="0"/>
        <pt x="804" y="0" on="0"/>
        <pt x="791" y="0" on="1"/>
        <pt x="766" y="0" on="0"/>
        <pt x="759" y="-3" on="1"/>
        <pt x="659" y="-117" on="0"/>
        <pt x="490" y="-174" on="1"/>
        <pt x="331" y="-160" on="1"/>
        <pt x="363" y="-126" on="0"/>
        <pt x="406" y="-110" on="1"/>
        <pt x="669" y="-13" on="0"/>
        <pt x="686" y="48" on="1"/>
        <pt x="690" y="63" on="0"/>
        <pt x="685" y="115" on="1"/>
        <pt x="681" y="164" on="0"/>
        <pt x="692" y="191" on="1"/>
        <pt x="705" y="224" on="0"/>
        <pt x="790" y="297" on="0"/>
        <pt x="812" y="297" on="1"/>
        <pt x="823" y="297" on="0"/>
        <pt x="898" y="241" on="1"/>
        <pt x="981" y="179" on="0"/>
        <pt x="1013" y="165" on="1"/>
        <pt x="1116" y="123" on="0"/>
        <pt x="1401" y="123" on="1"/>
        <pt x="1430" y="123" on="0"/>
        <pt x="1565" y="138" on="1"/>
        <pt x="1724" y="157" on="0"/>
        <pt x="1809" y="176" on="1"/>
        <pt x="1855" y="187" on="0"/>
        <pt x="1933" y="246" on="1"/>
        <pt x="1981" y="202" on="0"/>
        <pt x="2028" y="194" on="1"/>
        <pt x="2096" y="194" on="1"/>
        <pt x="2186" y="194" on="0"/>
        <pt x="2214" y="199" on="1"/>
        <pt x="2259" y="206" on="0"/>
        <pt x="2348" y="242" on="1"/>
        <pt x="2288" y="322" on="0"/>
        <pt x="2181" y="322" on="1"/>
        <pt x="2161" y="322" on="0"/>
        <pt x="2082" y="316" on="0"/>
        <pt x="2064" y="316" on="1"/>
        <pt x="2040" y="316" on="0"/>
        <pt x="2021" y="319" on="1"/>
        <pt x="2021" y="322" on="0"/>
        <pt x="2010" y="338" on="0"/>
        <pt x="2010" y="353" on="1"/>
        <pt x="2010" y="394" on="0"/>
        <pt x="2132" y="492" on="0"/>
        <pt x="2178" y="492" on="1"/>
        <pt x="2191" y="492" on="0"/>
        <pt x="2309" y="442" on="1"/>
        <pt x="2455" y="379" on="0"/>
        <pt x="2508" y="360" on="1"/>
        <pt x="2598" y="328" on="0"/>
        <pt x="2671" y="319" on="1"/>
        <pt x="2786" y="315" on="1"/>
        <pt x="2890" y="302" on="0"/>
      </contour>
      <contour>
        <pt x="2153" y="-254" on="1"/>
        <pt x="2118" y="-286" on="0"/>
        <pt x="2087" y="-286" on="1"/>
        <pt x="2070" y="-286" on="0"/>
        <pt x="2017" y="-266" on="0"/>
        <pt x="2005" y="-266" on="1"/>
        <pt x="1992" y="-266" on="0"/>
        <pt x="1915" y="-307" on="0"/>
        <pt x="1902" y="-307" on="1"/>
        <pt x="1878" y="-307" on="0"/>
        <pt x="1825" y="-255" on="0"/>
        <pt x="1825" y="-235" on="1"/>
        <pt x="1825" y="-201" on="0"/>
        <pt x="1859" y="-180" on="1"/>
        <pt x="1883" y="-163" on="0"/>
        <pt x="1902" y="-163" on="1"/>
        <pt x="1914" y="-163" on="0"/>
        <pt x="1957" y="-184" on="0"/>
        <pt x="1969" y="-184" on="1"/>
        <pt x="1982" y="-184" on="0"/>
        <pt x="2048" y="-143" on="0"/>
        <pt x="2061" y="-143" on="1"/>
        <pt x="2097" y="-143" on="0"/>
        <pt x="2153" y="-196" on="1"/>
      </contour>
      <contour>
        <pt x="883" y="-265" on="1"/>
        <pt x="843" y="-294" on="0"/>
        <pt x="657" y="-385" on="1"/>
        <pt x="460" y="-481" on="0"/>
        <pt x="427" y="-480" on="1"/>
        <pt x="395" y="-480" on="1"/>
        <pt x="372" y="-457" on="1"/>
        <pt x="381" y="-409" on="0"/>
        <pt x="474" y="-369" on="1"/>
        <pt x="630" y="-305" on="1"/>
        <pt x="803" y="-215" on="0"/>
        <pt x="828" y="-215" on="1"/>
        <pt x="870" y="-215" on="1"/>
        <pt x="883" y="-227" on="1"/>
      </contour>
      <contour>
        <pt x="3754" y="1172" on="1"/>
        <pt x="3754" y="1103" on="0"/>
        <pt x="3680" y="1053" on="1"/>
        <pt x="3618" y="1013" on="0"/>
        <pt x="3564" y="1013" on="1"/>
        <pt x="3553" y="1013" on="0"/>
        <pt x="3452" y="1044" on="0"/>
        <pt x="3442" y="1044" on="1"/>
        <pt x="3430" y="1044" on="0"/>
        <pt x="3376" y="1026" on="0"/>
        <pt x="3366" y="1026" on="1"/>
        <pt x="3372" y="1050" on="0"/>
        <pt x="3430" y="1117" on="0"/>
        <pt x="3453" y="1123" on="1"/>
        <pt x="3479" y="1121" on="0"/>
        <pt x="3532" y="1128" on="1"/>
        <pt x="3556" y="1152" on="0"/>
        <pt x="3602" y="1193" on="1"/>
        <pt x="3659" y="1239" on="0"/>
        <pt x="3692" y="1239" on="1"/>
        <pt x="3754" y="1239" on="0"/>
      </contour>
      <contour>
        <pt x="3608" y="1126" on="1"/>
        <pt x="3651" y="1108" on="0"/>
        <pt x="3687" y="1129" on="1"/>
        <pt x="3668" y="1180" on="0"/>
      </contour>
      <contour>
        <pt x="831" y="194" on="1"/>
        <pt x="803" y="186" on="0"/>
        <pt x="785" y="156" on="1"/>
        <pt x="818" y="140" on="0"/>
        <pt x="879" y="136" on="1"/>
        <pt x="854" y="170" on="0"/>
      </contour>
    </TTGlyph>
    <TTGlyph name="uniFB5D" xMin="9" yMin="-459" xMax="1916" yMax="1310">
      <contour>
        <pt x="1810" y="753" on="1"/>
        <pt x="1779" y="735" on="1"/>
        <pt x="1779" y="743" on="0"/>
        <pt x="1769" y="763" on="1"/>
        <pt x="1715" y="809" on="0"/>
        <pt x="1636" y="891" on="1"/>
        <pt x="1578" y="972" on="0"/>
        <pt x="1572" y="1058" on="1"/>
        <pt x="1509" y="1044" on="0"/>
        <pt x="1509" y="907" on="1"/>
        <pt x="1509" y="841" on="0"/>
        <pt x="1524" y="804" on="1"/>
        <pt x="1485" y="836" on="1"/>
        <pt x="1478" y="872" on="0"/>
        <pt x="1478" y="908" on="1"/>
        <pt x="1478" y="1079" on="0"/>
        <pt x="1596" y="1113" on="1"/>
        <pt x="1598" y="1000" on="0"/>
        <pt x="1664" y="912" on="1"/>
        <pt x="1725" y="861" on="0"/>
        <pt x="1805" y="768" on="1"/>
        <pt x="1810" y="745" on="0"/>
      </contour>
      <contour>
        <pt x="1642" y="403" on="1"/>
        <pt x="1642" y="122" on="0"/>
        <pt x="1244" y="-276" on="0"/>
        <pt x="963" y="-276" on="1"/>
        <pt x="682" y="-276" on="0"/>
        <pt x="283" y="122" on="0"/>
        <pt x="283" y="403" on="1"/>
        <pt x="283" y="676" on="0"/>
        <pt x="474" y="872" on="1"/>
        <pt x="635" y="1038" on="0"/>
        <pt x="822" y="1067" on="1"/>
        <pt x="861" y="1072" on="0"/>
        <pt x="893" y="1099" on="1"/>
        <pt x="931" y="1131" on="0"/>
        <pt x="931" y="1173" on="1"/>
        <pt x="931" y="1217" on="0"/>
        <pt x="866" y="1282" on="0"/>
        <pt x="822" y="1282" on="1"/>
        <pt x="777" y="1282" on="0"/>
        <pt x="711" y="1217" on="0"/>
        <pt x="711" y="1173" on="1"/>
        <pt x="711" y="1121" on="0"/>
        <pt x="752" y="1087" on="1"/>
        <pt x="668" y="1077" on="0"/>
        <pt x="566" y="1035" on="1"/>
        <pt x="496" y="1006" on="0"/>
        <pt x="446" y="958" on="1"/>
        <pt x="411" y="962" on="1"/>
        <pt x="459" y="1017" on="0"/>
        <pt x="562" y="1064" on="1"/>
        <pt x="611" y="1086" on="0"/>
        <pt x="705" y="1105" on="1"/>
        <pt x="683" y="1139" on="0"/>
        <pt x="683" y="1181" on="1"/>
        <pt x="683" y="1238" on="0"/>
        <pt x="727" y="1275" on="1"/>
        <pt x="768" y="1310" on="0"/>
        <pt x="822" y="1310" on="1"/>
        <pt x="877" y="1310" on="0"/>
        <pt x="919" y="1273" on="1"/>
        <pt x="963" y="1234" on="0"/>
        <pt x="963" y="1179" on="1"/>
        <pt x="963" y="1119" on="0"/>
        <pt x="917" y="1081" on="1"/>
        <pt x="934" y="1082" on="0"/>
        <pt x="963" y="1082" on="1"/>
        <pt x="993" y="1082" on="0"/>
        <pt x="1008" y="1081" on="1"/>
        <pt x="963" y="1119" on="0"/>
        <pt x="963" y="1179" on="1"/>
        <pt x="963" y="1235" on="0"/>
        <pt x="1006" y="1273" on="1"/>
        <pt x="1047" y="1310" on="0"/>
        <pt x="1103" y="1310" on="1"/>
        <pt x="1158" y="1310" on="0"/>
        <pt x="1198" y="1275" on="1"/>
        <pt x="1244" y="1238" on="0"/>
        <pt x="1244" y="1181" on="1"/>
        <pt x="1244" y="1139" on="0"/>
        <pt x="1221" y="1105" on="1"/>
        <pt x="1312" y="1087" on="0"/>
        <pt x="1363" y="1064" on="1"/>
        <pt x="1466" y="1018" on="0"/>
        <pt x="1514" y="962" on="1"/>
        <pt x="1481" y="958" on="1"/>
        <pt x="1426" y="1008" on="0"/>
        <pt x="1359" y="1035" on="1"/>
        <pt x="1254" y="1078" on="0"/>
        <pt x="1172" y="1087" on="1"/>
        <pt x="1212" y="1120" on="0"/>
        <pt x="1212" y="1173" on="1"/>
        <pt x="1212" y="1217" on="0"/>
        <pt x="1149" y="1282" on="0"/>
        <pt x="1103" y="1282" on="1"/>
        <pt x="1059" y="1282" on="0"/>
        <pt x="994" y="1217" on="0"/>
        <pt x="994" y="1173" on="1"/>
        <pt x="994" y="1131" on="0"/>
        <pt x="1032" y="1099" on="1"/>
        <pt x="1064" y="1072" on="0"/>
        <pt x="1103" y="1067" on="1"/>
        <pt x="1291" y="1038" on="0"/>
        <pt x="1452" y="872" on="1"/>
        <pt x="1642" y="676" on="0"/>
      </contour>
      <contour>
        <pt x="442" y="836" on="1"/>
        <pt x="400" y="800" on="0"/>
        <pt x="401" y="804" on="1"/>
        <pt x="416" y="841" on="0"/>
        <pt x="416" y="908" on="1"/>
        <pt x="416" y="1044" on="0"/>
        <pt x="354" y="1058" on="1"/>
        <pt x="349" y="971" on="0"/>
        <pt x="291" y="891" on="1"/>
        <pt x="237" y="845" on="0"/>
        <pt x="155" y="763" on="1"/>
        <pt x="146" y="743" on="0"/>
        <pt x="146" y="735" on="1"/>
        <pt x="116" y="753" on="1"/>
        <pt x="116" y="760" on="0"/>
        <pt x="122" y="768" on="1"/>
        <pt x="132" y="791" on="0"/>
        <pt x="187" y="840" on="1"/>
        <pt x="250" y="894" on="0"/>
        <pt x="263" y="912" on="1"/>
        <pt x="326" y="997" on="0"/>
        <pt x="331" y="1113" on="1"/>
        <pt x="449" y="1079" on="0"/>
        <pt x="449" y="907" on="1"/>
        <pt x="449" y="872" on="0"/>
      </contour>
      <contour>
        <pt x="1916" y="800" on="1"/>
        <pt x="1865" y="724" on="0"/>
        <pt x="1871" y="586" on="1"/>
        <pt x="1887" y="529" on="0"/>
        <pt x="1907" y="425" on="1"/>
        <pt x="1908" y="398" on="0"/>
        <pt x="1861" y="343" on="0"/>
        <pt x="1836" y="343" on="1"/>
        <pt x="1801" y="343" on="0"/>
        <pt x="1783" y="361" on="1"/>
        <pt x="1783" y="21" on="0"/>
        <pt x="1303" y="-459" on="0"/>
        <pt x="963" y="-459" on="1"/>
        <pt x="623" y="-459" on="0"/>
        <pt x="142" y="21" on="0"/>
        <pt x="142" y="361" on="1"/>
        <pt x="125" y="343" on="0"/>
        <pt x="90" y="343" on="1"/>
        <pt x="66" y="343" on="0"/>
        <pt x="17" y="398" on="0"/>
        <pt x="18" y="425" on="1"/>
        <pt x="35" y="480" on="0"/>
        <pt x="54" y="586" on="1"/>
        <pt x="60" y="724" on="0"/>
        <pt x="9" y="800" on="1"/>
        <pt x="158" y="790" on="0"/>
        <pt x="204" y="679" on="1"/>
        <pt x="201" y="588" on="1"/>
        <pt x="197" y="643" on="0"/>
        <pt x="164" y="692" on="1"/>
        <pt x="122" y="755" on="0"/>
        <pt x="57" y="759" on="1"/>
        <pt x="86" y="715" on="0"/>
        <pt x="86" y="586" on="1"/>
        <pt x="86" y="562" on="0"/>
        <pt x="54" y="455" on="0"/>
        <pt x="53" y="435" on="1"/>
        <pt x="50" y="378" on="0"/>
        <pt x="106" y="378" on="1"/>
        <pt x="134" y="378" on="0"/>
        <pt x="160" y="417" on="1"/>
        <pt x="176" y="439" on="1"/>
        <pt x="172" y="392" on="0"/>
        <pt x="172" y="361" on="1"/>
        <pt x="172" y="39" on="0"/>
        <pt x="639" y="-419" on="0"/>
        <pt x="963" y="-419" on="1"/>
        <pt x="1287" y="-419" on="0"/>
        <pt x="1755" y="39" on="0"/>
        <pt x="1755" y="361" on="1"/>
        <pt x="1755" y="392" on="0"/>
        <pt x="1751" y="439" on="1"/>
        <pt x="1767" y="417" on="1"/>
        <pt x="1792" y="378" on="0"/>
        <pt x="1819" y="378" on="1"/>
        <pt x="1877" y="378" on="0"/>
        <pt x="1873" y="435" on="1"/>
        <pt x="1873" y="455" on="0"/>
        <pt x="1839" y="562" on="0"/>
        <pt x="1839" y="586" on="1"/>
        <pt x="1839" y="714" on="0"/>
        <pt x="1869" y="759" on="1"/>
        <pt x="1805" y="755" on="0"/>
        <pt x="1762" y="692" on="1"/>
        <pt x="1729" y="642" on="0"/>
        <pt x="1724" y="588" on="1"/>
        <pt x="1723" y="679" on="1"/>
        <pt x="1768" y="790" on="0"/>
      </contour>
      <contour>
        <pt x="1608" y="403" on="1"/>
        <pt x="1608" y="668" on="0"/>
        <pt x="1429" y="851" on="1"/>
        <pt x="1288" y="993" on="0"/>
        <pt x="1106" y="1035" on="1"/>
        <pt x="1046" y="1049" on="0"/>
        <pt x="963" y="1049" on="1"/>
        <pt x="880" y="1049" on="0"/>
        <pt x="820" y="1035" on="1"/>
        <pt x="638" y="993" on="0"/>
        <pt x="498" y="850" on="1"/>
        <pt x="319" y="668" on="0"/>
        <pt x="319" y="403" on="1"/>
        <pt x="319" y="134" on="0"/>
        <pt x="694" y="-242" on="0"/>
        <pt x="963" y="-242" on="1"/>
        <pt x="1232" y="-242" on="0"/>
        <pt x="1608" y="134" on="0"/>
      </contour>
      <contour>
        <pt x="1099" y="471" on="1"/>
        <pt x="1099" y="446" on="0"/>
        <pt x="1079" y="408" on="1"/>
        <pt x="1057" y="366" on="0"/>
        <pt x="1033" y="360" on="1"/>
        <pt x="1004" y="356" on="0"/>
        <pt x="947" y="330" on="1"/>
        <pt x="963" y="177" on="0"/>
        <pt x="955" y="116" on="1"/>
        <pt x="942" y="102" on="0"/>
        <pt x="925" y="102" on="1"/>
        <pt x="899" y="102" on="0"/>
        <pt x="877" y="164" on="1"/>
        <pt x="859" y="229" on="1"/>
        <pt x="848" y="263" on="0"/>
        <pt x="800" y="354" on="1"/>
        <pt x="761" y="432" on="0"/>
        <pt x="761" y="445" on="1"/>
        <pt x="761" y="465" on="0"/>
        <pt x="773" y="489" on="1"/>
        <pt x="790" y="522" on="0"/>
        <pt x="818" y="522" on="1"/>
        <pt x="832" y="522" on="0"/>
        <pt x="855" y="501" on="1"/>
        <pt x="882" y="473" on="0"/>
        <pt x="889" y="471" on="1"/>
        <pt x="890" y="471" on="0"/>
        <pt x="924" y="501" on="1"/>
        <pt x="950" y="522" on="0"/>
        <pt x="966" y="522" on="1"/>
        <pt x="978" y="522" on="0"/>
        <pt x="999" y="501" on="0"/>
        <pt x="1012" y="501" on="1"/>
        <pt x="1025" y="501" on="0"/>
        <pt x="1031" y="522" on="0"/>
        <pt x="1044" y="521" on="1"/>
        <pt x="1087" y="521" on="1"/>
        <pt x="1087" y="518" on="0"/>
        <pt x="1099" y="484" on="0"/>
      </contour>
    </TTGlyph>
    <TTGlyph name="uniFB5E" xMin="351" yMin="-481" xMax="2593" yMax="993">
      <contour>
        <pt x="2573" y="933" on="1"/>
        <pt x="2515" y="889" on="0"/>
        <pt x="2324" y="836" on="1"/>
        <pt x="2285" y="825" on="0"/>
        <pt x="2167" y="778" on="1"/>
        <pt x="2143" y="803" on="0"/>
        <pt x="2143" y="819" on="1"/>
        <pt x="2143" y="890" on="0"/>
        <pt x="2559" y="993" on="1"/>
        <pt x="2573" y="981" on="1"/>
      </contour>
      <contour>
        <pt x="1989" y="512" on="1"/>
        <pt x="1989" y="429" on="0"/>
        <pt x="1943" y="399" on="1"/>
        <pt x="1927" y="416" on="0"/>
        <pt x="1919" y="460" on="1"/>
        <pt x="1907" y="525" on="0"/>
        <pt x="1904" y="536" on="1"/>
        <pt x="1898" y="555" on="0"/>
        <pt x="1865" y="620" on="1"/>
        <pt x="1835" y="677" on="0"/>
        <pt x="1835" y="691" on="1"/>
        <pt x="1835" y="713" on="0"/>
        <pt x="1860" y="736" on="1"/>
        <pt x="1903" y="729" on="0"/>
        <pt x="1948" y="639" on="1"/>
        <pt x="1989" y="558" on="0"/>
      </contour>
      <contour>
        <pt x="2593" y="174" on="1"/>
        <pt x="2593" y="144" on="0"/>
        <pt x="2570" y="97" on="1"/>
        <pt x="2542" y="41" on="0"/>
        <pt x="2506" y="41" on="1"/>
        <pt x="2493" y="41" on="0"/>
        <pt x="2365" y="102" on="0"/>
        <pt x="2353" y="102" on="1"/>
        <pt x="2340" y="102" on="0"/>
        <pt x="2317" y="77" on="1"/>
        <pt x="2285" y="43" on="0"/>
        <pt x="2274" y="34" on="1"/>
        <pt x="2229" y="0" on="0"/>
        <pt x="2051" y="0" on="1"/>
        <pt x="1798" y="0" on="0"/>
        <pt x="1708" y="71" on="1"/>
        <pt x="1689" y="47" on="0"/>
        <pt x="1647" y="-73" on="1"/>
        <pt x="1623" y="-143" on="0"/>
        <pt x="1544" y="-143" on="1"/>
        <pt x="1395" y="-143" on="0"/>
        <pt x="1285" y="103" on="1"/>
        <pt x="1259" y="103" on="1"/>
        <pt x="1220" y="25" on="0"/>
        <pt x="1016" y="-37" on="1"/>
        <pt x="838" y="-92" on="0"/>
        <pt x="715" y="-92" on="1"/>
        <pt x="480" y="-95" on="0"/>
        <pt x="387" y="22" on="1"/>
        <pt x="351" y="80" on="0"/>
        <pt x="351" y="153" on="1"/>
        <pt x="351" y="213" on="0"/>
        <pt x="426" y="317" on="1"/>
        <pt x="451" y="315" on="0"/>
        <pt x="451" y="286" on="1"/>
        <pt x="451" y="276" on="0"/>
        <pt x="443" y="222" on="0"/>
        <pt x="443" y="206" on="1"/>
        <pt x="443" y="84" on="0"/>
        <pt x="668" y="57" on="1"/>
        <pt x="711" y="51" on="0"/>
        <pt x="756" y="51" on="1"/>
        <pt x="902" y="51" on="0"/>
        <pt x="1050" y="97" on="1"/>
        <pt x="1254" y="161" on="0"/>
        <pt x="1252" y="276" on="1"/>
        <pt x="1181" y="727" on="1"/>
        <pt x="1187" y="758" on="0"/>
        <pt x="1215" y="809" on="1"/>
        <pt x="1242" y="797" on="0"/>
        <pt x="1258" y="758" on="1"/>
        <pt x="1278" y="693" on="1"/>
        <pt x="1290" y="668" on="0"/>
        <pt x="1311" y="468" on="1"/>
        <pt x="1333" y="264" on="0"/>
        <pt x="1373" y="163" on="1"/>
        <pt x="1434" y="10" on="0"/>
        <pt x="1554" y="10" on="1"/>
        <pt x="1598" y="10" on="0"/>
        <pt x="1621" y="52" on="1"/>
        <pt x="1529" y="747" on="1"/>
        <pt x="1529" y="794" on="0"/>
        <pt x="1574" y="840" on="1"/>
        <pt x="1592" y="827" on="1"/>
        <pt x="1681" y="372" on="1"/>
        <pt x="1722" y="220" on="0"/>
        <pt x="1812" y="175" on="1"/>
        <pt x="1897" y="133" on="0"/>
        <pt x="2143" y="133" on="1"/>
        <pt x="2260" y="133" on="0"/>
        <pt x="2279" y="145" on="1"/>
        <pt x="2286" y="150" on="0"/>
        <pt x="2381" y="267" on="1"/>
        <pt x="2463" y="369" on="0"/>
        <pt x="2506" y="369" on="1"/>
        <pt x="2546" y="369" on="0"/>
        <pt x="2573" y="289" on="1"/>
        <pt x="2593" y="227" on="0"/>
      </contour>
      <contour>
        <pt x="976" y="389" on="1"/>
        <pt x="976" y="327" on="0"/>
        <pt x="914" y="292" on="1"/>
        <pt x="867" y="266" on="0"/>
        <pt x="822" y="266" on="1"/>
        <pt x="787" y="266" on="0"/>
        <pt x="741" y="289" on="1"/>
        <pt x="743" y="319" on="0"/>
        <pt x="779" y="330" on="1"/>
        <pt x="834" y="348" on="0"/>
        <pt x="843" y="355" on="1"/>
        <pt x="831" y="388" on="0"/>
        <pt x="807" y="401" on="1"/>
        <pt x="792" y="409" on="0"/>
        <pt x="792" y="451" on="1"/>
        <pt x="792" y="485" on="0"/>
        <pt x="825" y="540" on="1"/>
        <pt x="865" y="604" on="0"/>
        <pt x="909" y="604" on="1"/>
        <pt x="919" y="604" on="0"/>
        <pt x="965" y="581" on="1"/>
        <pt x="965" y="535" on="1"/>
        <pt x="956" y="526" on="0"/>
        <pt x="893" y="495" on="1"/>
        <pt x="909" y="464" on="0"/>
        <pt x="948" y="449" on="1"/>
        <pt x="976" y="437" on="0"/>
      </contour>
      <contour>
        <pt x="1856" y="-314" on="1"/>
        <pt x="1770" y="-379" on="0"/>
        <pt x="1653" y="-420" on="1"/>
        <pt x="1472" y="-481" on="1"/>
        <pt x="1458" y="-469" on="0"/>
        <pt x="1447" y="-469" on="1"/>
        <pt x="1447" y="-436" on="1"/>
        <pt x="1447" y="-404" on="0"/>
        <pt x="1613" y="-332" on="1"/>
        <pt x="1767" y="-266" on="0"/>
        <pt x="1791" y="-267" on="1"/>
        <pt x="1844" y="-267" on="1"/>
        <pt x="1844" y="-272" on="0"/>
        <pt x="1856" y="-309" on="0"/>
      </contour>
      <contour>
        <pt x="1067" y="-296" on="1"/>
        <pt x="858" y="-389" on="0"/>
        <pt x="703" y="-439" on="1"/>
        <pt x="679" y="-416" on="0"/>
        <pt x="679" y="-404" on="1"/>
        <pt x="679" y="-369" on="0"/>
        <pt x="712" y="-353" on="1"/>
        <pt x="949" y="-235" on="0"/>
        <pt x="972" y="-235" on="1"/>
        <pt x="1055" y="-235" on="1"/>
        <pt x="1067" y="-248" on="1"/>
      </contour>
      <contour>
        <pt x="2487" y="261" on="1"/>
        <pt x="2452" y="252" on="0"/>
        <pt x="2433" y="229" on="1"/>
        <pt x="2467" y="196" on="0"/>
        <pt x="2525" y="183" on="1"/>
        <pt x="2510" y="247" on="0"/>
      </contour>
    </TTGlyph>
    <TTGlyph name="uniFB5F" xMin="126" yMin="-536" xMax="1836" yMax="1091">
      <contour>
        <pt x="1620" y="1066" on="1"/>
        <pt x="1610" y="1040" on="0"/>
        <pt x="1577" y="1002" on="1"/>
        <pt x="1195" y="784" on="0"/>
        <pt x="1184" y="784" on="1"/>
        <pt x="1122" y="784" on="1"/>
        <pt x="1109" y="797" on="1"/>
        <pt x="1109" y="834" on="1"/>
        <pt x="1274" y="940" on="0"/>
        <pt x="1596" y="1091" on="1"/>
      </contour>
      <contour>
        <pt x="1057" y="948" on="1"/>
        <pt x="1057" y="904" on="0"/>
        <pt x="962" y="851" on="1"/>
        <pt x="880" y="804" on="0"/>
        <pt x="853" y="804" on="1"/>
        <pt x="819" y="804" on="0"/>
        <pt x="781" y="840" on="1"/>
        <pt x="793" y="858" on="0"/>
        <pt x="864" y="904" on="1"/>
        <pt x="870" y="927" on="0"/>
        <pt x="832" y="927" on="1"/>
        <pt x="819" y="927" on="0"/>
        <pt x="790" y="913" on="0"/>
        <pt x="778" y="913" on="1"/>
        <pt x="758" y="913" on="0"/>
        <pt x="720" y="926" on="1"/>
        <pt x="725" y="933" on="0"/>
        <pt x="733" y="966" on="1"/>
        <pt x="804" y="1040" on="0"/>
        <pt x="853" y="1040" on="1"/>
        <pt x="885" y="1040" on="0"/>
        <pt x="970" y="1004" on="1"/>
        <pt x="1057" y="967" on="0"/>
      </contour>
      <contour>
        <pt x="1836" y="-377" on="1"/>
        <pt x="1836" y="-396" on="0"/>
        <pt x="1789" y="-444" on="0"/>
        <pt x="1769" y="-444" on="1"/>
        <pt x="1756" y="-444" on="0"/>
        <pt x="1700" y="-424" on="0"/>
        <pt x="1687" y="-424" on="1"/>
        <pt x="1676" y="-424" on="0"/>
        <pt x="1608" y="-444" on="0"/>
        <pt x="1595" y="-444" on="1"/>
        <pt x="1518" y="-444" on="0"/>
        <pt x="1518" y="-372" on="1"/>
        <pt x="1518" y="-359" on="0"/>
        <pt x="1531" y="-335" on="1"/>
        <pt x="1548" y="-301" on="0"/>
        <pt x="1574" y="-301" on="1"/>
        <pt x="1587" y="-301" on="0"/>
        <pt x="1654" y="-331" on="0"/>
        <pt x="1667" y="-331" on="1"/>
        <pt x="1677" y="-331" on="0"/>
        <pt x="1728" y="-301" on="0"/>
        <pt x="1743" y="-301" on="1"/>
        <pt x="1779" y="-301" on="0"/>
        <pt x="1809" y="-329" on="1"/>
        <pt x="1836" y="-354" on="0"/>
      </contour>
      <contour>
        <pt x="1641" y="190" on="1"/>
        <pt x="1641" y="70" on="0"/>
        <pt x="1577" y="39" on="1"/>
        <pt x="1529" y="25" on="0"/>
        <pt x="1454" y="-7" on="1"/>
        <pt x="1429" y="-22" on="0"/>
        <pt x="1370" y="-124" on="1"/>
        <pt x="1267" y="-303" on="0"/>
        <pt x="1125" y="-329" on="1"/>
        <pt x="1055" y="-342" on="0"/>
        <pt x="1032" y="-342" on="1"/>
        <pt x="998" y="-342" on="0"/>
        <pt x="804" y="-308" on="1"/>
        <pt x="791" y="-298" on="0"/>
        <pt x="771" y="-268" on="1"/>
        <pt x="845" y="-262" on="0"/>
        <pt x="990" y="-247" on="1"/>
        <pt x="1071" y="-237" on="0"/>
        <pt x="1159" y="-188" on="1"/>
        <pt x="1257" y="-131" on="0"/>
        <pt x="1314" y="-51" on="1"/>
        <pt x="1289" y="-32" on="0"/>
        <pt x="1161" y="-4" on="0"/>
        <pt x="1139" y="12" on="1"/>
        <pt x="1098" y="40" on="0"/>
        <pt x="1098" y="103" on="1"/>
        <pt x="1098" y="159" on="0"/>
        <pt x="1145" y="233" on="1"/>
        <pt x="1195" y="313" on="0"/>
        <pt x="1247" y="313" on="1"/>
        <pt x="1306" y="313" on="0"/>
        <pt x="1406" y="129" on="0"/>
        <pt x="1447" y="129" on="1"/>
        <pt x="1492" y="129" on="0"/>
        <pt x="1539" y="165" on="1"/>
        <pt x="1533" y="193" on="0"/>
        <pt x="1504" y="257" on="1"/>
        <pt x="1477" y="316" on="0"/>
        <pt x="1477" y="328" on="1"/>
        <pt x="1477" y="348" on="0"/>
        <pt x="1500" y="395" on="1"/>
        <pt x="1533" y="395" on="1"/>
        <pt x="1577" y="395" on="0"/>
        <pt x="1612" y="312" on="1"/>
        <pt x="1641" y="242" on="0"/>
      </contour>
      <contour>
        <pt x="955" y="98" on="1"/>
        <pt x="955" y="54" on="0"/>
        <pt x="928" y="4" on="1"/>
        <pt x="897" y="-55" on="0"/>
        <pt x="853" y="-55" on="1"/>
        <pt x="843" y="-55" on="0"/>
        <pt x="728" y="-14" on="0"/>
        <pt x="714" y="-14" on="1"/>
        <pt x="704" y="-14" on="0"/>
        <pt x="633" y="-67" on="1"/>
        <pt x="555" y="-123" on="0"/>
        <pt x="522" y="-134" on="1"/>
        <pt x="449" y="-158" on="0"/>
        <pt x="336" y="-158" on="1"/>
        <pt x="256" y="-158" on="0"/>
        <pt x="157" y="-125" on="1"/>
        <pt x="157" y="-104" on="0"/>
        <pt x="180" y="-90" on="1"/>
        <pt x="423" y="-45" on="1"/>
        <pt x="568" y="-13" on="0"/>
        <pt x="626" y="35" on="1"/>
        <pt x="627" y="36" on="0"/>
        <pt x="651" y="105" on="1"/>
        <pt x="660" y="131" on="0"/>
        <pt x="727" y="236" on="1"/>
        <pt x="804" y="339" on="0"/>
        <pt x="868" y="324" on="1"/>
        <pt x="917" y="287" on="0"/>
        <pt x="955" y="146" on="0"/>
      </contour>
      <contour>
        <pt x="689" y="-346" on="1"/>
        <pt x="675" y="-403" on="0"/>
        <pt x="578" y="-433" on="1"/>
        <pt x="419" y="-472" on="1"/>
        <pt x="225" y="-536" on="0"/>
        <pt x="201" y="-536" on="1"/>
        <pt x="149" y="-536" on="1"/>
        <pt x="126" y="-512" on="0"/>
        <pt x="126" y="-500" on="1"/>
        <pt x="126" y="-484" on="0"/>
        <pt x="137" y="-473" on="1"/>
        <pt x="144" y="-466" on="0"/>
        <pt x="151" y="-460" on="1"/>
        <pt x="260" y="-414" on="0"/>
        <pt x="355" y="-397" on="1"/>
        <pt x="403" y="-388" on="0"/>
        <pt x="518" y="-353" on="1"/>
        <pt x="622" y="-321" on="0"/>
        <pt x="634" y="-321" on="1"/>
        <pt x="666" y="-321" on="1"/>
      </contour>
      <contour>
        <pt x="869" y="102" on="1"/>
        <pt x="842" y="218" on="0"/>
        <pt x="774" y="147" on="1"/>
        <pt x="813" y="116" on="0"/>
      </contour>
      <contour>
        <pt x="1239" y="196" on="1"/>
        <pt x="1209" y="189" on="0"/>
        <pt x="1190" y="162" on="1"/>
        <pt x="1230" y="130" on="0"/>
        <pt x="1302" y="135" on="1"/>
        <pt x="1274" y="181" on="0"/>
      </contour>
    </TTGlyph>
    <TTGlyph name="uniFB60" xMin="179" yMin="-471" xMax="3508" yMax="1296">
      <contour>
        <pt x="3480" y="169" on="1"/>
        <pt x="3480" y="136" on="0"/>
        <pt x="3448" y="83" on="1"/>
        <pt x="3421" y="72" on="1"/>
        <pt x="3266" y="782" on="1"/>
        <pt x="3263" y="813" on="0"/>
        <pt x="3300" y="870" on="1"/>
        <pt x="3344" y="831" on="0"/>
        <pt x="3370" y="724" on="1"/>
        <pt x="3401" y="569" on="1"/>
        <pt x="3480" y="265" on="0"/>
      </contour>
      <contour>
        <pt x="2692" y="1116" on="1"/>
        <pt x="2692" y="1083" on="0"/>
        <pt x="2667" y="1040" on="1"/>
        <pt x="2637" y="990" on="0"/>
        <pt x="2595" y="985" on="1"/>
        <pt x="2575" y="985" on="0"/>
        <pt x="2534" y="979" on="1"/>
        <pt x="2467" y="963" on="0"/>
        <pt x="2477" y="963" on="1"/>
        <pt x="2415" y="963" on="0"/>
        <pt x="2415" y="1024" on="1"/>
        <pt x="2415" y="1065" on="0"/>
        <pt x="2449" y="1115" on="1"/>
        <pt x="2487" y="1115" on="0"/>
        <pt x="2487" y="1081" on="1"/>
        <pt x="2485" y="1074" on="0"/>
        <pt x="2494" y="1064" on="1"/>
        <pt x="2531" y="1066" on="0"/>
        <pt x="2538" y="1098" on="1"/>
        <pt x="2542" y="1147" on="1"/>
        <pt x="2549" y="1152" on="0"/>
        <pt x="2576" y="1167" on="1"/>
        <pt x="2581" y="1157" on="0"/>
        <pt x="2602" y="1105" on="0"/>
        <pt x="2607" y="1094" on="1"/>
        <pt x="2637" y="1098" on="0"/>
        <pt x="2640" y="1130" on="1"/>
        <pt x="2643" y="1167" on="0"/>
        <pt x="2669" y="1177" on="1"/>
        <pt x="2692" y="1130" on="0"/>
      </contour>
      <contour>
        <pt x="3163" y="143" on="1"/>
        <pt x="3163" y="-72" on="0"/>
        <pt x="3000" y="-72" on="1"/>
        <pt x="2932" y="-72" on="0"/>
        <pt x="2873" y="-18" on="1"/>
        <pt x="2759" y="102" on="1"/>
        <pt x="2665" y="-10" on="0"/>
        <pt x="2456" y="-10" on="1"/>
        <pt x="2411" y="-10" on="0"/>
        <pt x="2344" y="39" on="0"/>
        <pt x="2344" y="71" on="1"/>
        <pt x="2344" y="100" on="0"/>
        <pt x="2368" y="123" on="1"/>
        <pt x="2388" y="143" on="0"/>
        <pt x="2406" y="143" on="1"/>
        <pt x="2418" y="143" on="0"/>
        <pt x="2531" y="133" on="0"/>
        <pt x="2543" y="133" on="1"/>
        <pt x="2578" y="133" on="0"/>
        <pt x="2644" y="160" on="1"/>
        <pt x="2723" y="193" on="0"/>
        <pt x="2723" y="230" on="1"/>
        <pt x="2723" y="239" on="0"/>
        <pt x="2672" y="413" on="0"/>
        <pt x="2672" y="430" on="1"/>
        <pt x="2672" y="469" on="0"/>
        <pt x="2707" y="522" on="1"/>
        <pt x="2741" y="487" on="0"/>
        <pt x="2786" y="361" on="1"/>
        <pt x="2838" y="217" on="0"/>
        <pt x="2869" y="166" on="1"/>
        <pt x="2929" y="71" on="0"/>
        <pt x="3014" y="71" on="1"/>
        <pt x="3042" y="71" on="0"/>
        <pt x="3081" y="108" on="1"/>
        <pt x="3081" y="192" on="0"/>
        <pt x="3045" y="373" on="1"/>
        <pt x="2985" y="659" on="1"/>
        <pt x="2981" y="680" on="0"/>
        <pt x="2954" y="750" on="1"/>
        <pt x="2927" y="814" on="0"/>
        <pt x="2927" y="829" on="1"/>
        <pt x="2927" y="898" on="0"/>
        <pt x="2981" y="992" on="1"/>
        <pt x="3003" y="991" on="0"/>
        <pt x="3014" y="932" on="1"/>
        <pt x="3029" y="857" on="0"/>
        <pt x="3042" y="837" on="1"/>
        <pt x="3048" y="828" on="0"/>
        <pt x="3109" y="797" on="1"/>
        <pt x="3122" y="785" on="0"/>
        <pt x="3122" y="752" on="1"/>
        <pt x="3122" y="740" on="0"/>
        <pt x="3081" y="637" on="0"/>
        <pt x="3081" y="624" on="1"/>
        <pt x="3081" y="612" on="0"/>
        <pt x="3163" y="156" on="0"/>
      </contour>
      <contour>
        <pt x="2805" y="-316" on="1"/>
        <pt x="2768" y="-340" on="0"/>
        <pt x="2452" y="-471" on="0"/>
        <pt x="2429" y="-470" on="1"/>
        <pt x="2365" y="-470" on="1"/>
        <pt x="2365" y="-422" on="1"/>
        <pt x="2396" y="-398" on="0"/>
        <pt x="2460" y="-362" on="1"/>
        <pt x="2481" y="-355" on="0"/>
        <pt x="2628" y="-303" on="1"/>
        <pt x="2735" y="-266" on="0"/>
        <pt x="2750" y="-266" on="1"/>
        <pt x="2791" y="-266" on="1"/>
        <pt x="2805" y="-279" on="1"/>
      </contour>
      <contour>
        <pt x="2354" y="-194" on="1"/>
        <pt x="2354" y="-215" on="0"/>
        <pt x="2307" y="-256" on="0"/>
        <pt x="2288" y="-256" on="1"/>
        <pt x="2275" y="-256" on="0"/>
        <pt x="2208" y="-225" on="0"/>
        <pt x="2195" y="-225" on="1"/>
        <pt x="2183" y="-225" on="0"/>
        <pt x="2111" y="-266" on="0"/>
        <pt x="2098" y="-266" on="1"/>
        <pt x="2062" y="-266" on="0"/>
        <pt x="2016" y="-223" on="1"/>
        <pt x="2016" y="-176" on="1"/>
        <pt x="2062" y="-133" on="0"/>
        <pt x="2083" y="-133" on="1"/>
        <pt x="2096" y="-133" on="0"/>
        <pt x="2162" y="-163" on="0"/>
        <pt x="2175" y="-163" on="1"/>
        <pt x="2185" y="-163" on="0"/>
        <pt x="2246" y="-113" on="0"/>
        <pt x="2262" y="-113" on="1"/>
        <pt x="2299" y="-113" on="0"/>
        <pt x="2329" y="-145" on="1"/>
        <pt x="2354" y="-173" on="0"/>
      </contour>
      <contour>
        <pt x="1382" y="401" on="1"/>
        <pt x="1350" y="369" on="0"/>
        <pt x="1325" y="369" on="1"/>
        <pt x="1296" y="369" on="0"/>
        <pt x="1248" y="414" on="0"/>
        <pt x="1248" y="435" on="1"/>
        <pt x="1248" y="455" on="0"/>
        <pt x="1283" y="512" on="0"/>
        <pt x="1300" y="512" on="1"/>
        <pt x="1336" y="512" on="0"/>
        <pt x="1382" y="469" on="1"/>
      </contour>
      <contour>
        <pt x="2426" y="476" on="1"/>
        <pt x="2426" y="442" on="0"/>
        <pt x="2407" y="390" on="1"/>
        <pt x="2386" y="330" on="0"/>
        <pt x="2361" y="320" on="1"/>
        <pt x="2321" y="312" on="0"/>
        <pt x="2249" y="283" on="1"/>
        <pt x="2226" y="267" on="0"/>
        <pt x="2179" y="169" on="1"/>
        <pt x="2134" y="74" on="0"/>
        <pt x="2065" y="34" on="1"/>
        <pt x="1922" y="-49" on="0"/>
        <pt x="1717" y="-98" on="1"/>
        <pt x="1530" y="-143" on="0"/>
        <pt x="1361" y="-143" on="1"/>
        <pt x="1352" y="-143" on="0"/>
        <pt x="1023" y="-122" on="0"/>
        <pt x="1008" y="-122" on="1"/>
        <pt x="819" y="-122" on="0"/>
        <pt x="533" y="5" on="1"/>
        <pt x="251" y="130" on="0"/>
        <pt x="184" y="238" on="1"/>
        <pt x="179" y="276" on="0"/>
        <pt x="219" y="276" on="1"/>
        <pt x="227" y="276" on="0"/>
        <pt x="369" y="211" on="1"/>
        <pt x="527" y="138" on="0"/>
        <pt x="600" y="115" on="1"/>
        <pt x="968" y="0" on="0"/>
        <pt x="1219" y="0" on="1"/>
        <pt x="1441" y="0" on="1"/>
        <pt x="1604" y="0" on="0"/>
        <pt x="1835" y="66" on="1"/>
        <pt x="2129" y="148" on="0"/>
        <pt x="2129" y="266" on="1"/>
        <pt x="2129" y="277" on="0"/>
        <pt x="2078" y="406" on="0"/>
        <pt x="2078" y="419" on="1"/>
        <pt x="2078" y="438" on="0"/>
        <pt x="2111" y="481" on="0"/>
        <pt x="2129" y="481" on="1"/>
        <pt x="2142" y="481" on="0"/>
        <pt x="2239" y="430" on="0"/>
        <pt x="2252" y="430" on="1"/>
        <pt x="2266" y="430" on="0"/>
        <pt x="2293" y="445" on="1"/>
        <pt x="2322" y="461" on="0"/>
        <pt x="2316" y="473" on="1"/>
        <pt x="2302" y="490" on="0"/>
        <pt x="2302" y="544" on="1"/>
        <pt x="2302" y="614" on="0"/>
        <pt x="2349" y="614" on="1"/>
        <pt x="2384" y="614" on="0"/>
        <pt x="2407" y="560" on="1"/>
        <pt x="2426" y="517" on="0"/>
      </contour>
      <contour>
        <pt x="1012" y="-263" on="1"/>
        <pt x="670" y="-451" on="0"/>
        <pt x="628" y="-449" on="1"/>
        <pt x="553" y="-449" on="1"/>
        <pt x="553" y="-446" on="0"/>
        <pt x="542" y="-434" on="0"/>
        <pt x="542" y="-420" on="1"/>
        <pt x="542" y="-383" on="0"/>
        <pt x="988" y="-204" on="1"/>
        <pt x="1002" y="-217" on="0"/>
        <pt x="1012" y="-217" on="1"/>
      </contour>
      <contour>
        <pt x="3508" y="1230" on="1"/>
        <pt x="3508" y="1160" on="0"/>
        <pt x="3435" y="1111" on="1"/>
        <pt x="3373" y="1071" on="0"/>
        <pt x="3319" y="1071" on="1"/>
        <pt x="3308" y="1071" on="0"/>
        <pt x="3207" y="1102" on="0"/>
        <pt x="3196" y="1102" on="1"/>
        <pt x="3185" y="1102" on="0"/>
        <pt x="3131" y="1083" on="0"/>
        <pt x="3121" y="1083" on="1"/>
        <pt x="3126" y="1108" on="0"/>
        <pt x="3185" y="1173" on="0"/>
        <pt x="3208" y="1180" on="1"/>
        <pt x="3234" y="1178" on="0"/>
        <pt x="3286" y="1185" on="1"/>
        <pt x="3357" y="1250" on="1"/>
        <pt x="3414" y="1296" on="0"/>
        <pt x="3447" y="1296" on="1"/>
        <pt x="3508" y="1296" on="0"/>
      </contour>
      <contour>
        <pt x="3362" y="1184" on="1"/>
        <pt x="3406" y="1165" on="0"/>
        <pt x="3442" y="1186" on="1"/>
        <pt x="3422" y="1237" on="0"/>
      </contour>
    </TTGlyph>
    <TTGlyph name="uniFB61" xMin="9" yMin="-459" xMax="1916" yMax="1310">
      <contour>
        <pt x="1810" y="753" on="1"/>
        <pt x="1779" y="735" on="1"/>
        <pt x="1779" y="743" on="0"/>
        <pt x="1769" y="763" on="1"/>
        <pt x="1715" y="809" on="0"/>
        <pt x="1636" y="891" on="1"/>
        <pt x="1578" y="972" on="0"/>
        <pt x="1572" y="1058" on="1"/>
        <pt x="1509" y="1044" on="0"/>
        <pt x="1509" y="907" on="1"/>
        <pt x="1509" y="841" on="0"/>
        <pt x="1524" y="804" on="1"/>
        <pt x="1485" y="836" on="1"/>
        <pt x="1478" y="872" on="0"/>
        <pt x="1478" y="908" on="1"/>
        <pt x="1478" y="1079" on="0"/>
        <pt x="1596" y="1113" on="1"/>
        <pt x="1598" y="1000" on="0"/>
        <pt x="1664" y="912" on="1"/>
        <pt x="1725" y="861" on="0"/>
        <pt x="1805" y="768" on="1"/>
        <pt x="1810" y="745" on="0"/>
      </contour>
      <contour>
        <pt x="1642" y="403" on="1"/>
        <pt x="1642" y="122" on="0"/>
        <pt x="1244" y="-276" on="0"/>
        <pt x="963" y="-276" on="1"/>
        <pt x="682" y="-276" on="0"/>
        <pt x="283" y="122" on="0"/>
        <pt x="283" y="403" on="1"/>
        <pt x="283" y="676" on="0"/>
        <pt x="474" y="872" on="1"/>
        <pt x="635" y="1038" on="0"/>
        <pt x="822" y="1067" on="1"/>
        <pt x="861" y="1072" on="0"/>
        <pt x="893" y="1099" on="1"/>
        <pt x="931" y="1131" on="0"/>
        <pt x="931" y="1173" on="1"/>
        <pt x="931" y="1217" on="0"/>
        <pt x="866" y="1282" on="0"/>
        <pt x="822" y="1282" on="1"/>
        <pt x="777" y="1282" on="0"/>
        <pt x="711" y="1217" on="0"/>
        <pt x="711" y="1173" on="1"/>
        <pt x="711" y="1121" on="0"/>
        <pt x="752" y="1087" on="1"/>
        <pt x="668" y="1077" on="0"/>
        <pt x="566" y="1035" on="1"/>
        <pt x="496" y="1006" on="0"/>
        <pt x="446" y="958" on="1"/>
        <pt x="411" y="962" on="1"/>
        <pt x="459" y="1017" on="0"/>
        <pt x="562" y="1064" on="1"/>
        <pt x="611" y="1086" on="0"/>
        <pt x="705" y="1105" on="1"/>
        <pt x="683" y="1139" on="0"/>
        <pt x="683" y="1181" on="1"/>
        <pt x="683" y="1238" on="0"/>
        <pt x="727" y="1275" on="1"/>
        <pt x="768" y="1310" on="0"/>
        <pt x="822" y="1310" on="1"/>
        <pt x="877" y="1310" on="0"/>
        <pt x="919" y="1273" on="1"/>
        <pt x="963" y="1234" on="0"/>
        <pt x="963" y="1179" on="1"/>
        <pt x="963" y="1119" on="0"/>
        <pt x="917" y="1081" on="1"/>
        <pt x="934" y="1082" on="0"/>
        <pt x="963" y="1082" on="1"/>
        <pt x="993" y="1082" on="0"/>
        <pt x="1008" y="1081" on="1"/>
        <pt x="963" y="1119" on="0"/>
        <pt x="963" y="1179" on="1"/>
        <pt x="963" y="1235" on="0"/>
        <pt x="1006" y="1273" on="1"/>
        <pt x="1047" y="1310" on="0"/>
        <pt x="1103" y="1310" on="1"/>
        <pt x="1158" y="1310" on="0"/>
        <pt x="1198" y="1275" on="1"/>
        <pt x="1244" y="1238" on="0"/>
        <pt x="1244" y="1181" on="1"/>
        <pt x="1244" y="1139" on="0"/>
        <pt x="1221" y="1105" on="1"/>
        <pt x="1312" y="1087" on="0"/>
        <pt x="1363" y="1064" on="1"/>
        <pt x="1466" y="1018" on="0"/>
        <pt x="1514" y="962" on="1"/>
        <pt x="1481" y="958" on="1"/>
        <pt x="1426" y="1008" on="0"/>
        <pt x="1359" y="1035" on="1"/>
        <pt x="1254" y="1078" on="0"/>
        <pt x="1172" y="1087" on="1"/>
        <pt x="1212" y="1120" on="0"/>
        <pt x="1212" y="1173" on="1"/>
        <pt x="1212" y="1217" on="0"/>
        <pt x="1149" y="1282" on="0"/>
        <pt x="1103" y="1282" on="1"/>
        <pt x="1059" y="1282" on="0"/>
        <pt x="994" y="1217" on="0"/>
        <pt x="994" y="1173" on="1"/>
        <pt x="994" y="1131" on="0"/>
        <pt x="1032" y="1099" on="1"/>
        <pt x="1064" y="1072" on="0"/>
        <pt x="1103" y="1067" on="1"/>
        <pt x="1291" y="1038" on="0"/>
        <pt x="1452" y="872" on="1"/>
        <pt x="1642" y="676" on="0"/>
      </contour>
      <contour>
        <pt x="442" y="836" on="1"/>
        <pt x="400" y="800" on="0"/>
        <pt x="401" y="804" on="1"/>
        <pt x="416" y="841" on="0"/>
        <pt x="416" y="908" on="1"/>
        <pt x="416" y="1044" on="0"/>
        <pt x="354" y="1058" on="1"/>
        <pt x="349" y="971" on="0"/>
        <pt x="291" y="891" on="1"/>
        <pt x="237" y="845" on="0"/>
        <pt x="155" y="763" on="1"/>
        <pt x="146" y="743" on="0"/>
        <pt x="146" y="735" on="1"/>
        <pt x="116" y="753" on="1"/>
        <pt x="116" y="760" on="0"/>
        <pt x="122" y="768" on="1"/>
        <pt x="132" y="791" on="0"/>
        <pt x="187" y="840" on="1"/>
        <pt x="250" y="894" on="0"/>
        <pt x="263" y="912" on="1"/>
        <pt x="326" y="997" on="0"/>
        <pt x="331" y="1113" on="1"/>
        <pt x="449" y="1079" on="0"/>
        <pt x="449" y="907" on="1"/>
        <pt x="449" y="872" on="0"/>
      </contour>
      <contour>
        <pt x="1916" y="800" on="1"/>
        <pt x="1865" y="724" on="0"/>
        <pt x="1871" y="586" on="1"/>
        <pt x="1887" y="529" on="0"/>
        <pt x="1907" y="425" on="1"/>
        <pt x="1908" y="398" on="0"/>
        <pt x="1861" y="343" on="0"/>
        <pt x="1836" y="343" on="1"/>
        <pt x="1801" y="343" on="0"/>
        <pt x="1783" y="361" on="1"/>
        <pt x="1783" y="21" on="0"/>
        <pt x="1303" y="-459" on="0"/>
        <pt x="963" y="-459" on="1"/>
        <pt x="623" y="-459" on="0"/>
        <pt x="142" y="21" on="0"/>
        <pt x="142" y="361" on="1"/>
        <pt x="125" y="343" on="0"/>
        <pt x="90" y="343" on="1"/>
        <pt x="66" y="343" on="0"/>
        <pt x="17" y="398" on="0"/>
        <pt x="18" y="425" on="1"/>
        <pt x="35" y="480" on="0"/>
        <pt x="54" y="586" on="1"/>
        <pt x="60" y="724" on="0"/>
        <pt x="9" y="800" on="1"/>
        <pt x="158" y="790" on="0"/>
        <pt x="204" y="679" on="1"/>
        <pt x="201" y="588" on="1"/>
        <pt x="197" y="643" on="0"/>
        <pt x="164" y="692" on="1"/>
        <pt x="122" y="755" on="0"/>
        <pt x="57" y="759" on="1"/>
        <pt x="86" y="715" on="0"/>
        <pt x="86" y="586" on="1"/>
        <pt x="86" y="562" on="0"/>
        <pt x="54" y="455" on="0"/>
        <pt x="53" y="435" on="1"/>
        <pt x="50" y="378" on="0"/>
        <pt x="106" y="378" on="1"/>
        <pt x="134" y="378" on="0"/>
        <pt x="160" y="417" on="1"/>
        <pt x="176" y="439" on="1"/>
        <pt x="172" y="392" on="0"/>
        <pt x="172" y="361" on="1"/>
        <pt x="172" y="39" on="0"/>
        <pt x="639" y="-419" on="0"/>
        <pt x="963" y="-419" on="1"/>
        <pt x="1287" y="-419" on="0"/>
        <pt x="1755" y="39" on="0"/>
        <pt x="1755" y="361" on="1"/>
        <pt x="1755" y="392" on="0"/>
        <pt x="1751" y="439" on="1"/>
        <pt x="1767" y="417" on="1"/>
        <pt x="1792" y="378" on="0"/>
        <pt x="1819" y="378" on="1"/>
        <pt x="1877" y="378" on="0"/>
        <pt x="1873" y="435" on="1"/>
        <pt x="1873" y="455" on="0"/>
        <pt x="1839" y="562" on="0"/>
        <pt x="1839" y="586" on="1"/>
        <pt x="1839" y="714" on="0"/>
        <pt x="1869" y="759" on="1"/>
        <pt x="1805" y="755" on="0"/>
        <pt x="1762" y="692" on="1"/>
        <pt x="1729" y="642" on="0"/>
        <pt x="1724" y="588" on="1"/>
        <pt x="1723" y="679" on="1"/>
        <pt x="1768" y="790" on="0"/>
      </contour>
      <contour>
        <pt x="1608" y="403" on="1"/>
        <pt x="1608" y="668" on="0"/>
        <pt x="1429" y="851" on="1"/>
        <pt x="1288" y="993" on="0"/>
        <pt x="1106" y="1035" on="1"/>
        <pt x="1046" y="1049" on="0"/>
        <pt x="963" y="1049" on="1"/>
        <pt x="880" y="1049" on="0"/>
        <pt x="820" y="1035" on="1"/>
        <pt x="638" y="993" on="0"/>
        <pt x="498" y="850" on="1"/>
        <pt x="319" y="668" on="0"/>
        <pt x="319" y="403" on="1"/>
        <pt x="319" y="134" on="0"/>
        <pt x="694" y="-242" on="0"/>
        <pt x="963" y="-242" on="1"/>
        <pt x="1232" y="-242" on="0"/>
        <pt x="1608" y="134" on="0"/>
      </contour>
      <contour>
        <pt x="1111" y="247" on="1"/>
        <pt x="1111" y="205" on="0"/>
        <pt x="1046" y="174" on="1"/>
        <pt x="995" y="149" on="0"/>
        <pt x="963" y="149" on="1"/>
        <pt x="921" y="149" on="0"/>
        <pt x="899" y="165" on="1"/>
        <pt x="890" y="184" on="1"/>
        <pt x="882" y="204" on="0"/>
        <pt x="882" y="215" on="1"/>
        <pt x="882" y="218" on="0"/>
        <pt x="892" y="265" on="1"/>
        <pt x="900" y="304" on="0"/>
        <pt x="892" y="327" on="1"/>
        <pt x="890" y="333" on="0"/>
        <pt x="871" y="356" on="1"/>
        <pt x="855" y="374" on="0"/>
        <pt x="855" y="400" on="1"/>
        <pt x="855" y="467" on="0"/>
        <pt x="961" y="569" on="1"/>
        <pt x="996" y="569" on="1"/>
        <pt x="1008" y="567" on="0"/>
        <pt x="1008" y="543" on="1"/>
        <pt x="1008" y="531" on="0"/>
        <pt x="967" y="469" on="0"/>
        <pt x="967" y="456" on="1"/>
        <pt x="967" y="439" on="0"/>
        <pt x="1017" y="397" on="0"/>
        <pt x="1017" y="372" on="1"/>
        <pt x="1017" y="340" on="0"/>
        <pt x="988" y="286" on="1"/>
        <pt x="988" y="262" on="0"/>
        <pt x="1019" y="262" on="1"/>
        <pt x="1045" y="262" on="0"/>
        <pt x="1086" y="283" on="1"/>
        <pt x="1111" y="257" on="0"/>
      </contour>
    </TTGlyph>
    <TTGlyph name="uniFB62" xMin="267" yMin="-466" xMax="2335" yMax="1417">
      <contour>
        <pt x="1894" y="1366" on="1"/>
        <pt x="1744" y="1281" on="0"/>
        <pt x="1508" y="1172" on="1"/>
        <pt x="1508" y="1175" on="0"/>
        <pt x="1496" y="1192" on="0"/>
        <pt x="1496" y="1207" on="1"/>
        <pt x="1496" y="1252" on="0"/>
        <pt x="1848" y="1416" on="1"/>
        <pt x="1894" y="1406" on="1"/>
      </contour>
      <contour>
        <pt x="1833" y="956" on="1"/>
        <pt x="1833" y="885" on="0"/>
        <pt x="1749" y="839" on="1"/>
        <pt x="1683" y="803" on="0"/>
        <pt x="1624" y="803" on="1"/>
        <pt x="1578" y="803" on="0"/>
        <pt x="1578" y="864" on="1"/>
        <pt x="1578" y="912" on="0"/>
        <pt x="1611" y="945" on="1"/>
        <pt x="1624" y="945" on="0"/>
        <pt x="1655" y="915" on="1"/>
        <pt x="1678" y="927" on="0"/>
        <pt x="1702" y="976" on="1"/>
        <pt x="1728" y="976" on="0"/>
        <pt x="1748" y="936" on="1"/>
        <pt x="1765" y="940" on="0"/>
        <pt x="1783" y="963" on="1"/>
        <pt x="1805" y="989" on="0"/>
        <pt x="1819" y="997" on="1"/>
        <pt x="1833" y="982" on="0"/>
      </contour>
      <contour>
        <pt x="2141" y="316" on="1"/>
        <pt x="2141" y="263" on="0"/>
        <pt x="2127" y="172" on="1"/>
        <pt x="2117" y="116" on="0"/>
        <pt x="2095" y="117" on="1"/>
        <pt x="2060" y="117" on="1"/>
        <pt x="1966" y="838" on="1"/>
        <pt x="1964" y="885" on="0"/>
        <pt x="2000" y="955" on="1"/>
        <pt x="2026" y="955" on="0"/>
        <pt x="2034" y="943" on="1"/>
        <pt x="2048" y="839" on="0"/>
        <pt x="2082" y="635" on="1"/>
        <pt x="2141" y="334" on="0"/>
      </contour>
      <contour>
        <pt x="1035" y="1386" on="1"/>
        <pt x="1035" y="1317" on="0"/>
        <pt x="620" y="1181" on="1"/>
        <pt x="605" y="1181" on="0"/>
        <pt x="578" y="1193" on="0"/>
        <pt x="575" y="1193" on="1"/>
        <pt x="575" y="1230" on="1"/>
        <pt x="604" y="1267" on="0"/>
        <pt x="790" y="1345" on="1"/>
        <pt x="963" y="1417" on="0"/>
        <pt x="980" y="1416" on="1"/>
        <pt x="1012" y="1416" on="1"/>
        <pt x="1019" y="1411" on="0"/>
        <pt x="1035" y="1402" on="0"/>
      </contour>
      <contour>
        <pt x="1854" y="168" on="1"/>
        <pt x="1854" y="147" on="0"/>
        <pt x="1839" y="100" on="1"/>
        <pt x="1823" y="48" on="0"/>
        <pt x="1808" y="29" on="1"/>
        <pt x="1794" y="16" on="0"/>
        <pt x="1758" y="-3" on="1"/>
        <pt x="1671" y="-27" on="0"/>
        <pt x="1598" y="-27" on="1"/>
        <pt x="1584" y="-27" on="0"/>
        <pt x="1536" y="-2" on="1"/>
        <pt x="1485" y="23" on="0"/>
        <pt x="1478" y="38" on="1"/>
        <pt x="1441" y="114" on="0"/>
        <pt x="1426" y="213" on="1"/>
        <pt x="1342" y="800" on="0"/>
        <pt x="1342" y="854" on="1"/>
        <pt x="1342" y="878" on="0"/>
        <pt x="1365" y="925" on="1"/>
        <pt x="1400" y="925" on="1"/>
        <pt x="1434" y="903" on="0"/>
        <pt x="1453" y="786" on="1"/>
        <pt x="1481" y="583" on="1"/>
        <pt x="1493" y="481" on="0"/>
        <pt x="1522" y="276" on="1"/>
        <pt x="1533" y="212" on="0"/>
        <pt x="1534" y="208" on="1"/>
        <pt x="1548" y="155" on="0"/>
        <pt x="1574" y="147" on="1"/>
        <pt x="1605" y="137" on="0"/>
        <pt x="1649" y="137" on="1"/>
        <pt x="1738" y="137" on="0"/>
        <pt x="1738" y="162" on="1"/>
        <pt x="1738" y="168" on="0"/>
        <pt x="1721" y="223" on="0"/>
        <pt x="1721" y="244" on="1"/>
        <pt x="1721" y="282" on="0"/>
        <pt x="1744" y="320" on="1"/>
        <pt x="1779" y="320" on="1"/>
        <pt x="1854" y="229" on="0"/>
      </contour>
      <contour>
        <pt x="2241" y="-106" on="1"/>
        <pt x="2184" y="-127" on="0"/>
        <pt x="2065" y="-179" on="1"/>
        <pt x="2030" y="-179" on="1"/>
        <pt x="2026" y="-168" on="0"/>
        <pt x="2005" y="-126" on="1"/>
        <pt x="1987" y="-89" on="0"/>
        <pt x="1987" y="-77" on="1"/>
        <pt x="1987" y="-54" on="0"/>
        <pt x="2091" y="34" on="0"/>
        <pt x="2115" y="34" on="1"/>
        <pt x="2135" y="34" on="0"/>
        <pt x="2160" y="12" on="1"/>
        <pt x="2160" y="-35" on="1"/>
        <pt x="2145" y="-43" on="0"/>
        <pt x="2120" y="-61" on="1"/>
        <pt x="2173" y="-74" on="0"/>
        <pt x="2241" y="-59" on="1"/>
      </contour>
      <contour>
        <pt x="2335" y="-312" on="1"/>
        <pt x="2249" y="-367" on="0"/>
        <pt x="1940" y="-466" on="1"/>
        <pt x="1932" y="-462" on="0"/>
        <pt x="1915" y="-452" on="0"/>
        <pt x="1915" y="-436" on="1"/>
        <pt x="1915" y="-394" on="0"/>
        <pt x="1949" y="-379" on="1"/>
        <pt x="2022" y="-346" on="0"/>
        <pt x="2142" y="-303" on="1"/>
        <pt x="2260" y="-262" on="0"/>
        <pt x="2280" y="-262" on="1"/>
        <pt x="2322" y="-262" on="1"/>
        <pt x="2335" y="-275" on="1"/>
      </contour>
      <contour>
        <pt x="1854" y="-277" on="1"/>
        <pt x="1854" y="-294" on="0"/>
        <pt x="1796" y="-344" on="0"/>
        <pt x="1777" y="-344" on="1"/>
        <pt x="1766" y="-344" on="0"/>
        <pt x="1717" y="-323" on="0"/>
        <pt x="1706" y="-323" on="1"/>
        <pt x="1692" y="-323" on="0"/>
        <pt x="1631" y="-354" on="0"/>
        <pt x="1619" y="-354" on="1"/>
        <pt x="1592" y="-354" on="0"/>
        <pt x="1564" y="-321" on="1"/>
        <pt x="1537" y="-289" on="0"/>
        <pt x="1537" y="-267" on="1"/>
        <pt x="1537" y="-251" on="0"/>
        <pt x="1596" y="-200" on="0"/>
        <pt x="1613" y="-200" on="1"/>
        <pt x="1626" y="-200" on="0"/>
        <pt x="1677" y="-221" on="0"/>
        <pt x="1690" y="-221" on="1"/>
        <pt x="1701" y="-221" on="0"/>
        <pt x="1759" y="-200" on="0"/>
        <pt x="1772" y="-200" on="1"/>
        <pt x="1799" y="-200" on="0"/>
        <pt x="1854" y="-255" on="0"/>
      </contour>
      <contour>
        <pt x="1260" y="229" on="1"/>
        <pt x="1260" y="212" on="0"/>
        <pt x="1239" y="141" on="1"/>
        <pt x="1218" y="65" on="0"/>
        <pt x="1206" y="58" on="1"/>
        <pt x="1168" y="37" on="0"/>
        <pt x="1091" y="31" on="1"/>
        <pt x="648" y="-6" on="0"/>
        <pt x="538" y="-6" on="1"/>
        <pt x="405" y="-6" on="0"/>
        <pt x="383" y="-3" on="1"/>
        <pt x="267" y="12" on="0"/>
        <pt x="267" y="80" on="1"/>
        <pt x="267" y="113" on="0"/>
        <pt x="301" y="147" on="1"/>
        <pt x="762" y="147" on="1"/>
        <pt x="775" y="147" on="0"/>
        <pt x="863" y="157" on="0"/>
        <pt x="876" y="157" on="1"/>
        <pt x="1008" y="157" on="0"/>
        <pt x="1159" y="206" on="1"/>
        <pt x="1162" y="219" on="0"/>
        <pt x="1162" y="236" on="1"/>
        <pt x="1162" y="283" on="0"/>
        <pt x="1135" y="392" on="1"/>
        <pt x="1107" y="514" on="0"/>
        <pt x="1103" y="551" on="1"/>
        <pt x="1102" y="560" on="0"/>
        <pt x="1057" y="698" on="1"/>
        <pt x="1014" y="828" on="0"/>
        <pt x="1014" y="890" on="1"/>
        <pt x="1014" y="972" on="0"/>
        <pt x="1058" y="1027" on="1"/>
        <pt x="1089" y="1025" on="0"/>
        <pt x="1098" y="990" on="1"/>
        <pt x="1108" y="932" on="1"/>
        <pt x="1114" y="915" on="0"/>
        <pt x="1177" y="853" on="0"/>
        <pt x="1185" y="839" on="1"/>
        <pt x="1184" y="835" on="0"/>
        <pt x="1169" y="788" on="1"/>
        <pt x="1158" y="754" on="0"/>
        <pt x="1160" y="736" on="1"/>
        <pt x="1170" y="639" on="0"/>
        <pt x="1216" y="430" on="1"/>
        <pt x="1260" y="233" on="0"/>
      </contour>
      <contour>
        <pt x="850" y="424" on="1"/>
        <pt x="850" y="379" on="0"/>
        <pt x="786" y="347" on="1"/>
        <pt x="737" y="321" on="0"/>
        <pt x="707" y="321" on="1"/>
        <pt x="658" y="321" on="0"/>
        <pt x="605" y="356" on="1"/>
        <pt x="611" y="363" on="0"/>
        <pt x="659" y="386" on="1"/>
        <pt x="697" y="404" on="0"/>
        <pt x="697" y="419" on="1"/>
        <pt x="697" y="430" on="0"/>
        <pt x="656" y="487" on="0"/>
        <pt x="656" y="501" on="1"/>
        <pt x="656" y="533" on="0"/>
        <pt x="693" y="579" on="1"/>
        <pt x="728" y="623" on="0"/>
        <pt x="772" y="648" on="1"/>
        <pt x="829" y="648" on="1"/>
        <pt x="829" y="645" on="0"/>
        <pt x="840" y="628" on="0"/>
        <pt x="840" y="613" on="1"/>
        <pt x="840" y="591" on="0"/>
        <pt x="778" y="549" on="1"/>
        <pt x="778" y="522" on="1"/>
        <pt x="819" y="483" on="1"/>
        <pt x="850" y="451" on="0"/>
      </contour>
    </TTGlyph>
    <TTGlyph name="uniFB63" xMin="271" yMin="-303" xMax="2667" yMax="1304">
      <contour>
        <pt x="2635" y="1257" on="1"/>
        <pt x="2636" y="1226" on="0"/>
        <pt x="2447" y="1111" on="1"/>
        <pt x="2262" y="997" on="0"/>
        <pt x="2190" y="976" on="1"/>
        <pt x="2176" y="990" on="0"/>
        <pt x="2176" y="1013" on="1"/>
        <pt x="2176" y="1056" on="0"/>
        <pt x="2257" y="1101" on="1"/>
        <pt x="2362" y="1153" on="1"/>
        <pt x="2611" y="1304" on="1"/>
        <pt x="2625" y="1293" on="0"/>
        <pt x="2635" y="1293" on="1"/>
      </contour>
      <contour>
        <pt x="2493" y="726" on="1"/>
        <pt x="2493" y="704" on="0"/>
        <pt x="2439" y="649" on="0"/>
        <pt x="2421" y="649" on="1"/>
        <pt x="2393" y="649" on="0"/>
        <pt x="2349" y="701" on="0"/>
        <pt x="2349" y="731" on="1"/>
        <pt x="2349" y="752" on="0"/>
        <pt x="2367" y="776" on="1"/>
        <pt x="2386" y="803" on="0"/>
        <pt x="2411" y="803" on="1"/>
        <pt x="2439" y="803" on="0"/>
        <pt x="2493" y="747" on="0"/>
      </contour>
      <contour>
        <pt x="2165" y="1156" on="1"/>
        <pt x="2154" y="1121" on="0"/>
        <pt x="1980" y="1008" on="0"/>
        <pt x="1934" y="1008" on="1"/>
        <pt x="1879" y="1008" on="1"/>
        <pt x="1898" y="1044" on="0"/>
        <pt x="1981" y="1109" on="1"/>
        <pt x="1980" y="1110" on="0"/>
        <pt x="1978" y="1111" on="1"/>
        <pt x="1961" y="1118" on="0"/>
        <pt x="1928" y="1117" on="1"/>
        <pt x="1863" y="1112" on="0"/>
        <pt x="1849" y="1112" on="1"/>
        <pt x="1900" y="1222" on="0"/>
        <pt x="1991" y="1222" on="1"/>
        <pt x="2022" y="1222" on="0"/>
        <pt x="2089" y="1198" on="1"/>
        <pt x="2158" y="1174" on="0"/>
      </contour>
      <contour>
        <pt x="2667" y="214" on="1"/>
        <pt x="2667" y="-16" on="0"/>
        <pt x="2426" y="-16" on="1"/>
        <pt x="2411" y="-16" on="0"/>
        <pt x="2224" y="45" on="0"/>
        <pt x="2212" y="45" on="1"/>
        <pt x="2202" y="45" on="0"/>
        <pt x="2036" y="-16" on="0"/>
        <pt x="2017" y="-16" on="1"/>
        <pt x="2005" y="-16" on="0"/>
        <pt x="1849" y="14" on="0"/>
        <pt x="1838" y="14" on="1"/>
        <pt x="1855" y="14" on="0"/>
        <pt x="1721" y="-13" on="1"/>
        <pt x="1672" y="-27" on="0"/>
        <pt x="1546" y="-54" on="1"/>
        <pt x="1411" y="-77" on="0"/>
        <pt x="1162" y="-77" on="1"/>
        <pt x="1093" y="-77" on="0"/>
        <pt x="1075" y="-75" on="1"/>
        <pt x="898" y="-49" on="0"/>
        <pt x="795" y="28" on="1"/>
        <pt x="776" y="43" on="0"/>
        <pt x="736" y="95" on="1"/>
        <pt x="704" y="137" on="0"/>
        <pt x="691" y="137" on="1"/>
        <pt x="679" y="137" on="0"/>
        <pt x="646" y="111" on="1"/>
        <pt x="610" y="84" on="0"/>
        <pt x="595" y="79" on="1"/>
        <pt x="491" y="45" on="0"/>
        <pt x="409" y="45" on="1"/>
        <pt x="271" y="45" on="0"/>
        <pt x="271" y="137" on="1"/>
        <pt x="271" y="209" on="0"/>
        <pt x="332" y="209" on="1"/>
        <pt x="346" y="209" on="0"/>
        <pt x="437" y="188" on="0"/>
        <pt x="450" y="188" on="1"/>
        <pt x="504" y="188" on="0"/>
        <pt x="569" y="213" on="1"/>
        <pt x="650" y="244" on="0"/>
        <pt x="650" y="291" on="1"/>
        <pt x="650" y="303" on="0"/>
        <pt x="599" y="523" on="0"/>
        <pt x="599" y="537" on="1"/>
        <pt x="599" y="572" on="0"/>
        <pt x="622" y="618" on="1"/>
        <pt x="663" y="618" on="0"/>
        <pt x="677" y="584" on="1"/>
        <pt x="749" y="350" on="1"/>
        <pt x="808" y="194" on="0"/>
        <pt x="921" y="119" on="1"/>
        <pt x="938" y="117" on="0"/>
        <pt x="964" y="112" on="1"/>
        <pt x="976" y="106" on="0"/>
        <pt x="1079" y="87" on="1"/>
        <pt x="1189" y="66" on="0"/>
        <pt x="1224" y="66" on="1"/>
        <pt x="1352" y="66" on="0"/>
        <pt x="1528" y="93" on="1"/>
        <pt x="1755" y="128" on="0"/>
        <pt x="1864" y="188" on="1"/>
        <pt x="1927" y="106" on="0"/>
        <pt x="1986" y="106" on="1"/>
        <pt x="2046" y="106" on="0"/>
        <pt x="2106" y="136" on="1"/>
        <pt x="2115" y="144" on="1"/>
        <pt x="2115" y="162" on="1"/>
        <pt x="2042" y="220" on="0"/>
        <pt x="2042" y="244" on="1"/>
        <pt x="2042" y="299" on="0"/>
        <pt x="2107" y="343" on="1"/>
        <pt x="2165" y="383" on="0"/>
        <pt x="2222" y="383" on="1"/>
        <pt x="2282" y="383" on="0"/>
        <pt x="2335" y="355" on="1"/>
        <pt x="2402" y="318" on="0"/>
        <pt x="2402" y="252" on="1"/>
        <pt x="2402" y="208" on="0"/>
        <pt x="2370" y="153" on="1"/>
        <pt x="2392" y="137" on="0"/>
        <pt x="2457" y="137" on="1"/>
        <pt x="2544" y="137" on="0"/>
        <pt x="2575" y="164" on="1"/>
        <pt x="2570" y="191" on="0"/>
        <pt x="2535" y="257" on="1"/>
        <pt x="2503" y="319" on="0"/>
        <pt x="2503" y="332" on="1"/>
        <pt x="2503" y="356" on="0"/>
        <pt x="2526" y="403" on="1"/>
        <pt x="2558" y="403" on="1"/>
        <pt x="2634" y="403" on="0"/>
      </contour>
      <contour>
        <pt x="1950" y="-231" on="1"/>
        <pt x="1950" y="-303" on="0"/>
        <pt x="1884" y="-303" on="1"/>
        <pt x="1851" y="-303" on="0"/>
        <pt x="1827" y="-278" on="1"/>
        <pt x="1807" y="-258" on="0"/>
        <pt x="1807" y="-241" on="1"/>
        <pt x="1807" y="-222" on="0"/>
        <pt x="1827" y="-193" on="1"/>
        <pt x="1849" y="-159" on="0"/>
        <pt x="1873" y="-159" on="1"/>
        <pt x="1903" y="-159" on="0"/>
        <pt x="1950" y="-203" on="0"/>
      </contour>
      <contour>
        <pt x="785" y="904" on="1"/>
        <pt x="785" y="853" on="0"/>
        <pt x="749" y="853" on="1"/>
        <pt x="739" y="853" on="0"/>
        <pt x="686" y="894" on="0"/>
        <pt x="672" y="894" on="1"/>
        <pt x="671" y="894" on="0"/>
        <pt x="430" y="750" on="0"/>
        <pt x="345" y="750" on="1"/>
        <pt x="318" y="750" on="0"/>
        <pt x="304" y="763" on="1"/>
        <pt x="304" y="793" on="0"/>
        <pt x="328" y="808" on="1"/>
        <pt x="600" y="899" on="0"/>
        <pt x="600" y="960" on="1"/>
        <pt x="600" y="970" on="0"/>
        <pt x="550" y="1044" on="0"/>
        <pt x="550" y="1063" on="1"/>
        <pt x="550" y="1109" on="0"/>
        <pt x="657" y="1201" on="0"/>
        <pt x="708" y="1201" on="1"/>
        <pt x="760" y="1201" on="0"/>
        <pt x="760" y="1132" on="1"/>
        <pt x="760" y="1099" on="0"/>
        <pt x="734" y="995" on="0"/>
        <pt x="734" y="996" on="1"/>
        <pt x="734" y="988" on="0"/>
        <pt x="785" y="922" on="0"/>
      </contour>
      <contour>
        <pt x="677" y="1048" on="1"/>
        <pt x="686" y="1055" on="0"/>
        <pt x="686" y="1073" on="1"/>
        <pt x="686" y="1091" on="0"/>
        <pt x="677" y="1099" on="1"/>
        <pt x="667" y="1089" on="0"/>
        <pt x="653" y="1085" on="1"/>
        <pt x="653" y="1072" on="0"/>
      </contour>
      <contour>
        <pt x="1527" y="688" on="1"/>
        <pt x="1527" y="637" on="0"/>
        <pt x="1492" y="637" on="1"/>
        <pt x="1481" y="637" on="0"/>
        <pt x="1428" y="677" on="0"/>
        <pt x="1415" y="677" on="1"/>
        <pt x="1413" y="677" on="0"/>
        <pt x="1172" y="534" on="0"/>
        <pt x="1087" y="534" on="1"/>
        <pt x="1060" y="534" on="0"/>
        <pt x="1046" y="547" on="1"/>
        <pt x="1046" y="577" on="0"/>
        <pt x="1070" y="591" on="1"/>
        <pt x="1343" y="682" on="0"/>
        <pt x="1343" y="744" on="1"/>
        <pt x="1343" y="754" on="0"/>
        <pt x="1292" y="828" on="0"/>
        <pt x="1292" y="846" on="1"/>
        <pt x="1292" y="893" on="0"/>
        <pt x="1399" y="985" on="0"/>
        <pt x="1451" y="985" on="1"/>
        <pt x="1502" y="985" on="0"/>
        <pt x="1502" y="916" on="1"/>
        <pt x="1502" y="882" on="0"/>
        <pt x="1476" y="778" on="0"/>
        <pt x="1476" y="780" on="1"/>
        <pt x="1476" y="772" on="0"/>
        <pt x="1527" y="706" on="0"/>
      </contour>
      <contour>
        <pt x="1412" y="838" on="1"/>
        <pt x="1420" y="845" on="0"/>
        <pt x="1420" y="863" on="1"/>
        <pt x="1420" y="881" on="0"/>
        <pt x="1412" y="889" on="1"/>
        <pt x="1402" y="879" on="0"/>
        <pt x="1388" y="876" on="1"/>
        <pt x="1388" y="863" on="0"/>
      </contour>
    </TTGlyph>
    <TTGlyph name="uniFB64" xMin="300" yMin="-528" xMax="3095" yMax="1407">
      <contour>
        <pt x="3044" y="1126" on="1"/>
        <pt x="3024" y="1081" on="0"/>
        <pt x="2990" y="1062" on="1"/>
        <pt x="2888" y="1004" on="0"/>
        <pt x="2608" y="864" on="1"/>
        <pt x="2573" y="898" on="1"/>
        <pt x="2569" y="929" on="0"/>
        <pt x="2606" y="951" on="1"/>
        <pt x="2937" y="1151" on="0"/>
        <pt x="2989" y="1150" on="1"/>
        <pt x="3021" y="1150" on="1"/>
      </contour>
      <contour>
        <pt x="2000" y="1371" on="1"/>
        <pt x="2000" y="1321" on="0"/>
        <pt x="1816" y="1220" on="1"/>
        <pt x="1586" y="1099" on="1"/>
        <pt x="1542" y="1099" on="1"/>
        <pt x="1529" y="1113" on="0"/>
        <pt x="1529" y="1135" on="1"/>
        <pt x="1529" y="1189" on="0"/>
        <pt x="1701" y="1281" on="1"/>
        <pt x="1942" y="1407" on="1"/>
        <pt x="1976" y="1407" on="1"/>
        <pt x="2000" y="1383" on="0"/>
      </contour>
      <contour>
        <pt x="3095" y="127" on="1"/>
        <pt x="3095" y="-4" on="0"/>
        <pt x="3007" y="-116" on="1"/>
        <pt x="2908" y="-241" on="0"/>
        <pt x="2776" y="-258" on="1"/>
        <pt x="2698" y="-266" on="0"/>
        <pt x="2631" y="-253" on="1"/>
        <pt x="2593" y="-246" on="0"/>
        <pt x="2497" y="-215" on="0"/>
        <pt x="2481" y="-195" on="1"/>
        <pt x="2494" y="-178" on="1"/>
        <pt x="2569" y="-174" on="0"/>
        <pt x="2721" y="-157" on="1"/>
        <pt x="2776" y="-147" on="0"/>
        <pt x="2866" y="-83" on="1"/>
        <pt x="2966" y="-11" on="0"/>
        <pt x="3003" y="62" on="1"/>
        <pt x="3009" y="86" on="0"/>
        <pt x="2982" y="86" on="1"/>
        <pt x="2970" y="86" on="0"/>
        <pt x="2908" y="66" on="0"/>
        <pt x="2895" y="66" on="1"/>
        <pt x="2843" y="66" on="0"/>
        <pt x="2801" y="102" on="1"/>
        <pt x="2757" y="138" on="0"/>
        <pt x="2757" y="188" on="1"/>
        <pt x="2757" y="229" on="0"/>
        <pt x="2808" y="311" on="1"/>
        <pt x="2863" y="403" on="0"/>
        <pt x="2911" y="403" on="1"/>
        <pt x="2994" y="403" on="0"/>
        <pt x="3052" y="279" on="1"/>
        <pt x="3095" y="184" on="0"/>
      </contour>
      <contour>
        <pt x="1979" y="895" on="1"/>
        <pt x="1979" y="828" on="0"/>
        <pt x="1953" y="806" on="1"/>
        <pt x="1919" y="777" on="0"/>
        <pt x="1844" y="748" on="1"/>
        <pt x="1777" y="721" on="0"/>
        <pt x="1754" y="721" on="1"/>
        <pt x="1693" y="721" on="0"/>
        <pt x="1693" y="792" on="1"/>
        <pt x="1693" y="860" on="0"/>
        <pt x="1752" y="884" on="1"/>
        <pt x="1752" y="840" on="1"/>
        <pt x="1772" y="822" on="0"/>
        <pt x="1788" y="822" on="1"/>
        <pt x="1802" y="843" on="0"/>
        <pt x="1835" y="926" on="0"/>
        <pt x="1851" y="946" on="1"/>
        <pt x="1856" y="940" on="0"/>
        <pt x="1894" y="874" on="1"/>
        <pt x="1929" y="881" on="0"/>
        <pt x="1932" y="909" on="1"/>
        <pt x="1934" y="949" on="0"/>
        <pt x="1953" y="967" on="1"/>
        <pt x="1979" y="940" on="0"/>
      </contour>
      <contour>
        <pt x="2337" y="173" on="1"/>
        <pt x="2337" y="58" on="0"/>
        <pt x="2295" y="15" on="1"/>
        <pt x="2270" y="143" on="0"/>
        <pt x="2196" y="454" on="1"/>
        <pt x="2133" y="725" on="0"/>
        <pt x="2133" y="736" on="1"/>
        <pt x="2133" y="800" on="0"/>
        <pt x="2180" y="833" on="1"/>
        <pt x="2232" y="750" on="0"/>
        <pt x="2251" y="665" on="1"/>
        <pt x="2277" y="555" on="0"/>
        <pt x="2309" y="368" on="1"/>
        <pt x="2337" y="197" on="0"/>
      </contour>
      <contour>
        <pt x="2061" y="183" on="1"/>
        <pt x="2061" y="33" on="0"/>
        <pt x="1977" y="-10" on="1"/>
        <pt x="1926" y="-36" on="0"/>
        <pt x="1775" y="-36" on="1"/>
        <pt x="1692" y="-36" on="0"/>
        <pt x="1674" y="-30" on="1"/>
        <pt x="1624" y="-12" on="0"/>
        <pt x="1603" y="69" on="1"/>
        <pt x="1562" y="231" on="0"/>
        <pt x="1511" y="537" on="1"/>
        <pt x="1467" y="804" on="0"/>
        <pt x="1467" y="838" on="1"/>
        <pt x="1467" y="876" on="0"/>
        <pt x="1500" y="925" on="1"/>
        <pt x="1511" y="925" on="0"/>
        <pt x="1553" y="904" on="0"/>
        <pt x="1555" y="890" on="1"/>
        <pt x="1567" y="830" on="0"/>
        <pt x="1610" y="520" on="1"/>
        <pt x="1641" y="293" on="0"/>
        <pt x="1684" y="154" on="1"/>
        <pt x="1699" y="106" on="0"/>
        <pt x="1805" y="106" on="1"/>
        <pt x="1911" y="106" on="0"/>
        <pt x="1959" y="143" on="1"/>
        <pt x="1956" y="156" on="0"/>
        <pt x="1936" y="206" on="1"/>
        <pt x="1918" y="251" on="0"/>
        <pt x="1918" y="265" on="1"/>
        <pt x="1918" y="288" on="0"/>
        <pt x="1951" y="332" on="0"/>
        <pt x="1974" y="332" on="1"/>
        <pt x="2016" y="332" on="0"/>
        <pt x="2042" y="266" on="1"/>
        <pt x="2061" y="219" on="0"/>
      </contour>
      <contour>
        <pt x="1139" y="1316" on="1"/>
        <pt x="1051" y="1244" on="0"/>
        <pt x="939" y="1190" on="1"/>
        <pt x="746" y="1100" on="1"/>
        <pt x="701" y="1100" on="1"/>
        <pt x="701" y="1103" on="0"/>
        <pt x="690" y="1147" on="0"/>
        <pt x="690" y="1159" on="1"/>
        <pt x="1050" y="1366" on="0"/>
        <pt x="1074" y="1366" on="1"/>
        <pt x="1126" y="1366" on="1"/>
        <pt x="1139" y="1352" on="1"/>
      </contour>
      <contour>
        <pt x="2419" y="-185" on="1"/>
        <pt x="2257" y="-293" on="0"/>
        <pt x="2228" y="-292" on="1"/>
        <pt x="2185" y="-292" on="1"/>
        <pt x="2185" y="-276" on="0"/>
        <pt x="2174" y="-192" on="0"/>
        <pt x="2174" y="-180" on="1"/>
        <pt x="2174" y="-147" on="0"/>
        <pt x="2254" y="-47" on="0"/>
        <pt x="2281" y="-47" on="1"/>
        <pt x="2334" y="-47" on="0"/>
        <pt x="2337" y="-104" on="1"/>
        <pt x="2325" y="-118" on="0"/>
        <pt x="2325" y="-127" on="1"/>
        <pt x="2272" y="-118" on="1"/>
        <pt x="2255" y="-135" on="1"/>
        <pt x="2260" y="-172" on="0"/>
        <pt x="2318" y="-176" on="1"/>
        <pt x="2409" y="-181" on="0"/>
      </contour>
      <contour>
        <pt x="2532" y="-353" on="1"/>
        <pt x="2309" y="-462" on="0"/>
        <pt x="2137" y="-528" on="1"/>
        <pt x="2112" y="-502" on="1"/>
        <pt x="2146" y="-435" on="0"/>
        <pt x="2303" y="-367" on="1"/>
        <pt x="2432" y="-312" on="0"/>
        <pt x="2456" y="-313" on="1"/>
        <pt x="2518" y="-313" on="1"/>
        <pt x="2532" y="-326" on="1"/>
      </contour>
      <contour>
        <pt x="2051" y="-241" on="1"/>
        <pt x="2051" y="-269" on="0"/>
        <pt x="2011" y="-289" on="1"/>
        <pt x="1983" y="-303" on="0"/>
        <pt x="1969" y="-303" on="1"/>
        <pt x="1957" y="-303" on="0"/>
        <pt x="1925" y="-293" on="0"/>
        <pt x="1912" y="-293" on="1"/>
        <pt x="1900" y="-293" on="0"/>
        <pt x="1818" y="-334" on="0"/>
        <pt x="1805" y="-334" on="1"/>
        <pt x="1743" y="-334" on="0"/>
        <pt x="1743" y="-272" on="1"/>
        <pt x="1743" y="-200" on="0"/>
        <pt x="1820" y="-200" on="1"/>
        <pt x="1831" y="-200" on="0"/>
        <pt x="1864" y="-211" on="0"/>
        <pt x="1877" y="-211" on="1"/>
        <pt x="1889" y="-211" on="0"/>
        <pt x="1956" y="-170" on="0"/>
        <pt x="1969" y="-170" on="1"/>
        <pt x="2000" y="-170" on="0"/>
        <pt x="2028" y="-203" on="1"/>
        <pt x="2051" y="-230" on="0"/>
      </contour>
      <contour>
        <pt x="1334" y="147" on="1"/>
        <pt x="1334" y="23" on="0"/>
        <pt x="1279" y="7" on="1"/>
        <pt x="1201" y="-17" on="0"/>
        <pt x="950" y="-45" on="1"/>
        <pt x="651" y="-77" on="0"/>
        <pt x="474" y="-77" on="1"/>
        <pt x="414" y="-77" on="0"/>
        <pt x="364" y="-58" on="1"/>
        <pt x="300" y="-34" on="0"/>
        <pt x="300" y="9" on="1"/>
        <pt x="300" y="86" on="0"/>
        <pt x="366" y="86" on="1"/>
        <pt x="379" y="86" on="0"/>
        <pt x="538" y="75" on="0"/>
        <pt x="551" y="75" on="1"/>
        <pt x="585" y="75" on="0"/>
        <pt x="801" y="92" on="1"/>
        <pt x="1058" y="111" on="0"/>
        <pt x="1195" y="129" on="1"/>
        <pt x="1222" y="133" on="0"/>
        <pt x="1242" y="153" on="1"/>
        <pt x="1246" y="232" on="0"/>
        <pt x="1228" y="315" on="1"/>
        <pt x="1208" y="406" on="0"/>
        <pt x="1149" y="630" on="1"/>
        <pt x="1099" y="821" on="0"/>
        <pt x="1099" y="833" on="1"/>
        <pt x="1099" y="938" on="0"/>
        <pt x="1143" y="976" on="1"/>
        <pt x="1172" y="976" on="0"/>
        <pt x="1186" y="952" on="1"/>
        <pt x="1186" y="940" on="1"/>
        <pt x="1186" y="875" on="0"/>
        <pt x="1292" y="801" on="1"/>
        <pt x="1292" y="773" on="0"/>
        <pt x="1242" y="646" on="0"/>
        <pt x="1242" y="633" on="1"/>
        <pt x="1242" y="621" on="0"/>
        <pt x="1334" y="160" on="0"/>
      </contour>
      <contour>
        <pt x="935" y="373" on="1"/>
        <pt x="935" y="321" on="0"/>
        <pt x="871" y="277" on="1"/>
        <pt x="815" y="239" on="0"/>
        <pt x="776" y="239" on="1"/>
        <pt x="750" y="239" on="0"/>
        <pt x="638" y="294" on="1"/>
        <pt x="648" y="322" on="0"/>
        <pt x="691" y="330" on="1"/>
        <pt x="773" y="346" on="0"/>
        <pt x="782" y="349" on="1"/>
        <pt x="769" y="383" on="0"/>
        <pt x="746" y="394" on="1"/>
        <pt x="730" y="402" on="0"/>
        <pt x="730" y="444" on="1"/>
        <pt x="730" y="510" on="0"/>
        <pt x="836" y="607" on="1"/>
        <pt x="903" y="607" on="1"/>
        <pt x="903" y="604" on="0"/>
        <pt x="914" y="592" on="0"/>
        <pt x="914" y="578" on="1"/>
        <pt x="914" y="553" on="0"/>
        <pt x="832" y="498" on="1"/>
        <pt x="832" y="496" on="0"/>
        <pt x="834" y="483" on="1"/>
        <pt x="839" y="477" on="0"/>
        <pt x="896" y="444" on="1"/>
        <pt x="935" y="423" on="0"/>
      </contour>
      <contour>
        <pt x="2899" y="289" on="1"/>
        <pt x="2870" y="279" on="0"/>
        <pt x="2858" y="250" on="1"/>
        <pt x="2892" y="217" on="0"/>
        <pt x="2959" y="232" on="1"/>
        <pt x="2935" y="268" on="0"/>
      </contour>
    </TTGlyph>
</ttFont>
